<svg width="70" height="70" viewBox="0 0 70 70" fill="none" xmlns="http://www.w3.org/2000/svg">
<path d="M69.995 34.9917L69.9486 36.7828L69.8143 38.5738L69.5904 40.3151L69.2819 42.0398L68.8922 43.7313L68.4196 45.4063L67.869 47.0315L67.2405 48.6235L66.539 50.1658L65.7662 51.675L64.9221 53.1343L64.0116 54.5605L63.0348 55.937L61.995 57.2637L60.8939 58.524L59.7347 59.7512L58.5191 60.8955L57.2487 62.0066L55.9254 63.0348L54.5522 64.0133L53.1327 64.9254L51.6667 65.7711L50.1575 66.5506L48.607 67.2471L47.0166 67.8773L45.3914 68.4245L43.7313 68.8889L42.0381 69.2869L40.3151 69.5854L38.5638 69.8176L36.7877 69.9503L34.9867 70C15.6567 70 0 54.3284 0 34.9917C0 15.6716 15.6567 0 34.9867 0C54.3051 0 69.995 15.6716 69.995 34.9917Z" fill="#A87B00"/>
<path d="M68.5442 34.9903L68.4995 36.715L68.3701 38.4232L68.1578 40.0981L67.8626 41.7565L67.4879 43.3817L67.0351 44.9738L66.5078 46.5326L65.9074 48.0583L65.2358 49.5343L64.4961 50.9771L63.6885 52.3867L62.8162 53.7466L61.8809 55.0733L60.8842 56.3336L59.8311 57.5608L58.72 58.7217L57.5542 59.8328L56.3386 60.8776L55.0699 61.8892L53.7548 62.8179L52.395 63.6968L50.9903 64.4928L49.5442 65.2391L48.0583 65.919L46.5343 66.516L44.9754 67.0467L43.3834 67.4945L41.7615 67.8593L40.1097 68.1578L38.4298 68.3734L36.7267 68.5061L35.0003 68.5558C16.4663 68.5558 1.45135 53.5144 1.45135 34.9903C1.45135 16.4663 16.4663 1.44141 35.0003 1.44141C53.5277 1.44141 68.5442 16.4663 68.5442 34.9903Z" fill="#D4B76A"/>
<path d="M67.1881 34.9801L67.1466 36.6385L67.0223 38.2803L66.8183 39.8889L66.5347 41.4809L66.1748 43.0398L65.742 44.5655L65.2362 46.058L64.6591 47.5174L64.0156 48.9436L63.3042 50.3366L62.5297 51.6799L61.6923 52.99L60.7951 54.2504L59.8398 55.461L58.8282 56.6385L57.7636 57.7496L56.6458 58.8109L55.4783 59.8391L54.2611 60.7844L53.0007 61.6799L51.6939 62.5257L50.3473 63.3051L48.9593 64.0016L47.5331 64.6484L46.072 65.2288L44.5762 65.7429L43.0488 66.1741L41.4916 66.5224L39.9078 66.8043L38.2959 67.0199L36.6624 67.136L35.0057 67.1857C17.2296 67.1857 2.81665 52.7744 2.81665 34.9801C2.81665 17.2023 17.2296 2.79102 35.0057 2.79102C52.7818 2.79102 67.1881 17.2023 67.1881 34.9801Z" fill="#091F62"/>
<path d="M34.9934 13.1992L33.8723 13.2324L32.7662 13.3153L31.6749 13.448L30.602 13.6304L29.5472 13.8792L28.5141 14.1777L27.5008 14.5259L26.5124 14.9073L25.5472 15.3385L24.6069 15.8195L23.6948 16.3501L22.8109 16.914L21.9569 17.5276L21.1343 18.1743L20.3433 18.8543L19.587 19.584L18.8657 20.3302L18.1807 21.1262L17.5356 21.9554L16.927 22.8012L16.3615 23.6967L15.8375 24.6088L15.3549 25.5375L14.9187 26.4994L14.529 27.4944L14.1874 28.506L13.8938 29.5508L13.6501 30.5956L13.4593 31.6735L13.32 32.768L13.2371 33.8791L13.2073 34.9903C13.2073 47.03 22.9569 56.7979 34.9934 56.7979C47.0298 56.7979 56.7861 47.03 56.7861 34.9903C56.7861 22.9505 47.0298 13.1992 34.9934 13.1992Z" fill="white"/>
<path d="M51.1043 46.3849L51.5189 45.7713L51.9102 45.1412L52.28 44.4944L52.6267 43.831L52.9484 43.1511L53.2469 42.4712L53.5189 41.7747L53.766 41.0616L53.9849 40.3319L54.1772 39.6022L54.3431 38.8393L54.4791 38.0931L54.5852 37.3302L54.6631 36.5508L54.7096 35.7714L54.7262 34.9753H58.8522L58.7676 34.8095L54.7129 34.4446C54.5504 28.3253 51.6034 22.8858 47.0943 19.37C47.8074 18.773 48.3514 18.1594 48.8439 17.5126C49.3298 16.8659 49.0893 16.2689 49.0893 16.2689C47.9102 17.1146 46.751 17.778 45.6117 18.3253C45.3447 18.1594 45.0794 17.977 44.8074 17.8277V17.8112C44.7941 17.8112 44.7875 17.8112 44.7759 17.8112C41.8986 16.1528 38.5686 15.1909 35.0263 15.1743L35.0197 11.1113L34.8505 11.1942L34.5338 15.1743C23.9683 15.3899 15.4044 23.914 15.1391 34.4612L11.2651 34.8095L11.1805 34.9753H15.1258C15.1258 45.7548 23.7742 54.5441 34.489 54.7763L34.8323 58.7398L35.0064 58.8228V54.7763C41.5885 54.7597 47.5222 51.3601 51.1043 46.3849Z" fill="#D4B76A"/>
<path d="M54.3241 34.9792L54.2993 35.9742L54.2246 36.9693L54.1019 37.9311L53.9328 38.8764L53.7155 39.8217L53.4551 40.7338L53.1517 41.6293L52.8051 42.5082L52.4187 43.3706L51.9925 44.1998L51.5265 45.0124L51.024 45.8084L50.485 46.5547L49.9112 47.2844L49.3026 47.9975L48.6624 48.6608L47.9925 49.3076L47.291 49.9046L46.5596 50.485L45.8017 51.0323L45.0173 51.5298L44.208 51.9941L43.3755 52.4253L42.5182 52.8067L41.6409 53.155L40.742 53.4535L39.825 53.7189L38.8896 53.9344L37.9377 54.1003L36.9709 54.233L35.9891 54.2993L34.9941 54.3324C24.3125 54.3324 15.6575 45.6757 15.6575 34.9792C15.6575 24.3159 24.3125 15.6426 34.9941 15.6426C45.6707 15.6426 54.3241 24.3159 54.3241 34.9792Z" fill="#D4B76A"/>
<path d="M6.30933 28.4249L10.9677 29.6687L11.1883 28.8561C11.1883 28.8561 9.36737 28.3586 9.15344 28.3088C9.21148 28.1098 9.56803 26.7499 9.56803 26.7499L8.89473 26.5675C8.89473 26.5675 8.53155 27.9274 8.48014 28.1264C8.29274 28.0766 7.39225 27.8445 7.20319 27.7781C7.26289 27.5791 7.69573 25.9373 7.69573 25.9373L7.02243 25.7715L6.30933 28.4249Z" fill="white"/>
<path d="M7.77966 23.719L12.1594 25.7422L13.3634 23.1054L12.7283 22.8069C12.7283 22.8069 11.9637 24.4653 11.8808 24.6643C11.6984 24.5813 10.7332 24.1336 10.5525 24.0672C10.6437 23.8682 11.2258 22.5913 11.2258 22.5913L10.584 22.3094C10.584 22.3094 10.0019 23.5863 9.91731 23.7687C9.74318 23.7024 8.9455 23.321 8.77137 23.2546C8.86092 23.0556 9.56739 21.5134 9.56739 21.5134L8.93223 21.2148L7.77966 23.719Z" fill="white"/>
<path d="M11.1034 17.7605L10.0603 19.2033L13.9658 22.0226L15.0089 20.5798C15.3721 20.0657 15.5213 19.5184 15.4301 18.9711C15.3273 18.341 14.9193 17.744 14.2842 17.2796C13.0984 16.4338 11.9392 16.5997 11.1034 17.7605ZM11.5445 18.341L11.5843 18.2912L11.6258 18.2415L11.6706 18.1917L11.717 18.1254L11.7651 18.0756L11.8132 18.0259L11.8663 17.9927L11.9193 17.943L11.9741 17.8932L12.0321 17.86L12.0918 17.8103L12.1532 17.7771L12.2162 17.744L12.2809 17.7274L12.3489 17.6942L12.4169 17.6776L12.4882 17.661L12.5628 17.6444L12.6374 17.6279H12.7154H12.795L12.8762 17.6444H12.9608L13.0454 17.661L13.1349 17.6942L13.2245 17.7274L13.2709 17.744L13.3174 17.7605L13.3638 17.7771L13.4119 17.7937L13.46 17.8269L13.5081 17.8434L13.5578 17.8766L13.6076 17.9098L13.6573 17.943L13.7071 17.9761L13.7585 18.0093L13.8115 18.0425C14.3157 18.4073 14.6076 18.8053 14.6789 19.2199C14.6921 19.2862 14.6921 19.3526 14.6921 19.4023C14.6921 19.7672 14.5363 20.0325 14.4268 20.1818C14.4268 20.1818 14.0504 20.7124 13.8961 20.928C13.7137 20.7954 11.3041 19.0541 11.1233 18.938C11.2328 18.7721 11.5445 18.341 11.5445 18.341Z" fill="white"/>
<path d="M13.8629 14.3964L17.1862 17.8956L19.2857 15.9055L18.7998 15.3914C18.7998 15.3914 17.4781 16.6518 17.3222 16.801C17.1862 16.6518 16.4532 15.8889 16.3172 15.7397C16.4665 15.607 17.4781 14.6286 17.4781 14.6286L16.9988 14.1311C16.9988 14.1311 15.9872 15.0929 15.833 15.2422C15.702 15.0929 15.0934 14.4627 14.964 14.3301C15.1199 14.1808 16.3504 13.0034 16.3504 13.0034L15.8645 12.5059L13.8629 14.3964Z" fill="white"/>
<path d="M18.8705 10.2825L17.5355 11.178L20.1971 15.1913L20.9036 14.7103C20.9036 14.7103 19.9517 13.2676 19.8356 13.1017C19.9517 13.0188 20.1258 12.9027 20.1905 12.853C20.3083 12.9027 22.368 13.7485 22.368 13.7485L23.2486 13.1515C23.2486 13.1515 20.9302 12.2725 20.703 12.1896C20.8456 11.9409 20.9368 11.6755 20.9368 11.3936C20.9368 11.1117 20.8588 10.8297 20.703 10.5976C20.5023 10.2991 20.2436 10.1001 19.9318 10.0337C19.4326 9.93423 18.9932 10.1996 18.8705 10.2825ZM19.0313 11.0122L19.0711 10.9956L19.1093 10.9624L19.1474 10.9458L19.1872 10.9293H19.2054L19.2253 10.9127H19.2436L19.2635 10.8961H19.2817L19.3016 10.8795H19.3199H19.3398H19.358L19.3763 10.8629H19.3962H19.4144H19.4326H19.4509H19.4691L19.4874 10.8463H19.5056H19.5239H19.5404L19.5587 10.8629H19.5753H19.5935H19.6101H19.6283C19.7693 10.8961 19.887 10.979 19.9716 11.1117C20.0877 11.2775 20.1391 11.4434 20.1391 11.6092C20.1391 11.9077 19.9451 12.173 19.5637 12.4384C19.5637 12.4384 19.4973 12.4715 19.4393 12.5047C19.3431 12.3555 18.7394 11.4434 18.63 11.2775C18.7593 11.1946 19.0313 11.0122 19.0313 11.0122Z" fill="white"/>
<path d="M23.5719 7.75749L23.625 12.9316L24.3629 12.6331C24.3629 12.6331 24.3497 11.3893 24.3497 11.2401C24.4857 11.1903 25.9185 10.6099 26.0545 10.5436C26.1573 10.6596 27.0263 11.5552 27.0263 11.5552L27.8737 11.2069L24.2916 7.45898L23.5719 7.75749ZM24.3248 8.73593L24.353 8.7691L24.3845 8.80227L24.4177 8.83543L24.4525 8.8686L24.489 8.90177L24.5288 8.95152L24.5686 8.98469L24.6117 9.03444L24.6532 9.08419L24.6979 9.13394L24.7875 9.21685L24.8787 9.31636L24.9716 9.41587L25.0611 9.51536L25.1059 9.54853L25.149 9.59829L25.1921 9.64804L25.2336 9.6812L25.2734 9.73096L25.3115 9.76412L25.3464 9.81387L25.3812 9.84704L25.4144 9.8802L25.4442 9.91338L25.4707 9.94654L25.4956 9.96313L25.5172 9.97971L25.5354 10.0129C25.3016 10.0958 24.5769 10.3943 24.343 10.4938C24.343 10.2285 24.3298 9.15052 24.3248 8.73593Z" fill="white"/>
<path d="M27.9646 6.28984L28.9231 10.9996L31.7805 10.4192L31.6379 9.73926C31.6379 9.73926 29.8369 10.1041 29.623 10.1539C29.5782 9.92168 28.8004 6.10742 28.8004 6.10742L27.9646 6.28984Z" fill="white"/>
<path d="M35.5773 10.1709L36.3667 10.2704C36.3667 10.2704 36.9504 9.15925 37.0217 9.04316C37.171 9.05975 38.705 9.22558 38.8542 9.24218C38.894 9.39142 39.2174 10.5855 39.2174 10.5855L40.1312 10.7015L38.7829 5.69325L38.0184 5.59375L35.5773 10.1709ZM38.2008 6.82094L38.2108 6.87069L38.2224 6.90386L38.2356 6.95362L38.2489 7.00336L38.2638 7.05311L38.2771 7.10287L38.2937 7.1692L38.3086 7.21895L38.3252 7.28529L38.3418 7.35162L38.3749 7.46771L38.4098 7.60038L38.4446 7.73305L38.4794 7.84913L38.496 7.91548L38.5126 7.98181L38.5292 8.03156L38.5441 8.0979L38.559 8.14764L38.574 8.19739L38.5872 8.24715L38.6005 8.2969L38.6138 8.34665L38.6254 8.3964L38.6353 8.42957L38.6453 8.46274L38.6536 8.4959L38.6602 8.51248C38.4081 8.4959 37.6303 8.3964 37.3783 8.36323C37.501 8.14764 38.0068 7.20237 38.2008 6.82094Z" fill="white"/>
<path d="M41.7823 11.2152L42.5269 11.4474L45.5916 7.33459L44.8271 7.10242C44.8271 7.10242 42.8968 9.68948 42.5667 10.1372C42.5269 9.5734 42.2997 6.33956 42.2997 6.33956L41.4258 6.07422L41.7823 11.2152Z" fill="white"/>
<path d="M45.1185 12.4417L45.8879 12.8066L47.9493 8.4451L47.1782 8.08021L45.1185 12.4417Z" fill="white"/>
<path d="M46.9382 13.2352L47.5999 13.6829C47.5999 13.6829 48.6298 12.9698 48.7525 12.8869C48.8752 12.9698 50.1522 13.8487 50.2749 13.9317C50.2434 14.0809 49.9764 15.2915 49.9764 15.2915L50.7276 15.8222L51.8686 10.7642L51.2268 10.3164L46.9382 13.2352ZM50.8255 11.4939L50.8172 11.527L50.8072 11.5768L50.7973 11.6099L50.7857 11.6597L50.7741 11.726L50.7624 11.7758L50.7492 11.8255L50.7359 11.8919L50.7226 11.9582L50.7077 12.0079L50.6795 12.1406L50.6513 12.2733L50.6231 12.406L50.5933 12.522L50.58 12.5884L50.5668 12.6547L50.5518 12.7211L50.5402 12.7708L50.527 12.8206L50.5153 12.8869L50.5037 12.9366L50.4921 12.9864L50.4822 13.0196L50.4722 13.0693L50.4639 13.1025L50.4556 13.1356L50.449 13.1688L50.444 13.202C50.2367 13.0527 49.5883 12.6215 49.381 12.4723C49.5949 12.323 50.4822 11.726 50.8255 11.4939Z" fill="white"/>
<path d="M54.7514 14.01L54.7431 14.0265H54.7299L54.7133 14.0431L54.6934 14.0763L54.6702 14.0929L54.6436 14.1261L54.6138 14.1426L54.5823 14.1758L54.5474 14.2256L54.5093 14.2587L54.4695 14.2919L54.4264 14.3416L54.3816 14.3914L54.3335 14.4411L54.234 14.5406L54.1262 14.6401L54.0134 14.7728L53.894 14.8889L53.7713 15.005L53.6436 15.1377L53.5143 15.2703L53.2522 15.5357L53.1229 15.6849L52.9935 15.8176L52.8658 15.9337L52.7431 16.0664L52.6237 16.1824L52.5093 16.2985L52.4032 16.4146L52.302 16.5141L52.2556 16.5639L52.2108 16.6136L52.1677 16.6634L52.1279 16.6965L52.0897 16.7297L52.0549 16.7795L52.0217 16.8126L51.9919 16.8292L51.9653 16.8624L51.9421 16.8955L51.9222 16.9121L51.9056 16.9287L51.8924 16.9453H51.8841L51.8774 16.9619H51.8758L52.4844 17.5589C52.4844 17.5589 55.1992 14.7728 55.36 14.607C55.5093 14.7562 56.5209 15.7347 56.5209 15.7347L57.0134 15.2372L54.0847 12.3848L53.5922 12.8823L54.7514 14.01Z" fill="white"/>
<path d="M54.2343 19.5193L54.7584 20.1992L58.5743 17.2474L58.0502 16.584L54.2343 19.5193Z" fill="white"/>
<path d="M57.6805 20.0371C56.3389 20.7668 55.8862 22.0106 56.5329 23.2046C56.8314 23.7519 57.2659 24.1167 57.79 24.266C58.3986 24.4484 59.1183 24.3489 59.8182 23.9674C61.1648 23.2378 61.6192 21.994 60.9708 20.8C60.324 19.6059 59.0338 19.3074 57.6805 20.0371ZM57.1548 22.8729L57.13 22.8232L57.1051 22.7734L57.0835 22.7237L57.0653 22.6739L57.0487 22.6242L57.0338 22.5744L57.0205 22.5247L57.0089 22.4915L57.0006 22.4417L56.994 22.392L56.989 22.3422L56.9857 22.3091L56.984 22.2593L56.9857 22.2262L56.9873 22.1764L56.9907 22.1266L57.0039 22.0437L57.0222 21.9774L57.0454 21.8945L57.0736 21.8116L57.1084 21.7452L57.1465 21.6789L57.188 21.6126L57.2328 21.5462L57.2825 21.4799L57.3339 21.4136L57.387 21.3472L57.4417 21.2975L57.4998 21.2477L57.5578 21.198L57.6159 21.1482L57.6756 21.0985L57.7336 21.0487L57.7916 21.0155L57.8497 20.9658L57.9061 20.9326L57.9591 20.8995L58.0122 20.8663L58.062 20.8497L58.1084 20.8165C58.4384 20.6341 59.0802 20.3522 59.649 20.518C59.9475 20.6175 60.188 20.8165 60.3555 21.1316C60.4716 21.3472 60.5247 21.5628 60.5247 21.7452C60.5247 22.4749 59.7734 22.9724 59.3903 23.188C58.9111 23.4533 57.7319 23.9343 57.1548 22.8729Z" fill="white"/>
<path d="M58.1086 26.2202L58.3275 26.9665C58.3275 26.9665 60.9196 26.2037 61.5282 26.0378C61.1003 26.5353 58.9246 29.0229 58.9246 29.0229L59.1451 29.7857L63.7703 28.4425L63.5564 27.6962C63.5564 27.6962 60.9644 28.459 60.3557 28.6249C60.7836 28.144 62.9594 25.6564 62.9594 25.6564L62.7405 24.877L58.1086 26.2202Z" fill="white"/>
<path d="M6.32182 42.7355H6.32347H6.32513H6.33011H6.33674H6.34503H6.35498H6.36659H6.37986H6.39313H6.40971H6.42629H6.44454H6.46444H6.486H6.50755H6.53077L6.58052 42.7521H6.63359H6.68998H6.74802H6.80938L6.8724 42.7686H6.93541H7.00175H7.13276L7.19744 42.7852H7.26211H7.32513H7.38483L7.44454 42.8018H7.49926H7.55233H7.60208H7.62364H7.64686H7.66676H7.68666H7.7049H7.72149L7.73807 42.8184H7.75134H7.7646H7.77455H7.7845H7.79279C7.83757 42.9511 8.36328 44.5431 8.40805 44.6758C8.29197 44.7753 7.28036 45.621 7.28036 45.621L7.57886 46.5331L11.7696 43.034L11.5175 42.2711L6.06311 41.9395L6.32182 42.7355ZM8.57555 42.8681H8.60374H8.63691H8.67339H8.71485H8.76129L8.81104 42.8847H8.86411H8.92049H8.98019H9.04155L9.10623 42.9013H9.17256H9.24056H9.31021L9.45117 42.9179H9.59545L9.73807 42.9345H9.87903H9.94702L10.0134 42.9511H10.078H10.1394H10.1991L10.2555 42.9676H10.3102H10.36H10.4064H10.4479C10.1245 43.2496 9.21734 44.0124 9.01004 44.1783C8.9321 43.9295 8.66012 43.1169 8.57555 42.8681Z" fill="white"/>
<path d="M8.49286 48.4279L9.45803 50.0365C9.79468 50.6003 10.274 50.9818 10.8378 51.1144C11.4912 51.2803 12.2375 51.1476 12.9489 50.7164C13.604 50.3184 14.0252 49.8209 14.1744 49.2405C14.3154 48.6766 14.1927 48.0796 13.8179 47.4494L12.8527 45.8242L8.49286 48.4279ZM12.6836 46.9519L12.6885 46.9685H12.6935L12.7035 46.9851L12.7151 47.0017L12.7267 47.0348L12.74 47.0514L12.7532 47.068L12.7681 47.1012L12.7831 47.1178L12.798 47.1509L12.8146 47.1841L12.8461 47.2338L12.8793 47.2836L12.9124 47.3499L12.9274 47.3665L12.9439 47.3997L12.9589 47.4163L12.9738 47.4494L12.9871 47.466L13.0003 47.4992L13.0136 47.5158L13.0235 47.5323L13.0351 47.5489L13.0401 47.5655H13.0434L13.0484 47.5821H13.0517H13.0567L13.06 47.5987H13.0617H13.065L13.0667 47.6153H13.0683H13.07H13.0716C13.2408 47.8972 13.3768 48.2289 13.3768 48.5771C13.3768 49.0415 13.1363 49.5224 12.4182 49.9536C10.9804 50.8159 10.2939 50.0365 10.0667 49.6385C10.0667 49.6385 9.71011 49.0415 9.57412 48.8093C9.76815 48.6932 12.4895 47.068 12.6836 46.9519Z" fill="white"/>
<path d="M12.1977 54.0596L12.7682 54.6401C12.7682 54.6401 14.5426 52.8822 15.2093 52.2354C14.808 53.0646 13.7715 55.2039 13.7715 55.2039L14.342 55.7844C14.342 55.7844 16.5377 54.7893 17.3668 54.4079C16.7134 55.0547 14.9191 56.8291 14.9191 56.8291L15.5144 57.4261L19.1297 53.8606L18.4166 53.131C18.4166 53.131 15.4431 54.4908 14.944 54.7064C15.1844 54.2255 16.6023 51.2902 16.6023 51.2902L15.813 50.4941L12.1977 54.0596Z" fill="white"/>
<path d="M17.6273 58.9898L18.3586 59.5039L21.2674 55.3414L20.541 54.8273L17.6273 58.9898Z" fill="white"/>
<path d="M20.5407 60.9277L21.2737 61.2759C21.2737 61.2759 22.5175 58.6391 22.7895 58.0753C22.874 58.722 23.3334 62.2544 23.3334 62.2544L24.0847 62.6026L26.2621 58.0089L25.5291 57.6607C25.5291 57.6607 24.292 60.2809 24.0133 60.8613C23.9288 60.198 23.476 56.6988 23.476 56.6988L22.7182 56.334L20.5407 60.9277Z" fill="white"/>
<path d="M26.5583 63.3861L27.414 63.6348L28.7871 58.7426L27.9248 58.4938L26.5583 63.3861Z" fill="white"/>
<path d="M30.0959 60.4018L30.0893 60.4681L30.086 60.5345V60.6008L30.091 60.6837L30.0992 60.7335L30.1109 60.7998L30.1258 60.8661L30.144 60.9325L30.1639 60.9822L30.1888 61.0486L30.2153 61.0983L30.2435 61.1481L30.275 61.1978L30.3082 61.2641L30.3447 61.3139L30.3828 61.3637L30.4226 61.3968L30.4641 61.4466L30.5072 61.4963L30.552 61.5461L30.5968 61.5958L30.6449 61.629L30.741 61.7119L30.8405 61.7948L30.9417 61.8777L31.0445 61.9607L31.1457 62.027C31.6316 62.3918 32.0528 62.7069 31.9881 63.1879C31.9301 63.6356 31.5022 63.8015 31.1324 63.7517C30.6598 63.6854 30.2717 63.4532 29.8886 63.2044L29.7195 63.1049L29.6034 64.0336L29.6813 64.0668C30.154 64.2824 30.5487 64.3985 30.9384 64.4482C32.3248 64.6307 32.8173 63.7185 32.8886 63.2044C32.9981 62.3255 32.3314 61.8446 31.741 61.3968C31.2949 61.0651 30.9052 60.7666 30.9583 60.4018C30.9765 60.2194 31.1971 59.8545 31.7344 59.9374C32.0777 59.9872 32.3762 60.1364 32.688 60.3189L32.9467 60.4515L33.0561 59.6058L32.9782 59.5726C32.6283 59.3736 32.2535 59.2741 31.8455 59.2078C30.7046 59.0585 30.1672 59.8545 30.0959 60.4018Z" fill="white"/>
<path d="M34.1709 59.615L34.2107 60.3281C34.2107 60.3281 35.7066 60.2617 35.9205 60.2452C35.9338 60.4773 36.1477 64.5901 36.1477 64.5901L37.0349 64.5404C37.0349 64.5404 36.821 60.4276 36.8077 60.1954C37.0216 60.1788 38.5175 60.1125 38.5175 60.1125L38.4794 59.3828L34.1709 59.615Z" fill="white"/>
<path d="M41.2394 58.7394L39.601 59.154L40.8563 64.0794L41.7253 63.8638C41.7253 63.8638 41.2643 62.0893 41.2129 61.8737C41.3489 61.8406 41.5827 61.7742 41.6673 61.7577C41.7568 61.8406 43.5263 63.3994 43.5263 63.3994L44.5943 63.1175C44.5943 63.1175 42.5545 61.4094 42.3854 61.2601C42.7552 60.945 42.994 60.4973 42.994 60.0329C42.994 59.9169 42.9824 59.8008 42.9558 59.6847C42.858 59.3198 42.664 59.0379 42.3787 58.8721C41.9194 58.5902 41.3887 58.7062 41.2394 58.7394ZM41.1416 59.5188L41.1897 59.5023H41.2361L41.2825 59.4857H41.3273H41.3489H41.3721H41.3937H41.4152H41.4368H41.4583H41.4799H41.5014H41.5213H41.5413H41.5611L41.5811 59.5023H41.601H41.6209H41.6391L41.659 59.5188H41.6772H41.6955L41.7121 59.5354H41.7303L41.7469 59.552H41.7635L41.7801 59.5686H41.7966C41.926 59.6515 42.0172 59.7676 42.0553 59.9334C42.0819 60.0329 42.1001 60.1324 42.1001 60.2319C42.1001 60.3812 42.062 60.5139 41.9973 60.6134C41.8613 60.8621 41.5827 61.028 41.1814 61.1275C41.1814 61.1275 41.1034 61.1441 41.0321 61.1441C40.9857 60.9782 40.6955 59.8339 40.6424 59.6515C40.7983 59.6018 41.1416 59.5188 41.1416 59.5188Z" fill="white"/>
<path d="M45.4091 57.2457L45.8237 62.6852L46.5699 62.3203C46.5699 62.3203 46.4654 61.0102 46.4588 60.861C46.5882 60.7946 48.0857 60.0649 48.2217 59.9986C48.3311 60.0981 49.3096 60.9936 49.3096 60.9936L50.1719 60.579L46.1421 56.8809L45.4091 57.2457ZM46.2581 58.2076L46.2897 58.2407L46.3245 58.2573L46.361 58.2905L46.4008 58.3402L46.4439 58.3734L46.487 58.4066L46.5334 58.4563L46.5815 58.4895L46.6313 58.5392L46.681 58.589L46.7855 58.6885L46.8916 58.7714L46.9978 58.8709L47.1023 58.9704L47.1537 59.0202L47.2051 59.0699L47.2532 59.1031L47.3013 59.1528L47.346 59.186L47.3908 59.2357L47.4323 59.2689L47.4721 59.3021L47.5086 59.3353L47.5417 59.3684L47.5732 59.4016L47.6014 59.4348L47.6246 59.4513L47.6445 59.4679C47.4107 59.584 46.6346 59.9654 46.4008 60.0815C46.3809 59.8162 46.2913 58.6387 46.2581 58.2076Z" fill="white"/>
<path d="M48.2022 55.8204L48.6433 56.4009C48.6433 56.4009 49.8341 55.4888 50.0032 55.3561C50.1458 55.5551 52.64 58.8221 52.64 58.8221L53.3465 58.2748C53.3465 58.2748 50.8589 55.0078 50.7163 54.8254C50.8838 54.6928 52.0762 53.7806 52.0762 53.7806L51.635 53.2168L48.2022 55.8204Z" fill="white"/>
<path d="M52.4709 52.2909L56.1309 55.8066L56.7462 55.1598L53.0861 51.6441L52.4709 52.2909Z" fill="white"/>
<path d="M56.6945 47.7258H56.6414L56.59 47.7423L56.5386 47.7589L56.4872 47.7755L56.4358 47.7921L56.3844 47.8087L56.3346 47.8253L56.2849 47.8418L56.2368 47.875L56.187 47.8916L56.1389 47.9082L56.0925 47.9413L56.0444 47.9745L55.998 47.9911L55.9515 48.0243L55.9068 48.0574L55.862 48.0906L55.8172 48.1238L55.7741 48.1569L55.731 48.1901L55.6895 48.2233L55.648 48.273L55.6066 48.3062L55.5668 48.3394L55.527 48.3891L55.4872 48.4223L55.449 48.472L55.4126 48.5218L55.3744 48.5549L55.3396 48.6047L55.3048 48.6544L55.2699 48.7042C54.459 49.8982 54.7973 51.2581 56.1306 52.1702C56.8172 52.6345 57.5635 52.8335 58.2235 52.7009C58.794 52.6014 59.2865 52.2531 59.6547 51.7059C60.0245 51.1752 60.1605 50.5782 60.056 50.0143C59.9333 49.3675 59.4872 48.7374 58.794 48.273C58.1008 47.7921 57.3562 47.5931 56.6945 47.7258ZM56.6563 51.3908L56.6248 51.3742L56.5917 51.3576L56.5568 51.3244L56.522 51.3078L56.4855 51.2747L56.449 51.2415L56.4126 51.2083L56.3744 51.1918L56.3363 51.1586L56.2965 51.1254L56.2583 51.0757L56.2202 51.0425L56.1804 51.0093L56.1422 50.9762L56.1041 50.9264L56.0676 50.8933L56.0295 50.8435L55.9946 50.8103L55.9582 50.7606L55.925 50.7108L55.8918 50.6611L55.8603 50.6113L55.8288 50.5782L55.8006 50.5284L55.7724 50.4621L55.7475 50.4123L55.7243 50.3626L55.7028 50.3128L55.6829 50.2631L55.6663 50.1967L55.6514 50.147L55.6381 50.0806C55.5734 49.7656 55.6514 49.4339 55.8653 49.1188C56.0792 48.8037 56.3512 48.6213 56.6746 48.5549C57.2915 48.4554 57.9383 48.8037 58.2683 49.0359C58.7475 49.3675 59.784 50.2299 59.0593 51.2913C58.3263 52.3692 57.1356 51.7224 56.6563 51.3908Z" fill="white"/>
<path d="M58.6191 42.1903L58.367 42.8205C58.367 42.8205 61.0685 43.8818 61.6638 44.114C61.0171 44.2467 57.5378 44.9432 57.5378 44.9432L57.2327 45.7226L61.9623 47.58L62.2542 46.8172C62.2542 46.8172 59.5594 45.7558 58.9624 45.5236C59.6041 45.391 63.09 44.6944 63.09 44.6944L63.3869 43.9316L58.6655 42.0742L58.6191 42.1903Z" fill="white"/>
<path d="M60.1943 34.1615H61.579L62.0135 32.8348L62.4347 34.1615H63.8278L62.7067 34.9741L63.1279 36.3008L62.0135 35.4882L60.8924 36.3008L61.3203 34.9741L60.1943 34.1615Z" fill="white"/>
<path d="M6.11432 34.183H7.50072L7.93521 32.8562L8.34981 34.183H9.74948L8.62178 34.9956L9.06125 36.3223L7.93521 35.5097L6.81415 36.3223L7.23538 34.9956L6.11432 34.183Z" fill="white"/>
<path d="M53.8773 37.4768L53.738 37.7421L53.5871 38.0075L53.4262 38.2562L53.2554 38.505L53.073 38.7538L52.879 39.0025L52.6766 39.2513L52.4644 39.4834L52.2421 39.7156L52.01 39.9478L51.7678 40.18L51.5174 40.4121L51.2571 40.6277L50.9884 40.8433L50.7098 41.0589L50.4246 41.2579C51.0067 39.1683 51.2338 37.0456 51.1559 34.9727H54.0448C54.0448 35.835 53.9801 36.6642 53.8773 37.4768Z" fill="#0A6826"/>
<path d="M50.4559 46.0991L50.2419 46.3644L50.0131 46.6297L49.7743 46.8951L49.5222 47.1438L49.2585 47.3926L48.9832 47.6413L48.698 47.8735L48.4011 48.1057L48.0927 48.3379L47.7759 48.5535L47.4476 48.769L47.1109 48.968L46.7643 49.1836L46.4078 49.3661L46.0429 49.5651L45.6698 49.7475C47.761 47.4755 49.2254 44.9216 50.106 42.2682C51.5189 41.3727 52.6914 40.3611 53.5603 39.2168C52.9899 41.7375 51.9202 44.0593 50.4559 46.0991Z" fill="#0A6826"/>
<path d="M42.6506 52.468L42.8778 52.2855L43.1017 52.1197L43.3223 51.9373L43.5412 51.7549L43.7551 51.589L43.9674 51.4066L44.1747 51.2242L44.3803 51.0252C45.2493 50.7101 46.0719 50.3287 46.843 49.9141C45.5661 50.9423 44.1614 51.788 42.6506 52.468Z" fill="#0A6826"/>
<path d="M39.9682 53.417L39.678 53.4999L39.3861 53.5663L39.0926 53.6326L38.7991 53.6989L38.5022 53.7653L38.2037 53.815L37.9052 53.8648L37.6034 53.9145C38.0114 53.417 38.4011 52.9195 38.7709 52.422C40.1175 52.2396 41.4127 51.9742 42.6432 51.6094C41.8206 52.2561 40.9334 52.8532 39.9682 53.417Z" fill="#0A6826"/>
<path d="M35 54.0989V52.6727C35.0066 52.6727 35.0066 52.6727 35.0066 52.6727C35.9917 52.6727 36.9569 52.6064 37.9088 52.5234C37.5207 53.0209 37.1177 53.5185 36.6982 54.016C36.141 54.0657 35.5771 54.0989 35 54.0989Z" fill="#0A6826"/>
<path d="M42.1907 45.3906L42.0149 45.7886L41.8308 46.1866L41.6385 46.5846L41.4395 46.9827L41.2338 47.3807L41.0199 47.7787L40.7977 48.1767L40.5688 48.5747L40.3317 48.9893L40.0879 49.3873L39.8358 49.7853L39.5771 50.1833L39.3101 50.5813L39.0365 50.9793L38.7546 51.3774L38.466 51.7754C37.3449 51.908 36.1857 51.9744 35.0066 51.9744C35.0066 51.9744 35.0066 51.9744 35 51.9744V46.1535C37.5075 46.1535 39.937 45.8881 42.1907 45.3906Z" fill="#0A6826"/>
<path d="M35 35.6692H35.0017H35.0033H35.005H35.0066C37.4677 35.6692 39.8126 35.4204 41.9569 34.9727H44.0763C44.2902 38.1733 43.7645 41.4071 42.5025 44.6244C40.1692 45.1717 37.6302 45.4702 35 45.4702V35.6692Z" fill="#0A6826"/>
<path d="M36.5026 15.9218L36.423 15.9716L36.3417 16.0379L36.2571 16.0876L36.1725 16.154L36.0847 16.2203L35.9951 16.2701L35.9055 16.3364L35.8127 16.4027L35.7198 16.4857L35.6236 16.552L35.5274 16.6183L35.4296 16.7012L35.3301 16.7842L35.2306 16.8505L35.1294 16.9334L35.0266 17.0163V15.8555C35.5241 15.8555 36.0167 15.8886 36.5026 15.9218Z" fill="#0A6826"/>
<path d="M42.3663 17.3668L41.9334 17.3004L41.5039 17.2507L41.081 17.2009L40.6615 17.1677L40.2452 17.1346L39.8356 17.1014L39.4276 17.0848L39.0263 17.0682L38.6283 17.0517H38.2336H37.8439H37.4591L37.0777 17.0682L36.7013 17.0848L36.3281 17.118L35.9583 17.1512C36.6714 16.6039 37.2601 16.2391 37.6499 16.0566C39.295 16.2888 40.8754 16.7366 42.3663 17.3668Z" fill="#0A6826"/>
<path d="M44.8589 18.6581L44.5156 18.8074L44.1707 18.9566L43.8291 19.0893L43.4874 19.2054L43.1491 19.338L42.8125 19.4541L42.4775 19.5536L42.1458 19.6697C40.7528 18.8571 39.2039 18.1938 37.4742 17.746C39.6185 17.6797 41.97 17.8953 44.5355 18.4425C44.645 18.5254 44.7495 18.5918 44.8589 18.6581Z" fill="#0A6826"/>
<path d="M46.5311 19.8184L46.5726 19.8349L46.6157 19.8681L46.6571 19.9013L46.6986 19.9344L46.74 19.9676L46.7815 20.0008L46.8014 20.0174L46.823 20.034L46.8429 20.0505L46.8611 20.0671C44.6853 21.825 41.9971 22.5049 41.7898 22.5381C41.7898 22.5381 41.7765 22.4718 41.8213 22.3888C43.9656 21.4602 45.4299 20.631 46.5311 19.8184Z" fill="#0A6826"/>
<path d="M50.0474 31.623L50.1105 31.9381L50.1702 32.2366L50.2232 32.5351L50.2713 32.8337L50.3144 33.1487L50.3542 33.4473L50.3874 33.7623L50.4173 34.0609L46.2382 33.696C47.6959 33.1156 48.9861 32.4191 50.0474 31.623Z" fill="#0A6826"/>
<path d="M42.5273 26.6691L42.5505 26.636L42.5737 26.6028L42.5953 26.553L42.6152 26.5199L42.6351 26.4867L42.6533 26.4535L42.6715 26.4204L42.6898 26.3872L42.7064 26.354L42.7213 26.3209L42.7512 26.2545L42.7793 26.1882L42.8042 26.1219L42.8274 26.0721L42.8473 26.0058L42.8672 25.956L42.8855 25.8897L42.9021 25.8399L42.9186 25.7902L42.9336 25.7404L42.9485 25.6907C41.4062 26.4038 39.8788 26.4038 39.8788 26.4038C39.8788 26.4038 39.8838 26.3706 39.9104 26.3375C39.9618 26.3209 40.1376 26.2877 40.1376 26.2877C42.8191 25.7404 44.723 24.4303 45.1193 23.9826C45.3647 23.7006 45.4808 23.4187 45.5455 23.2031C47.2172 24.9278 48.4543 26.9345 49.252 28.9909C49.4974 29.621 49.7047 30.2678 49.8805 30.9311C48.5256 31.9925 46.7445 32.888 44.6649 33.568H44.5803C44.4775 32.7719 44.3415 31.9925 44.1541 31.2131C43.7578 29.5879 43.1956 28.0787 42.5273 26.6691Z" fill="#0A6826"/>
<path d="M37.8707 20.7411L37.4959 20.8241L37.1278 20.907L36.7629 20.9899L36.4047 21.0728L36.0531 21.1723L35.7065 21.2552L35.3666 21.3547L35.0332 21.4542L35.0266 17.9551C35.0515 17.9551 35.078 17.9551 35.1046 17.9551C35.9586 18.7014 36.9105 19.63 37.8707 20.7411Z" fill="#0A6826"/>
<path d="M38.5643 20.5941L38.4167 20.4116L38.2691 20.2458L38.1215 20.08L37.9756 19.9141L37.828 19.7483L37.682 19.599L37.5361 19.4332L37.3902 19.2839L37.2442 19.1347L37.0999 18.9854L36.9573 18.8362L36.813 18.7035L36.6721 18.5708L36.5295 18.4216L36.3902 18.2889L36.2509 18.1562C38.09 18.5377 39.7368 19.1513 41.2061 19.9307C40.294 20.1795 39.4117 20.3951 38.5643 20.5941Z" fill="#0A6826"/>
<path d="M45.2874 22.9216L45.0917 23.0543L44.8927 23.1704L44.6921 23.2865L44.4898 23.386L44.2858 23.5021L44.0835 23.585L43.8811 23.6845L43.6788 23.7674L43.4782 23.8503L43.2808 23.9332L43.0851 23.9996L42.8927 24.0659L42.7037 24.1322L42.5196 24.182L42.3405 24.2483L42.1664 24.2981L41.9989 24.3312L41.838 24.381L41.6838 24.4142L41.5379 24.4473L41.4002 24.4805L41.2709 24.5137L41.1531 24.5302L41.0437 24.5634L40.9458 24.58L40.8579 24.5966L40.7833 24.6132H40.7203L40.6705 24.6297H40.634H40.6125H40.6058H40.6042C40.6042 24.6297 40.6241 24.5302 40.6556 24.5302C42.7866 23.9166 44.1929 23.303 45.1581 22.6895C45.1448 22.7226 45.1266 22.7226 45.1067 22.7392C45.1713 22.8055 45.2294 22.8719 45.2874 22.9216Z" fill="#0A6826"/>
<path d="M36.9437 31.312H36.9454H36.9487H36.9553H36.9653H36.9752H36.9902H37.0051H37.025L37.0681 31.2954H37.1195H37.1792L37.2456 31.2788H37.3185L37.3981 31.2622L37.4844 31.2456L37.5756 31.229L37.6718 31.2124L37.7729 31.1959L37.8774 31.1793L37.9852 31.1461L38.0963 31.1129L38.2107 31.0964L38.3268 31.0632L38.4446 31.03L38.5623 30.9803L38.6817 30.9471L38.8011 30.8974L38.9188 30.8476L39.0383 30.7979L39.1543 30.7481L39.2688 30.6818L39.3815 30.6154L39.4926 30.5491L39.5988 30.4828L39.7016 30.3998L39.8011 30.3169C41.1096 29.3219 41.0117 28.2274 41.0117 28.2274C39.5341 28.9239 37.9089 29.0731 37.9089 29.0731C37.9089 29.0731 37.9155 28.9902 37.9802 28.9239C39.5407 28.642 40.9802 27.962 41.5955 27.564C41.7895 27.4313 41.9454 27.2987 42.0814 27.166C42.0747 27.1826 42.0747 27.1826 42.0681 27.1992C42.6635 28.4927 43.1759 29.8692 43.5391 31.3617C43.7066 32.0748 43.8293 32.7879 43.9271 33.501L37.9537 32.9703C39.03 32.0416 39.0548 31.0632 39.0548 31.0632C37.3915 31.7929 36.9437 31.312 36.9437 31.312Z" fill="#0A6826"/>
<path d="M49.1875 42.8203L48.9835 43.3344L48.7646 43.8485L48.5308 44.3626L48.2804 44.8601L48.0134 45.3576L47.7314 45.8551L47.4329 46.3361L47.1178 46.817L46.7878 47.2979L46.4396 47.7789L46.0764 48.2432L45.695 48.691L45.2986 49.1553L44.884 49.5865L44.4528 50.0177L44.0051 50.4488C42.5722 50.9795 41.0051 51.3941 39.3533 51.6429C40.8691 49.5036 42.0615 47.3643 42.9421 45.225C45.2737 44.6445 47.3865 43.8319 49.1875 42.8203Z" fill="#0A6826"/>
<path d="M43.2601 44.4254L43.4741 43.845L43.6714 43.2479L43.8522 42.6509L44.0163 42.0705L44.1639 41.4735L44.2966 40.8765L44.411 40.296L44.5105 39.699L44.5935 39.102L44.6598 38.5216L44.7096 37.9246L44.7427 37.3275L44.761 36.7471L44.7626 36.1501L44.7477 35.5697L44.7162 34.9727H50.4625C50.5537 37.228 50.2684 39.5663 49.5304 41.8549C47.7676 42.9329 45.6366 43.8118 43.2601 44.4254Z" fill="#0A6826"/>
<path d="M47.2695 20.4004L47.6824 20.7652L48.0854 21.1301L48.4785 21.5281L48.8599 21.9095L49.2314 22.3241L49.5896 22.7387L49.9378 23.1699L50.2728 23.6011L50.5945 24.0488L50.9047 24.4966L51.2015 24.9609L51.4851 25.4418L51.7554 25.9228L52.0125 26.4037L52.2546 26.9012L52.4834 27.4153C52.16 28.5098 51.4602 29.5215 50.4552 30.4501C50.2944 29.8697 50.1053 29.3059 49.893 28.742C48.9992 26.4535 47.6061 24.2312 45.6824 22.3407C46.2977 21.8929 46.6924 21.4452 47.0025 21.014C47.1518 20.7984 47.2297 20.5994 47.2695 20.4004Z" fill="#0A6826"/>
<path d="M54.0333 34.3929L51.098 34.1276C51.0201 33.116 50.8708 32.1209 50.6453 31.1591C51.6486 30.3133 52.3998 29.368 52.8609 28.3398C53.5607 30.247 53.9686 32.2702 54.0333 34.3929Z" fill="#0A6826"/>
<path d="M34.4172 16.6135L34.3492 16.5637L34.2846 16.5139L34.2182 16.4642L34.1552 16.4144L34.0905 16.3647L34.0275 16.3149L33.9662 16.2652L33.9031 16.232L33.8434 16.1823L33.7837 16.1491L33.724 16.0994L33.666 16.0662L33.6096 16.0164L33.5532 15.9833L33.4985 15.9501L33.4454 15.9169C33.7887 15.8838 34.132 15.8672 34.4753 15.8672L34.4172 16.6135Z" fill="#0A6826"/>
<path d="M33.394 54.0296L33.2381 53.8472L33.0822 53.6648L32.928 53.4658L32.777 53.2834L32.6261 53.101L32.4769 52.9185L32.1833 52.5371C32.8832 52.6034 33.5897 52.6366 34.3077 52.6532L34.4304 54.096C34.0805 54.0794 33.7372 54.0628 33.394 54.0296Z" fill="#0A6826"/>
<path d="M30.0312 53.462L29.6813 53.2464L29.3397 53.0474L29.0014 52.8318L28.6713 52.5996L28.3463 52.384L28.0262 52.1518L27.7145 51.9197L27.4077 51.6875C28.6249 52.0192 29.9151 52.2679 31.2617 52.4338C31.6315 52.9313 32.0196 53.4288 32.4276 53.9263C31.6116 53.8268 30.8156 53.661 30.0312 53.462Z" fill="#0A6826"/>
<path d="M23.2479 50.1016L23.5398 50.2508L23.8366 50.4001L24.1401 50.5327L24.4469 50.6654L24.7587 50.7981L25.0755 50.9307L25.3972 51.0468L25.7222 51.1795C26.2662 51.6604 26.8366 52.1248 27.4403 52.5725C25.9361 51.9258 24.5249 51.0966 23.2479 50.1016Z" fill="#0A6826"/>
<path d="M19.6285 46.4168V46.4334C18.0016 44.261 16.8291 41.7402 16.2404 39.0039C17.1276 40.2311 18.3648 41.3422 19.8739 42.3041C20.781 45.0072 22.2902 47.6275 24.461 49.9326C22.4262 49.0205 20.7545 47.8265 19.6285 46.4168Z" fill="#0A6826"/>
<path d="M15.9362 37.1451L15.908 36.8798L15.8831 36.6144L15.8616 36.3325L15.8417 36.0672L15.8267 35.7853L15.8168 35.5199L15.8085 35.238L15.8068 34.9727H18.8184C18.7405 37.0456 18.9743 39.1849 19.5581 41.2911C17.8798 40.097 16.6294 38.6874 15.9494 37.1451H15.9362Z" fill="#0A6826"/>
<path d="M17.0367 28.2402L17.1296 28.4392L17.2291 28.6382L17.3352 28.8207L17.4496 29.0197L17.569 29.2021L17.6967 29.3845L17.8311 29.5669L17.972 29.7494L18.1196 29.9318L18.2739 30.1142L18.4347 30.2966L18.6006 30.4625L18.7747 30.6449L18.9538 30.8107L19.1395 30.9766L19.3302 31.1424C19.103 32.1042 18.9538 33.1159 18.8709 34.1275L15.8195 34.3928C15.8841 32.2369 16.312 30.164 17.0367 28.2402Z" fill="#0A6826"/>
<path d="M24.1183 19.2168L24.1033 19.25L24.0901 19.2997L24.0768 19.3495L24.0652 19.3826L24.0552 19.4324L24.0453 19.4821L24.0353 19.5319L24.027 19.5651L24.0188 19.6148L24.0138 19.6646L24.0071 19.7143L24.0022 19.7475L23.9989 19.7972L23.9972 19.847L23.9955 19.8967L23.9939 19.9299C23.9939 20.6098 24.2924 21.2234 24.8363 21.8039C22.6274 23.7939 21.0602 26.2151 20.0884 28.7027C19.8745 29.25 19.6937 29.8138 19.5312 30.3777C18.4814 29.449 17.7501 28.4208 17.4135 27.3097C18.8579 24.0261 21.1962 21.2234 24.1183 19.2168Z" fill="#0A6826"/>
<path d="M25.4374 18.4436L25.915 18.3441L26.386 18.2611L26.852 18.1616L27.313 18.0953L27.7707 18.029L28.2218 17.9626L28.6696 17.9129L29.1107 17.8631L29.5485 17.8134L29.9814 17.7968L30.4092 17.7636L30.8304 17.7471L31.2484 17.7305H31.6613H32.0709L32.4739 17.7471C29.643 18.4767 27.2782 19.7537 25.3545 21.3623C24.92 20.9145 24.6746 20.4336 24.6746 19.9361C24.6746 19.4386 24.9399 18.9245 25.4374 18.4436Z" fill="#0A6826"/>
<path d="M33.9965 21.7876L33.8555 21.8373L33.7195 21.8871L33.5868 21.9368L33.4558 21.9866L33.3281 22.0363L33.2054 22.1026L33.0844 22.1524L32.9666 22.2022L32.8522 22.2685L32.7411 22.3182L32.6316 22.368L32.5271 22.4343L32.4243 22.4841L32.3232 22.5504L32.227 22.6002L32.1324 22.6665L32.0412 22.7163L31.9533 22.7826L31.8671 22.8489L31.7842 22.8987L31.7029 22.965L31.625 23.0313L31.4774 23.164L31.3397 23.2801L31.2104 23.4128L31.0926 23.5454L30.9832 23.6947C30.6664 23.6284 30.348 23.5786 30.0446 23.5123C31.4111 21.489 32.9135 19.8307 34.2618 18.5703L33.9965 21.7876Z" fill="#0A6826"/>
<path d="M32.9531 37.0125L33.6778 45.437C31.5468 45.3541 29.4937 45.0887 27.5883 44.6576C26.3063 41.4237 25.7757 38.1899 25.983 34.9727H28.0609C30.0045 35.3872 32.1107 35.6194 34.313 35.6526L32.9531 37.0125Z" fill="#0A6826"/>
<path d="M27.9001 45.4238L28.2467 45.4902L28.595 45.5565L28.9482 45.6228L29.3031 45.6892L29.6597 45.7389L30.0212 45.7887L30.7476 45.8882L31.4839 45.9711L32.2285 46.0374L32.9797 46.0872L33.736 46.1203L34.2418 51.9578C33.3545 51.9412 32.4806 51.8915 31.6315 51.792C30.0643 49.6693 28.8205 47.5466 27.9001 45.4238Z" fill="#0A6826"/>
<path d="M27.0851 45.2435L27.2542 45.6415L27.43 46.0561L27.6141 46.4541L27.8048 46.8522L28.0038 47.2502L28.2095 47.6648L28.4234 48.0628L28.6456 48.4608L28.8745 48.8588L29.11 49.2734L29.3538 49.6714L29.6058 50.0694L29.8645 50.4674L30.1299 50.8654L30.4052 51.28L30.6871 51.678C29.047 51.4459 27.4997 51.0644 26.0868 50.5835C23.5992 48.2949 21.8629 45.6415 20.8015 42.8555C22.6075 43.8671 24.7402 44.6797 27.0851 45.2435Z" fill="#0A6826"/>
<path d="M25.2963 34.9727L25.2665 35.5697L25.2532 36.1501L25.2549 36.7471L25.2731 37.3441L25.3096 37.9411L25.3594 38.5216L25.4274 39.1186L25.5103 39.7156L25.6114 40.3126L25.7275 40.893L25.8585 41.4901L26.0078 42.0871L26.1736 42.6841L26.3544 43.2811L26.5517 43.8615L26.7657 44.4586C24.3693 43.845 22.2184 42.966 20.4506 41.8715C19.7109 39.5829 19.4141 37.2446 19.5036 34.9727H25.2963Z" fill="#0A6826"/>
<path d="M23.7672 33.7009L19.5566 34.0657C19.6279 33.2365 19.7506 32.4073 19.9247 31.6113C21.001 32.4073 22.2962 33.1205 23.7672 33.7009Z" fill="#0A6826"/>
<path d="M28.9563 23.9503L28.7125 24.3484L28.4737 24.7464L28.2398 25.161L28.0127 25.5756L27.7904 26.0067L27.5748 26.4379L27.3659 26.8857L27.1652 27.3334L26.9712 27.7812L26.7855 28.2455L26.608 28.7265L26.4405 29.1908L26.2813 29.6883L26.1321 30.1693L25.9944 30.6668L25.8651 31.1809C25.671 31.9603 25.535 32.7563 25.4322 33.5523H25.4256C23.3128 32.8558 21.4936 31.9437 20.1072 30.8658C20.2813 30.219 20.482 29.5888 20.7224 28.9586C21.6611 26.5374 23.1967 24.1991 25.3476 22.2754C26.2083 22.9553 27.4521 23.5358 28.9563 23.9503Z" fill="#0A6826"/>
<path d="M29.3451 23.3304L29.0764 23.264L28.8144 23.1811L28.559 23.1148L28.3103 23.0319L28.0665 22.9324L27.831 22.8495L27.6005 22.7665L27.3783 22.667L27.1643 22.5675L26.957 22.468L26.7564 22.3685L26.564 22.2524L26.3816 22.1529L26.2058 22.0369L26.0383 21.9373L25.8791 21.8213C27.9587 20.1131 30.5623 18.803 33.7298 18.1562C32.3186 19.4664 30.7514 21.2242 29.3451 23.3304Z" fill="#0A6826"/>
<path d="M30.6601 33.0012L30.5705 33.0178L30.4843 33.0344L30.398 33.051H30.3151L30.2339 33.0675L30.1543 33.0841L30.078 33.1007H30.0033L29.9304 33.1173L29.8607 33.1339H29.7927L29.7281 33.1505H29.665L29.6053 33.1671H29.5489L29.4942 33.1836H29.4428H29.3931L29.3466 33.2002H29.3052H29.2654H29.2272L29.1941 33.2168H29.1642H29.1377H29.1128H29.0929H29.0763L29.063 33.2334H29.0548H29.0481H29.0465L26.131 33.4821C26.2289 32.769 26.3516 32.0559 26.5274 31.3428C27.1874 28.6065 28.3284 26.2019 29.6368 24.1289C29.947 24.1952 30.272 24.2616 30.5954 24.3279C29.073 27.5949 33.7828 31.973 30.6601 33.0012Z" fill="#0A6826"/>
<path d="M32.3704 16.0352L32.4086 16.0517L32.4467 16.0683L32.4865 16.0849L32.528 16.1015L32.5711 16.1347L32.6142 16.1512L32.659 16.1844L32.7054 16.201L32.7519 16.2342L32.8 16.2507L32.8978 16.3171L33.0023 16.3834L33.1084 16.4497L33.2212 16.5161L33.3356 16.599L33.455 16.6819L33.5761 16.7648L33.7021 16.8478L33.8315 16.9473L33.9641 17.0468L34.1001 17.1463C32.0719 16.9473 29.863 17.0136 27.4534 17.3784C29.0023 16.7151 30.6474 16.2507 32.3704 16.0352Z" fill="#0A6826"/>
<path d="M35.1812 11.1907L36.0502 21.1742L35.0336 21.4727L35.0203 11.1078L35.1812 11.1907Z" fill="#A87B00"/>
<path d="M32.9467 37.0146L11.2651 35.124L11.1805 34.9748H58.8588L58.7676 35.124L37.0529 37.0146L35.1358 58.7394L34.9998 58.8223V34.9748L32.9467 37.0146Z" fill="#A87B00"/>
<path d="M39.003 22.8727H39.0046L39.0063 22.8561H39.008H39.0096H39.0113H39.0129V22.8396H39.0113H39.0096H39.008V22.823H39.0063H39.0046H39.003H39.0013H38.9997H38.998H38.9963C38.9963 22.823 33.6066 22.6737 32.1953 26.7367C32.1953 26.7367 32.1622 26.8362 32.1821 26.9689C32.202 27.085 32.2136 27.3338 32.2136 27.3338C32.2136 27.3338 32.804 24.0833 38.0511 23.4532C38.0511 23.4532 38.6796 23.3702 39.003 22.8727Z" fill="#A87B00"/>
<path d="M37.7016 24.9619H37.7032H37.7049H37.7065H37.7082V24.9453H37.7065H37.7049H37.7032H37.7016H37.6999H37.6982H37.6966H37.6949C37.6949 24.9453 33.5888 24.9785 32.6618 28.1128C32.6618 28.1128 32.6352 28.1957 32.6485 28.2952C32.6618 28.3782 32.675 28.5772 32.675 28.5772C32.675 28.5772 33.1278 26.0896 36.9818 25.476C36.9818 25.476 37.4611 25.3599 37.7016 24.9619Z" fill="#A87B00"/>
<path d="M36.5735 26.9785H36.5752H36.5768H36.5785V26.9619H36.5801H36.5785H36.5768H36.5752V26.9453H36.5735C36.5735 26.9453 33.6067 27.2272 33.1141 29.5158C33.1141 29.5158 33.0959 29.5821 33.1075 29.6485C33.1141 29.7148 33.1274 29.8475 33.1274 29.8475C33.1274 29.8475 33.4126 28.0564 35.9848 27.4428C35.9848 27.4428 36.4508 27.3599 36.5735 26.9785Z" fill="#A87B00"/>
</svg>
