<svg width="240" height="240" viewBox="0 0 240 240" fill="none" xmlns="http://www.w3.org/2000/svg">
<g id="Feeling-In-A-Bad-Mood-3--Streamline-Milano 2">
<g id="Group">
<path id="Vector" d="M108.004 146.256C107.128 145.704 103.768 147.66 103.516 149.724C103.516 150.24 103.72 150.468 103.996 150.468C104.824 150.468 104.884 148.068 107.788 147.456C107.915 147.428 108.031 147.363 108.122 147.269C108.213 147.175 108.273 147.056 108.296 146.928C108.319 146.799 108.304 146.667 108.252 146.547C108.2 146.428 108.113 146.326 108.004 146.256ZM119.464 153.684C119.968 153.684 120.136 152.808 121.648 152.652C122.38 152.652 122.308 151.164 120.292 151.956C118.924 152.484 118.756 152.964 118.852 153.276C118.899 153.399 118.983 153.504 119.093 153.577C119.202 153.65 119.332 153.688 119.464 153.684ZM109.444 152.4C108.765 152.009 107.966 151.88 107.2 152.04C106.492 152.196 106.624 152.76 106.9 152.928C107.176 153.096 107.932 152.64 108.868 153.456C109.008 153.532 109.172 153.55 109.325 153.505C109.478 153.46 109.607 153.356 109.684 153.216C109.76 153.076 109.778 152.911 109.733 152.758C109.688 152.605 109.584 152.476 109.444 152.4ZM114.268 157.332L113.296 157.176C113.837 155.531 114.1 153.807 114.076 152.076C114.058 151.966 114.002 151.866 113.917 151.794C113.832 151.722 113.725 151.682 113.614 151.682C113.502 151.682 113.395 151.722 113.31 151.794C113.226 151.866 113.169 151.966 113.152 152.076C112.919 153.738 112.587 155.385 112.156 157.008C111.952 157.884 112.012 158.136 112.708 158.292C113.155 158.393 113.608 158.469 114.064 158.52C114.221 158.547 114.383 158.51 114.514 158.418C114.644 158.326 114.733 158.185 114.76 158.028C114.787 157.87 114.75 157.708 114.658 157.578C114.565 157.447 114.425 157.359 114.268 157.332ZM120.424 145.476C120.377 145.567 120.353 145.668 120.351 145.771C120.35 145.873 120.372 145.975 120.416 146.068C120.46 146.16 120.525 146.242 120.605 146.305C120.686 146.369 120.779 146.414 120.88 146.436C121.96 146.712 124.084 147.636 124.096 148.692C124.096 148.829 124.15 148.96 124.247 149.057C124.344 149.153 124.475 149.208 124.612 149.208C124.748 149.208 124.88 149.153 124.976 149.057C125.073 148.96 125.128 148.829 125.128 148.692C125.272 146.556 120.988 144.252 120.424 145.476ZM123.808 160.476C120.412 158.628 115.552 160.476 113.848 163.812C113.809 163.916 113.808 164.031 113.846 164.136C113.884 164.24 113.958 164.328 114.055 164.383C114.152 164.438 114.265 164.456 114.375 164.435C114.484 164.414 114.582 164.355 114.652 164.268C116.716 161.172 119.452 160.308 123.388 161.556C123.523 161.583 123.665 161.562 123.786 161.495C123.908 161.429 124.002 161.322 124.052 161.193C124.102 161.063 124.105 160.921 124.061 160.79C124.016 160.658 123.926 160.547 123.808 160.476Z" fill="black"/>
<path id="Vector_2" fill-rule="evenodd" clip-rule="evenodd" d="M52.2623 71.064C56.9543 75.48 66.9143 74.868 73.1303 74.892H111.05C109.922 77.016 104.666 92.76 105.242 93.972C105.219 94.0333 105.212 94.0999 105.223 94.1646C105.235 94.2293 105.264 94.2896 105.307 94.3391C105.35 94.3885 105.406 94.4252 105.469 94.4451C105.532 94.465 105.598 94.4674 105.662 94.452L113.378 91.284C112.898 93.312 108.002 113.28 108.002 114.264C108.002 115.248 108.35 115.008 108.494 114.84C115.898 106.224 123.866 93.888 130.73 84.48C131.138 83.916 130.01 83.844 129.782 83.916C127.07 84.54 124.358 85.116 121.67 85.836L126.602 75.036C133.106 75.036 139.802 75.144 146.306 75.132C156.518 75.132 175.106 76.896 177.902 63.132C181.574 45.408 144.914 35.292 141.158 45.9C137.354 37.1333 130.643 29.9462 122.157 25.5504C113.672 21.1545 103.93 19.8187 94.5743 21.768C82.0823 24.468 68.9663 36.936 77.5943 49.98C62.6183 46.128 39.1703 58.8 52.2623 71.064ZM120.806 86.4C120.578 87.252 128.75 85.008 129.554 84.828C122.738 94.2 115.79 103.56 109.154 112.98C110.894 105.984 113.306 97.752 114.182 90.84C114.35 89.472 106.754 93.24 106.154 93.54C107.642 86.736 110.306 81.132 111.866 75.012H125.798C124.358 78.42 121.754 83.112 120.866 86.436L120.806 86.4ZM78.4103 51.204C78.7103 51.3 79.3103 50.952 79.0223 50.544C70.0463 37.896 81.7343 25.56 94.6223 22.728C103.991 20.7441 113.758 22.1296 122.205 26.6407C130.652 31.1518 137.237 38.4989 140.798 47.388C141.026 47.952 141.746 48.336 141.746 47.604C141.746 36.468 178.718 44.58 177.194 61.74C175.922 75.828 155.87 74.088 146.402 74.04C62.1863 73.608 59.0783 75.012 53.8583 71.064C40.0103 60.66 62.0543 46.284 78.4103 51.204Z" fill="black"/>
<path id="Vector_3" d="M69.8827 82.7162L65.8147 87.1322C62.4067 91.5842 65.1787 95.1482 67.5187 93.7562C70.3507 92.0522 69.2227 86.3762 70.5667 83.3402C71.0827 82.1042 70.3147 82.2722 69.8827 82.7162ZM67.9987 91.9922C67.2787 93.3242 65.7907 93.8642 65.1907 92.1002C64.1947 89.1482 67.8667 86.1002 69.5947 83.9882C68.7547 86.4962 69.2107 89.7842 67.9987 91.9922ZM38.1547 132.504C37.6267 133.248 37.1347 133.98 36.5707 134.688C34.9507 136.68 32.9707 138.852 33.3907 141.66C33.6547 143.28 34.7227 144.216 36.3187 143.628C38.9707 142.644 38.5987 139.092 38.7187 136.824C38.6947 135.42 38.9587 131.508 38.1547 132.504ZM37.9147 138.504C37.7107 146.484 31.1707 142.932 35.7187 137.028C36.4987 136.008 37.3027 135 38.1187 133.992C38.0227 135.456 37.9627 136.968 37.9147 138.468V138.504ZM64.0867 115.2C62.7876 116.932 61.5857 118.735 60.4867 120.6C56.8867 126.276 61.1467 128.712 63.2107 127.464C66.1267 125.7 65.1667 118.26 64.8187 115.464C64.6627 114.636 64.2907 114.936 64.0867 115.2ZM63.3907 126.12C63.1773 126.414 62.8851 126.64 62.548 126.775C62.2108 126.909 61.8426 126.945 61.486 126.878C61.1293 126.811 60.7988 126.645 60.5328 126.398C60.2667 126.152 60.076 125.835 59.9827 125.484C59.0947 122.952 62.5387 119.004 64.1947 116.028C64.4347 118.164 64.8067 124.308 63.3907 126.12ZM39.0307 102.864C38.8387 102.864 39.1987 102.516 34.6747 107.844C29.8747 114.204 38.4547 118.644 38.7547 110.244C38.9707 103.824 39.7147 102.888 39.0307 102.864ZM37.9147 110.928C37.5667 116.388 31.1827 113.772 35.5147 108.096L38.5627 104.076C38.2347 106.356 38.0187 108.64 37.9147 110.928ZM184.483 79.2002C182.215 82.0442 177.991 84.8162 178.591 88.9682C178.855 90.8522 180.223 91.9442 182.083 91.1882C185.563 89.7602 184.051 83.2442 185.083 79.3682C185.191 78.9842 184.711 78.9842 184.483 79.2002ZM182.563 89.8682C180.403 92.2682 177.451 88.6682 181.123 84.1322C181.123 83.9642 183.163 81.9602 184.087 80.7842C183.607 83.7002 184.183 88.1162 182.563 89.9162V89.8682ZM191.479 113.436C191.851 112.572 191.551 111.984 191.251 112.476C189.307 115.62 185.359 117.492 186.739 121.728C187.279 123.384 189.271 122.556 190.195 121.728C192.955 119.4 190.807 115.38 191.479 113.436ZM189.343 121.38C187.843 122.364 187.543 121.836 187.459 120.744C187.207 117.744 188.863 116.64 190.639 114.504C190.543 116.844 191.731 119.796 189.343 121.38ZM203.659 146.316C202.198 147.781 200.854 149.358 199.639 151.032C196.711 155.004 198.919 160.176 201.859 157.848C204.919 155.448 201.931 150.012 204.019 146.952C204.127 146.784 204.079 145.956 203.659 146.316ZM202.243 155.712C200.935 159.876 196.891 156.048 200.383 151.416L202.579 148.656C202.087 150.96 202.951 153.432 202.243 155.712ZM159.943 94.3442C158.743 95.8082 157.423 96.4322 156.247 97.7162C153.703 100.5 153.571 105.756 157.015 105.096C160.243 104.496 159.355 99.8762 159.631 98.1482C159.825 96.9917 160.11 95.8522 160.483 94.7402C160.663 94.8002 160.303 93.9002 159.943 94.3442ZM157.603 104.052C157.603 104.352 154.987 105.252 155.203 102.12C155.479 98.5802 157.795 97.6322 159.403 96.1202C158.227 99.9002 159.607 102.732 157.603 104.052ZM87.1267 96.2762C86.4787 98.9282 82.5187 101.292 82.8067 104.676C82.9507 106.164 84.1867 107.292 85.6507 106.428C88.3147 104.832 87.4507 99.3602 87.7147 96.6362C87.8827 94.8002 87.1627 96.0002 87.1267 96.2762ZM85.8427 105.108C84.9667 106.308 83.6707 106.116 83.6347 104.112C83.8147 101.844 85.7587 100.296 86.8987 98.4362C86.7787 100.284 86.8987 103.728 85.8427 105.108ZM178.807 135.24C176.803 137.712 172.807 140.592 172.891 144.048C172.999 147.78 178.219 148.5 178.999 142.848C179.095 140.448 179.179 138.048 179.251 135.648C179.479 135.3 179.071 134.94 178.807 135.24ZM178.267 141.108C178.159 147.564 173.551 146.952 173.779 143.676C173.971 140.832 176.899 138.876 178.579 136.74C178.383 138.188 178.283 139.647 178.279 141.108H178.267ZM165.979 119.736L162.247 123.168C159.055 126.768 161.407 130.296 163.639 129.168C166.111 127.968 165.247 122.868 166.507 120.192C166.651 119.904 166.219 119.556 165.979 119.736ZM164.923 123.636C164.779 124.836 164.575 128.688 162.715 128.532C161.515 128.448 160.675 126.132 162.943 123.648C163.723 122.784 164.611 122.016 165.415 121.188C165.175 121.975 165.01 122.782 164.923 123.6V123.636ZM133.867 139.596C136.867 139.944 142.399 140.1 145.327 139.284C156.007 136.284 145.471 108.168 133.555 117.876C130.624 120.566 128.211 123.771 126.439 127.332C130.291 129.672 133.207 135.048 133.867 139.596ZM84.1987 137.916C87.8143 139.224 91.6746 139.716 95.5027 139.356C96.0907 135.096 99.1867 131.052 102.211 128.172C100.297 124.083 96.8471 120.914 92.6107 119.352C83.3467 116.172 75.7747 134.904 84.1987 137.916ZM122.071 203.172C118.843 203.1 120.871 201.972 122.647 213.66C122.691 213.915 122.835 214.141 123.047 214.29C123.258 214.438 123.52 214.497 123.775 214.452C124.029 214.408 124.256 214.264 124.404 214.052C124.553 213.841 124.611 213.579 124.567 213.324C124.106 209.953 123.367 206.626 122.359 203.376C122.337 203.317 122.298 203.266 122.246 203.23C122.195 203.193 122.134 203.173 122.071 203.172ZM115.387 191.676H111.991C112.555 194.868 113.035 197.892 113.479 200.94H119.479C118.555 198.348 116.623 194.316 115.387 191.676Z" fill="black"/>
<path id="Vector_4" d="M233.57 218.004C233.486 218.124 235.214 218.004 186.242 218.004C203.042 212.892 198.494 193.008 190.022 182.004C177.578 165.912 154.13 150.3 134.546 145.356C134.21 144.516 133.01 142.956 132.41 143.376C131.726 132.576 124.766 125.184 113.75 125.832C104.15 126.396 98.1503 133.32 97.2983 142.812C96.4583 142.812 95.8583 144.012 95.5943 144.6C73.2023 150 37.7783 167.616 31.6463 191.784C29.3183 200.976 30.7343 215.052 41.5943 218.1C29.8703 218.1 18.1583 218.1 6.4343 218.232C5.9303 218.232 5.8223 219.024 6.3383 219.024C35.9543 219.3 233.45 219.024 233.45 219.024C234.098 219.012 234.218 218.004 233.57 218.004ZM99.5063 148.488C104.234 147.516 113.45 139.44 114.038 134.796C115.538 140.472 125.834 146.4 130.97 147.996C130.586 154.272 130.406 166.716 121.682 172.392C114.098 177.336 105.098 172.392 102.062 164.448C100.254 159.326 99.3883 153.919 99.5063 148.488ZM40.2623 216.78C30.1583 212.58 30.4103 196.596 33.8303 187.98C42.0023 179.352 89.5223 162.348 94.8023 159.912C94.8023 159.912 95.1863 143.892 97.2743 143.892C97.3426 145.692 97.8317 147.451 98.7023 149.028C98.7023 149.028 98.4023 159.6 102.158 166.8C102.158 166.8 102.722 170.724 100.058 172.356C83.7623 182.4 59.6783 224.856 40.2623 216.78ZM132.314 191.16C132.314 192.492 130.802 214.416 130.334 215.592C129.986 216.516 128.93 216.12 128.174 216.216H114.722C114.038 216.144 113.522 216.012 113.378 215.328C113.066 212.928 110.21 192.828 110.21 191.112C109.622 189.588 112.694 189.624 114.23 189.684C109.574 183.348 100.73 184.176 97.3463 191.496C102.422 193.896 104.066 202.416 100.538 206.604C99.0863 208.332 97.7063 203.652 97.1183 201.48C96.6023 202.92 94.2983 208.608 92.9303 208.452C91.1423 208.2 91.1903 203.652 91.3103 201.888C88.9103 205.02 88.3823 205.248 88.0703 205.248C84.4703 205.02 89.2703 190.572 95.5223 191.004C97.2983 183.012 110.774 179.64 116.642 189.804C132.698 189.804 131.63 189.648 132.122 190.164C132.241 190.298 132.321 190.461 132.355 190.636C132.388 190.811 132.374 190.992 132.314 191.16ZM131.318 173.652C123.926 166.38 131.318 167.832 131.81 148.776C132.758 147.828 132.482 145.368 132.41 143.976C133.303 144.733 133.894 145.785 134.078 146.94C134.726 150.708 134.078 160.488 135.602 161.46C154.286 167.556 172.238 171.06 188.954 182.172C197.162 192.624 202.154 212.496 185.702 217.224C170.402 221.7 141.866 184.02 131.318 173.652Z" fill="black"/>
<path id="Vector_5" d="M121.551 200.977H129.699L130.491 191.713H117.711C119.15 194.733 120.432 197.825 121.551 200.977Z" fill="black"/>
</g>
<g id="Vector 436">
<path d="M114.92 215.539L113.074 201.232H129.69V215.539H114.92Z" fill="#47C0BA"/>
<path d="M89.9972 194.308C91.8434 192.001 94.6126 191.078 97.3818 191.539C105.689 193.847 101.074 207.232 99.6896 207.232C98.305 207.232 98.305 202.155 97.3818 202.155C96.4586 202.155 94.1511 208.616 92.7665 208.616C91.3819 208.616 91.3819 203.539 90.9204 202.155C90.4588 200.77 89.9972 205.847 87.6895 204.924C85.3818 204.001 88.151 196.616 89.9972 194.308Z" fill="#47C0BA"/>
</g>
<g id="Vector 477" style="mix-blend-mode:multiply">
<path d="M105.695 93.6926C105.695 92.9541 110.003 80.7695 112.157 74.7695H126.465L121.388 86.308L130.157 84.9234L108.926 113.539L114.003 90.4618L105.695 93.6926Z" fill="#47C0BA"/>
</g>
</g>
</svg>
