<svg xmlns="http://www.w3.org/2000/svg" width="30" height="30" viewBox="0 0 30 30" fill="none">
  <circle cx="15.0003" cy="15" r="13.3333" stroke="#364152" stroke-width="1.5"/>
  <path d="M18.9998 10.4166C19.414 10.4166 19.7498 10.0808 19.7498 9.66663C19.7498 9.25241 19.414 8.91663 18.9998 8.91663V10.4166ZM10.9998 8.91663C10.5855 8.91663 10.2498 9.25241 10.2498 9.66663C10.2498 10.0808 10.5855 10.4166 10.9998 10.4166L10.9998 8.91663ZM11.7763 15.6596C11.4988 15.9671 11.5231 16.4413 11.8306 16.7189C12.138 16.9964 12.6123 16.9721 12.8898 16.6646L11.7763 15.6596ZM13.5855 14.7745L13.0288 14.272L13.5855 14.7745ZM16.414 14.7745L15.8572 15.277L16.414 14.7745ZM17.1097 16.6646C17.3872 16.9721 17.8615 16.9964 18.169 16.7189C18.4764 16.4413 18.5007 15.9671 18.2232 15.6596L17.1097 16.6646ZM14.2498 21.6666C14.2498 22.0808 14.5855 22.4166 14.9998 22.4166C15.414 22.4166 15.7498 22.0808 15.7498 21.6666H14.2498ZM18.9998 8.91663L10.9998 8.91663L10.9998 10.4166L18.9998 10.4166V8.91663ZM12.8898 16.6646L14.1423 15.277L13.0288 14.272L11.7763 15.6596L12.8898 16.6646ZM15.8572 15.277L17.1097 16.6646L18.2232 15.6596L16.9707 14.272L15.8572 15.277ZM14.1423 15.277C14.4903 14.8915 14.701 14.6605 14.8715 14.5164C15.0286 14.3836 15.0473 14.4166 14.9998 14.4166V12.9166C14.538 12.9166 14.183 13.1343 13.9031 13.3708C13.6368 13.596 13.3475 13.9189 13.0288 14.272L14.1423 15.277ZM16.9707 14.272C16.652 13.9189 16.3628 13.596 16.0964 13.3708C15.8165 13.1343 15.4615 12.9166 14.9998 12.9166V14.4166C14.9522 14.4166 14.971 14.3836 15.128 14.5164C15.2985 14.6605 15.5093 14.8915 15.8572 15.277L16.9707 14.272ZM14.2498 13.6666L14.2498 21.6666H15.7498L15.7498 13.6666H14.2498Z" fill="#364152"/>
</svg>