<svg width="48" height="48" viewBox="0 0 48 48" fill="none" xmlns="http://www.w3.org/2000/svg">
<rect x="0.5" y="0.5" width="47" height="47" rx="23.5" fill="white"/>
<rect x="0.5" y="0.5" width="47" height="47" rx="23.5" stroke="#E3E8EF"/>
<path d="M16.1089 25.9963C15.9317 27.1239 16.724 27.9065 17.694 28.2965C21.413 29.7918 26.5883 29.7918 30.3073 28.2965C31.2773 27.9065 32.0696 27.1239 31.8924 25.9963C31.7835 25.3034 31.245 24.7264 30.846 24.163C30.3234 23.4159 30.2715 22.6011 30.2714 21.7341C30.2714 18.3839 27.4639 15.668 24.0007 15.668C20.5374 15.668 17.7299 18.3839 17.7299 21.7341C17.7298 22.6011 17.6779 23.4159 17.1553 24.163C16.7563 24.7264 16.2178 25.3034 16.1089 25.9963Z" stroke="black" stroke-width="1.5" stroke-linecap="round" stroke-linejoin="round"/>
<path d="M21.5 31.5C22.1634 32.0182 23.0396 32.3333 24 32.3333C24.9604 32.3333 25.8366 32.0182 26.5 31.5" stroke="black" stroke-width="1.5" stroke-linecap="round" stroke-linejoin="round"/>
<circle cx="30" cy="16" r="4.5" fill="#E02222" stroke="white"/>
</svg>
