<svg width="17" height="16" viewBox="0 0 17 16" fill="none" xmlns="http://www.w3.org/2000/svg">
<path d="M3.16406 11.9859V6.47038C3.16406 4.04814 3.16406 2.83702 3.94511 2.08453C4.72616 1.33203 5.98324 1.33203 8.4974 1.33203C11.0116 1.33203 12.2686 1.33203 13.0497 2.08453C13.8307 2.83702 13.8307 4.04814 13.8307 6.47038V11.9859C13.8307 13.5231 13.8307 14.2918 13.3155 14.5669C12.3177 15.0997 10.4462 13.3222 9.55739 12.787C9.04193 12.4766 8.78419 12.3214 8.4974 12.3214C8.2106 12.3214 7.95287 12.4766 7.4374 12.787C6.54859 13.3222 4.67704 15.0997 3.67929 14.5669C3.16406 14.2918 3.16406 13.5231 3.16406 11.9859Z" stroke="currentColor" stroke-width="1.5" stroke-linecap="round" stroke-linejoin="round"/>
</svg>
