<svg xmlns="http://www.w3.org/2000/svg" width="14" height="18" viewBox="0 0 14 18" fill="none">
  <path d="M1 13.4856V7.28065C1 4.55562 1 3.19311 1.87868 2.34656C2.75736 1.5 4.17157 1.5 7 1.5C9.82843 1.5 11.2426 1.5 12.1213 2.34656C13 3.19311 13 4.55562 13 7.28065V13.4856C13 15.215 13 16.0797 12.4204 16.3892C11.2979 16.9886 9.1924 14.9889 8.1925 14.3868C7.6126 14.0376 7.32264 13.863 7 13.863C6.67735 13.863 6.3874 14.0376 5.8075 14.3868C4.8076 14.9889 2.7021 16.9886 1.57964 16.3892C1 16.0797 1 15.215 1 13.4856Z" stroke="currentColor" stroke-width="1.5" stroke-linecap="round" stroke-linejoin="round"/>
</svg>