<svg xmlns="http://www.w3.org/2000/svg" width="18" height="23" viewBox="0 0 18 23" fill="none">
  <path d="M11.491 15.1211H11.5M6.5 15.1211H6.50897" stroke="black" stroke-width="2" stroke-linecap="round" stroke-linejoin="round"/>
  <path d="M1.26781 18.4658C1.49269 20.1361 2.87613 21.4446 4.55966 21.522C5.97627 21.5871 7.4153 21.6211 9 21.6211C10.5847 21.6211 12.0237 21.5871 13.4403 21.522C15.1239 21.4446 16.5073 20.1361 16.7322 18.4658C16.879 17.3758 17 16.2587 17 15.1211C17 13.9835 16.879 12.8664 16.7322 11.7764C16.5073 10.1061 15.1239 8.79758 13.4403 8.72019C12.0237 8.65506 10.5847 8.62109 9 8.62109C7.4153 8.62109 5.97627 8.65506 4.55966 8.72019C2.87613 8.79758 1.49269 10.1061 1.26781 11.7763C1.12105 12.8664 1 13.9835 1 15.1211C1 16.2587 1.12105 17.3758 1.26781 18.4658Z" stroke="black" stroke-width="1.5"/>
  <path d="M4.5 8.62109V6.12109C4.5 3.63581 6.51472 1.62109 9 1.62109C11.4853 1.62109 13.5 3.63581 13.5 6.12109V8.62109" stroke="black" stroke-width="1.5" stroke-linecap="round" stroke-linejoin="round"/>
</svg>