<svg width="20" height="19" viewBox="0 0 20 19" fill="none" xmlns="http://www.w3.org/2000/svg">
<g id="elements">
<path id="Vector" d="M11.6641 1.45478C11.1255 1.34547 10.5682 1.28809 9.99739 1.28809C5.39502 1.28809 1.66406 5.01905 1.66406 9.62142C1.66406 14.2238 5.39502 17.9548 9.99739 17.9548C14.5998 17.9548 18.3307 14.2238 18.3307 9.62142C18.3307 9.05064 18.2733 8.49327 18.164 7.95475" stroke="#141B34" stroke-width="1.5" stroke-linecap="round"/>
<path id="Vector_2" d="M18.8549 1.8238C19.1492 1.53227 19.1514 1.0574 18.8599 0.763152C18.5683 0.468903 18.0935 0.466699 17.7992 0.758231L18.8549 1.8238ZM14.9701 5.26849L15.1009 4.52999L14.9701 5.26849ZM14.3498 4.64792L15.0883 4.51727L15.0883 4.51727L14.3498 4.64792ZM17.9003 6.20415C18.3145 6.20982 18.6548 5.87866 18.6605 5.46449C18.6661 5.05031 18.335 4.70996 17.9208 4.70429L17.9003 6.20415ZM14.914 1.6974C14.9083 1.28323 14.5679 0.952088 14.1537 0.957784C13.7396 0.96348 13.4084 1.30385 13.4141 1.71803L14.914 1.6974ZM15.0699 5.57383L18.8549 1.8238L17.7992 0.758231L14.0142 4.50826L15.0699 5.57383ZM15.1009 4.52999C15.0956 4.52904 15.0919 4.52797 15.0897 4.52721C15.0875 4.52645 15.0864 4.5259 15.0863 4.52583C15.0862 4.52576 15.0866 4.52601 15.0875 4.52668C15.0884 4.52734 15.0893 4.52821 15.0903 4.52921L13.9939 5.55288C14.2183 5.79328 14.514 5.94938 14.8393 6.007L15.1009 4.52999ZM15.0903 4.52921C15.0921 4.53119 15.0927 4.53245 15.0924 4.53179C15.092 4.53111 15.09 4.52674 15.0883 4.51727L13.6112 4.77858C13.6627 5.06968 13.7931 5.33787 13.9939 5.55288L15.0903 4.52921ZM14.8393 6.007C15.6968 6.15886 17.2055 6.19464 17.9003 6.20415L17.9208 4.70429C17.1953 4.69436 15.8157 4.65657 15.1009 4.52999L14.8393 6.007ZM13.4141 1.71803C13.4237 2.41282 13.4595 3.92125 13.6112 4.77858L15.0883 4.51727C14.9618 3.80241 14.924 2.42285 14.914 1.6974L13.4141 1.71803Z" fill="#141B34"/>
<path id="Vector_3" d="M9.99479 7.12142C9.07432 7.12142 8.32812 7.68106 8.32812 8.37142C8.32812 9.06178 9.07432 9.62142 9.99479 9.62142C10.9153 9.62142 11.6615 10.1811 11.6615 10.8714C11.6615 11.5618 10.9153 12.1214 9.99479 12.1214M9.99479 7.12142C10.7205 7.12142 11.3378 7.46926 11.5666 7.95475M9.99479 7.12142V6.28809M9.99479 12.1214C9.26911 12.1214 8.65176 11.7736 8.42296 11.2881M9.99479 12.1214V12.9548" stroke="#141B34" stroke-width="1.5" stroke-linecap="round"/>
</g>
</svg>
