
<svg width="14" height="13" viewBox="0 0 14 13" fill="none" xmlns="http://www.w3.org/2000/svg">
<g id="vuesax/outline/clipboard-text">
<g id="clipboard-text">
<path id="Vector" d="M8.60013 7.1067H4.8668C4.64813 7.1067 4.4668 6.92537 4.4668 6.7067C4.4668 6.48803 4.64813 6.3067 4.8668 6.3067H8.60013C8.8188 6.3067 9.00013 6.48803 9.00013 6.7067C9.00013 6.92537 8.8188 7.1067 8.60013 7.1067Z" fill="currentColor"/>
<path id="Vector_2" d="M7.2028 9.24H4.8668C4.64813 9.24 4.4668 9.05867 4.4668 8.84C4.4668 8.62134 4.64813 8.44 4.8668 8.44H7.2028C7.42146 8.44 7.6028 8.62134 7.6028 8.84C7.6028 9.05867 7.42146 9.24 7.2028 9.24Z" fill="currentColor"/>
<path id="Vector_3" d="M8.0668 3.79997H5.93346C5.42146 3.79997 4.4668 3.79997 4.4668 2.3333C4.4668 0.866638 5.42146 0.866638 5.93346 0.866638H8.0668C8.5788 0.866638 9.53346 0.866638 9.53346 2.3333C9.53346 2.8453 9.53346 3.79997 8.0668 3.79997ZM5.93346 1.66664C5.40546 1.66664 5.2668 1.66664 5.2668 2.3333C5.2668 2.99997 5.40546 2.99997 5.93346 2.99997H8.0668C8.73346 2.99997 8.73346 2.8613 8.73346 2.3333C8.73346 1.66664 8.5948 1.66664 8.0668 1.66664H5.93346Z" fill="currentColor"/>
<path id="Vector_4" d="M8.59883 12.3333H5.39883C2.40149 12.3333 1.79883 10.9573 1.79883 8.73335V5.53335C1.79883 3.10135 2.67883 2.06135 4.84416 1.94935C5.05749 1.93868 5.25483 2.10402 5.26549 2.32802C5.27616 2.55202 5.10549 2.73335 4.88683 2.74402C3.37216 2.82935 2.59883 3.28268 2.59883 5.53335V8.73335C2.59883 10.7067 2.98816 11.5333 5.39883 11.5333H8.59883C11.0095 11.5333 11.3988 10.7067 11.3988 8.73335V5.53335C11.3988 3.28268 10.6255 2.82935 9.11083 2.74402C8.89216 2.73335 8.72149 2.54135 8.73216 2.32268C8.74283 2.10402 8.93483 1.93335 9.15349 1.94402C11.3188 2.06135 12.1988 3.10135 12.1988 5.52802V8.72802C12.1988 10.9573 11.5962 12.3333 8.59883 12.3333Z" fill="currentColor"/>
</g>
</g>
</svg>
