<svg xmlns="http://www.w3.org/2000/svg" width="16" height="16" viewBox="0 0 16 16" fill="none">
  <circle cx="8.00065" cy="7.9987" r="6.66667" stroke="currentColor" stroke-width="1.5"/>
  <path d="M8.75 4.66406C8.75 4.24985 8.41421 3.91406 8 3.91406C7.58579 3.91406 7.25 4.24985 7.25 4.66406H8.75ZM9.53033 8.46707C9.23744 8.17417 8.76256 8.17417 8.46967 8.46707C8.17678 8.75996 8.17678 9.23483 8.46967 9.52773L9.53033 8.46707ZM9.46967 10.5277C9.76256 10.8206 10.2374 10.8206 10.5303 10.5277C10.8232 10.2348 10.8232 9.75996 10.5303 9.46707L9.46967 10.5277ZM7.25 4.66406V6.9974H8.75V4.66406H7.25ZM8.46967 9.52773L9.46967 10.5277L10.5303 9.46707L9.53033 8.46707L8.46967 9.52773ZM8.25 7.9974C8.25 8.13547 8.13807 8.2474 8 8.2474V9.7474C8.9665 9.7474 9.75 8.96389 9.75 7.9974H8.25ZM8 8.2474C7.86193 8.2474 7.75 8.13547 7.75 7.9974H6.25C6.25 8.96389 7.0335 9.7474 8 9.7474V8.2474ZM7.75 7.9974C7.75 7.85932 7.86193 7.7474 8 7.7474V6.2474C7.0335 6.2474 6.25 7.0309 6.25 7.9974H7.75ZM8 7.7474C8.13807 7.7474 8.25 7.85932 8.25 7.9974H9.75C9.75 7.0309 8.9665 6.2474 8 6.2474V7.7474Z" fill="black"/>
</svg>