<svg width="24" height="25" viewBox="0 0 24 25" fill="none" xmlns="http://www.w3.org/2000/svg">
<path d="M5.5 19.6207V9.12073C5.5 5.53088 8.41015 2.62073 12 2.62073C15.5899 2.62073 18.5 5.53088 18.5 9.12073V19.6207" stroke="#141B34" stroke-width="1.5" stroke-linecap="round" stroke-linejoin="round"/>
<path d="M18.8688 22.6207H5.13104C4.51972 22.6207 4.21406 22.6207 4.06951 22.4131C3.92497 22.2055 4.02157 21.9052 4.21477 21.3047C4.561 20.2284 4.9089 19.6207 6.14897 19.6207H17.8508C19.0907 19.6207 19.4386 20.2285 19.785 21.3045C19.9784 21.9051 20.0751 22.2054 19.9305 22.4131C19.786 22.6207 19.4803 22.6207 18.8688 22.6207Z" stroke="#141B34" stroke-width="1.5" stroke-linecap="round" stroke-linejoin="round"/>
<path d="M10.5 11.6207H13.5" stroke="#141B34" stroke-width="1.5" stroke-linecap="round" stroke-linejoin="round"/>
<path d="M4.5 8.62073H19.5" stroke="#141B34" stroke-width="1.5" stroke-linecap="round" stroke-linejoin="round"/>
</svg>
