<svg width="18" height="18" viewBox="0 0 18 18" fill="none" xmlns="http://www.w3.org/2000/svg">
<path d="M7.5 9.92174C7.60622 10.0957 7.73226 10.2603 7.87812 10.4121C8.78376 11.3547 10.1641 11.502 11.2182 10.8541C11.4135 10.7341 11.5976 10.5868 11.7654 10.4121L14.1949 7.88356C15.2684 6.76638 15.2684 4.95507 14.1949 3.83789C13.1215 2.7207 11.3811 2.7207 10.3077 3.83789L9.77252 4.39484" stroke="#0074AD" stroke-width="1.5" stroke-linecap="round"/>
<path d="M8.22773 13.605L7.69239 14.1621C6.61894 15.2793 4.87854 15.2793 3.80509 14.1621C2.73164 13.0449 2.73164 11.2336 3.80509 10.1164L6.23465 7.58789C7.3081 6.4707 9.04851 6.4707 10.122 7.58789C10.2678 7.73965 10.3938 7.90423 10.5 8.07813" stroke="#0074AD" stroke-width="1.5" stroke-linecap="round"/>
</svg>
