<svg xmlns="http://www.w3.org/2000/svg" width="18" height="18" viewBox="0 0 18 18" fill="none">
  <path d="M9.66066 5.26242L13.2403 6.21618M8.89332 8.11002L10.6832 8.5869M8.98235 13.4748L9.69829 13.6656C11.7233 14.2051 12.7358 14.4749 13.5334 14.0169C14.331 13.559 14.6023 12.5522 15.1449 10.5387L15.9123 7.69109C16.4548 5.67754 16.7261 4.67076 16.2656 3.87762C15.8051 3.08448 14.7926 2.81471 12.7676 2.27518L12.0517 2.08443C10.0267 1.5449 9.01425 1.27513 8.21661 1.73305C7.41897 2.19097 7.14767 3.19775 6.60508 5.21131L5.83774 8.05891C5.29515 10.0725 5.02386 11.0792 5.48438 11.8724C5.94489 12.6655 6.95738 12.9353 8.98235 13.4748Z" stroke="currentColor" stroke-width="1.2" stroke-linecap="round"/>
  <path d="M9 15.7097L8.28574 15.9042C6.26552 16.4543 5.25541 16.7294 4.45964 16.2625C3.66388 15.7956 3.39322 14.7691 2.8519 12.716L2.08636 9.81256C1.54505 7.7595 1.27439 6.73298 1.73383 5.92428C2.13125 5.22473 3 5.2502 4.125 5.25012" stroke="currentColor" stroke-width="1.2" stroke-linecap="round"/>
</svg>