<svg width="20" height="21" viewBox="0 0 20 21" fill="none" xmlns="http://www.w3.org/2000/svg">
<path d="M18.1653 6.45408C18.0644 5.97469 17.9127 5.58177 17.6842 5.23645C17.4324 4.85572 17.1196 4.52457 16.7599 4.25798C15.7879 3.53741 14.4165 3.53741 11.6738 3.53741H8.32818C5.58545 3.53741 4.21408 3.53741 3.24198 4.25798C2.88233 4.52457 2.56952 4.85572 2.31769 5.23645C1.87996 5.89823 1.72373 6.73481 1.66797 8.01987L1.66797 13.2216C1.72373 14.5067 1.87996 15.3433 2.31769 16.0051C2.56952 16.3858 2.88233 16.7169 3.24198 16.9835C4.21408 17.7041 5.58545 17.7041 8.32818 17.7041H11.6738C14.4165 17.7041 15.7879 17.7041 16.7599 16.9835C17.1196 16.7169 17.4324 16.3858 17.6842 16.0051C17.8811 15.7074 18.021 15.3744 18.1205 14.9812" stroke="#141B34" stroke-width="1.5" stroke-linecap="round" stroke-linejoin="round"/>
<path d="M5 8.9541L8.33333 8.9541" stroke="#141B34" stroke-width="1.5" stroke-linecap="round" stroke-linejoin="round"/>
<path d="M5 12.2874L10.8333 12.2874" stroke="#141B34" stroke-width="1.5" stroke-linecap="round" stroke-linejoin="round"/>
<path d="M14.2699 14.4095L14.1131 13.676H14.1131L14.2699 14.4095ZM13.4342 13.5737L14.1676 13.7306L13.4342 13.5737ZM14.0428 11.8095L13.5125 11.2791H13.5125L14.0428 11.8095ZM18.7481 9.98L19.3976 9.605V9.605L18.7481 9.98ZM18.7481 11.0361L19.3976 11.4111L18.7481 11.0361ZM17.8636 9.09559L18.2386 8.44607L18.2386 8.44607L17.8636 9.09559ZM16.3399 9.51235L16.8702 10.0427L16.3399 9.51235ZM16.8075 9.09559L16.4325 8.44607L16.8075 9.09559ZM17.801 10.9734L15.5039 13.2705L16.5645 14.3312L18.8616 12.0341L17.801 10.9734ZM14.5731 12.3398L16.8702 10.0427L15.8096 8.98202L13.5125 11.2791L14.5731 12.3398ZM14.1131 13.676C13.9903 13.7023 13.8963 13.7223 13.8163 13.7372C13.7352 13.7523 13.6903 13.7578 13.6664 13.7593C13.641 13.7609 13.6701 13.7557 13.7263 13.7702C13.7949 13.7879 13.8767 13.828 13.9462 13.8975L12.8855 14.9581C13.1795 15.2521 13.5428 15.2702 13.7616 15.2563C13.9669 15.2432 14.2115 15.1889 14.4267 15.1429L14.1131 13.676ZM12.7008 13.4169C12.6547 13.6321 12.6004 13.8767 12.5874 14.0821C12.5734 14.3009 12.5915 14.6641 12.8855 14.9581L13.9462 13.8975C14.0157 13.9669 14.0558 14.0487 14.0735 14.1173C14.0879 14.1735 14.0827 14.2027 14.0843 14.1773C14.0859 14.1533 14.0914 14.1085 14.1064 14.0274C14.1213 13.9474 14.1414 13.8533 14.1676 13.7306L12.7008 13.4169ZM17.801 10.0427C17.9215 10.1632 17.9941 10.2361 18.0465 10.2934C18.0961 10.3478 18.1023 10.3614 18.0985 10.355L19.3976 9.605C19.2662 9.37752 19.059 9.17937 18.8616 8.98202L17.801 10.0427ZM18.8616 12.0341C19.059 11.8367 19.2662 11.6386 19.3976 11.4111L18.0985 10.6611C18.1023 10.6547 18.0961 10.6683 18.0465 10.7226C17.9941 10.78 17.9215 10.8529 17.801 10.9734L18.8616 12.0341ZM18.0985 10.355C18.1532 10.4497 18.1532 10.5664 18.0985 10.6611L19.3976 11.4111C19.7202 10.8523 19.7202 10.1638 19.3976 9.605L18.0985 10.355ZM18.8616 8.98202C18.6643 8.78467 18.4661 8.57741 18.2386 8.44607L17.4886 9.74511C17.4822 9.74139 17.4958 9.74753 17.5502 9.79717C17.6076 9.84953 17.6804 9.92213 17.801 10.0427L18.8616 8.98202ZM16.8702 10.0427C16.9908 9.92213 17.0636 9.84953 17.121 9.79717C17.1754 9.74753 17.189 9.74139 17.1825 9.74511L16.4325 8.44607C16.2051 8.57741 16.0069 8.78467 15.8096 8.98202L16.8702 10.0427ZM18.2386 8.44607C17.6798 8.12344 16.9914 8.12344 16.4325 8.44607L17.1825 9.74511C17.2773 9.69043 17.3939 9.69043 17.4886 9.74511L18.2386 8.44607ZM15.5039 13.2705C15.4093 13.3651 15.2688 13.439 15.0242 13.5014C14.9015 13.5327 14.7683 13.5575 14.6118 13.5846C14.4642 13.6101 14.285 13.6393 14.1131 13.676L14.4267 15.1429C14.5611 15.1141 14.6983 15.0919 14.8672 15.0627C15.0273 15.035 15.2108 15.0019 15.3953 14.9548C15.7649 14.8604 16.2002 14.6955 16.5645 14.3312L15.5039 13.2705ZM14.1676 13.7306C14.2044 13.5586 14.2336 13.3794 14.2591 13.2318C14.2861 13.0753 14.3109 12.9421 14.3422 12.8195C14.4047 12.5749 14.4785 12.4344 14.5731 12.3398L13.5125 11.2791C13.1481 11.6435 12.9832 12.0787 12.8888 12.4484C12.8417 12.6329 12.8086 12.8164 12.781 12.9764C12.7518 13.1453 12.7295 13.2825 12.7008 13.4169L14.1676 13.7306Z" fill="black"/>
</svg>
