<svg width="234" height="234" viewBox="0 0 234 234" fill="none" xmlns="http://www.w3.org/2000/svg">
<g id="Virus-Theat-Found-4--Streamline-Milano">
<g id="Group">
<path id="Vector" d="M228.736 158.562C228.178 154.32 228.268 154.415 227.917 154.221C227.8 154.155 230.3 154.781 158.292 139.238C158.616 138.439 158.666 137.554 158.432 136.724L142.798 86.8368L178.772 76.2962C179.403 76.1129 179.991 75.8071 180.504 75.3962C181.017 74.9853 181.443 74.4774 181.76 73.9015C182.076 73.3256 182.276 72.6931 182.347 72.04C182.419 71.3869 182.361 70.726 182.177 70.0952L171.356 34.6325C171.196 34.0348 170.919 33.4749 170.541 32.9854C170.163 32.496 169.69 32.0868 169.152 31.7818C168.614 31.4769 168.02 31.2822 167.406 31.2092C166.791 31.1361 166.169 31.1862 165.574 31.3565L108.877 44.9168C108.249 45.0527 107.655 45.3146 107.132 45.6865C106.608 46.0584 106.165 46.5326 105.83 47.0805C105.495 47.6285 105.274 48.2387 105.181 48.8743C105.089 49.5099 105.126 50.1577 105.291 50.7785C105.291 51.1623 105.108 50.4275 106.942 56.6285L67.9527 67.5575L67.4051 65.8025L75.7952 63.2554C77.0668 62.8723 78.1424 62.0147 78.7991 60.8604C79.4557 59.706 79.6433 58.3433 79.3227 57.0544L72.0184 31.4899C71.6452 30.3075 70.8462 29.3057 69.7764 28.6788C68.7066 28.052 67.4421 27.8446 66.2281 28.0969L26.9325 38.3859C26.815 38.3761 26.6967 38.384 26.5815 38.4093C25.3378 38.7755 24.2864 39.6132 23.6516 40.7437C23.0169 41.8742 22.849 43.208 23.1838 44.4605L25.6291 53.796L17.101 56.3044C16.4713 56.4589 15.879 56.738 15.3591 57.1253C14.8392 57.5127 14.4022 58.0004 14.0741 58.5595C13.746 59.1187 13.5333 59.738 13.4487 60.3808C13.3641 61.0236 13.4093 61.6768 13.5816 62.3019L16.0222 70.8031C8.29321 73.0191 9.14263 72.7921 8.88523 72.7921C8.82933 72.7921 8.77373 72.8003 8.72026 72.8167C8.10756 73.0006 7.53709 73.3034 7.04144 73.7079C6.54578 74.1123 6.13465 74.6104 5.83153 75.1737C5.5284 75.7371 5.33921 76.3546 5.27477 76.9911C5.21033 77.6275 5.2719 78.2704 5.45596 78.8831L13.2786 106.132C13.668 107.363 14.5229 108.393 15.661 109.003C16.7991 109.613 18.1303 109.753 19.3708 109.396L25.5378 107.346L38.0264 151.574C-1.83899 164.373 19.5498 157.541 12.6374 159.647C11.41 160.034 10.3819 160.884 9.77206 162.017C9.16218 163.151 9.01863 164.477 9.37195 165.715L17.1957 192.963C17.4914 193.969 18.1078 194.851 18.9513 195.475C19.7947 196.098 20.8188 196.429 21.8676 196.417C23.0551 196.417 20.4296 197.169 56.0573 185.333C129.323 207.286 125.052 206.081 125.284 205.976L228.398 159.176C228.513 159.123 228.608 159.036 228.669 158.925C228.73 158.815 228.754 158.687 228.736 158.562ZM157.249 137.333C157.574 138.828 156.76 139.977 154.839 140.746L64.4684 172.723L62.4151 165.964L149.733 136.382C149.878 136.333 149.997 136.23 150.067 136.094C150.136 135.959 150.15 135.802 150.105 135.656L135.766 88.8971L141.557 87.2006C158.08 139.944 157.164 136.988 157.242 137.333H157.249ZM48.7495 148.133L35.6747 103.982L58.581 96.3711C59.1981 96.1909 59.7731 95.8897 60.2726 95.4851C60.7721 95.0804 61.186 94.5803 61.4903 94.0141C61.7945 93.4478 61.983 92.8266 62.0448 92.1867C62.1066 91.5469 62.0403 90.9011 61.85 90.2871L59.3099 82.2071L66.6376 79.7735C67.6704 79.4471 68.564 78.7839 69.1753 77.8898L109.883 66.5735L116.656 89.4599C116.952 90.466 117.568 91.3481 118.411 91.9721C119.254 92.5961 120.277 92.928 121.326 92.9173C122.379 92.9173 121.969 92.9465 134.644 89.2329L148.825 135.455L62.0746 164.844L57.6824 150.384C57.3034 149.206 56.4921 148.216 55.412 147.613C54.3319 147.009 53.0632 146.838 51.8617 147.133L48.7495 148.133ZM131.351 78.7333L139.047 45.7335C139.137 45.2889 139.725 44.8314 140.378 45.4831L162.046 70.2789C162.657 70.8897 161.649 71.2009 161.526 71.2933L132.261 79.6202C132.136 79.6622 132.002 79.6691 131.873 79.6401C131.745 79.6111 131.627 79.5473 131.532 79.4558C131.437 79.3643 131.37 79.2485 131.336 79.121C131.303 78.9936 131.306 78.8595 131.343 78.7333H131.351ZM107.414 58.2279L109.551 65.4457L69.8434 76.4893C70.1042 75.606 70.1224 74.6688 69.896 73.7761L68.4265 69.0727L107.414 58.2279ZM53.0796 72.8635C53.1101 72.8862 53.1349 72.9158 53.152 72.9498C53.169 72.9838 53.1779 73.0214 53.1779 73.0594C53.1779 73.0975 53.169 73.135 53.152 73.1691C53.1349 73.2031 53.1101 73.2326 53.0796 73.2554C53.0625 73.2551 53.0455 73.2582 53.0296 73.2646C53.0137 73.2711 52.9992 73.2806 52.9871 73.2927C52.975 73.3049 52.9654 73.3193 52.959 73.3352C52.9526 73.3511 52.9495 73.3681 52.9498 73.3853C35.6338 78.9744 36.4692 78.731 36.3522 78.7298L36.0012 78.3601C36.146 77.2788 36.3554 76.2071 36.6283 75.1508L51.0953 70.7575L53.0796 72.8635ZM28.4722 92.4528L34.9575 90.2976C35.1833 90.5132 35.4634 90.6632 35.768 90.7316C36.0725 90.7999 36.39 90.7841 36.6862 90.6857C36.9824 90.5873 37.2462 90.4101 37.4494 90.1732C37.6525 89.9362 37.7873 89.6483 37.8392 89.3406L43.1042 87.5926L44.8475 89.4412C44.9891 89.6132 44.7937 89.7407 44.5819 89.8109C26.9886 95.6118 28.0978 95.2069 27.9878 95.0338L28.4722 92.4528ZM26.8342 39.5559C27.2215 39.5559 23.8987 39.8238 66.5101 29.2423C67.4325 29.0499 68.3936 29.2087 69.2051 29.6876C70.0166 30.1665 70.6201 30.931 70.8976 31.8316L78.1902 57.3481C78.4346 58.3409 78.2893 59.3896 77.7842 60.2786C77.2791 61.1676 76.4526 61.8292 75.4746 62.1275L36 74.12C35.0617 74.3361 34.0765 74.1913 33.24 73.7144C32.4035 73.2375 31.777 72.4635 31.485 71.546L24.3129 44.168C24.0573 43.2225 24.1769 42.2147 24.6467 41.3553C25.1166 40.4959 25.9003 39.8512 26.8342 39.5559ZM19.0221 108.282C18.0827 108.546 17.0776 108.436 16.217 107.976C15.3563 107.517 14.7068 106.742 14.4041 105.814L6.58384 78.5731C6.30269 77.6457 6.39532 76.6451 6.84195 75.785C7.28858 74.925 8.0538 74.2737 8.97415 73.9703C9.33919 73.9703 8.59507 74.1528 16.3452 71.931L21.4042 89.55C21.7395 90.7471 22.5333 91.7637 23.6134 92.3792C24.6935 92.9947 25.9727 93.1594 27.1735 92.8377L26.8225 94.6535C26.7705 94.8796 26.7784 95.1153 26.8454 95.3374C26.9124 95.5595 27.0363 95.7603 27.2047 95.9198C27.3731 96.0794 27.5802 96.1922 27.8056 96.2471C28.031 96.3021 28.2668 96.2972 28.4898 96.233L45.0464 90.8885C45.2699 90.8201 45.4727 90.6967 45.6361 90.5296C45.7996 90.3625 45.9184 90.157 45.9818 89.932C46.0451 89.707 46.0509 89.4697 45.9987 89.2419C45.9465 89.0141 45.8379 88.803 45.6829 88.628L44.3234 87.1854L58.1996 82.5756L60.7303 90.6276C60.8757 91.0946 60.9264 91.586 60.8795 92.0729C60.8325 92.5598 60.6889 93.0325 60.4569 93.4631C60.2249 93.8938 59.9092 94.2738 59.5284 94.5809C59.1476 94.888 58.7094 95.1159 58.2393 95.2514L19.0221 108.282ZM27.645 106.65L34.5632 104.351L47.6274 148.491L40.0763 150.917L27.645 106.65ZM22.9404 195.102C22.4749 195.244 21.9859 195.293 21.5015 195.245C21.017 195.198 20.5466 195.056 20.117 194.827C19.6875 194.599 19.3073 194.287 18.9982 193.911C18.6891 193.535 18.4571 193.102 18.3154 192.636L10.4916 165.385C10.2375 164.458 10.3431 163.469 10.7873 162.617C11.2314 161.765 11.9813 161.112 12.8866 160.789C13.2985 160.789 52.0524 148.303 52.1706 148.259C53.0787 148.043 54.0352 148.176 54.8489 148.634C55.6627 149.092 56.2739 149.84 56.5604 150.728L64.6474 177.336C64.8121 177.808 64.8784 178.308 64.8421 178.807C64.8058 179.305 64.6677 179.791 64.4363 180.234C64.205 180.677 63.8853 181.067 63.497 181.382C63.1087 181.696 62.66 181.928 62.1787 182.062L22.9404 195.102ZM124.234 199.064L64.9048 181.631C65.4326 180.993 65.7886 180.231 65.9389 179.416C66.0892 178.602 66.0288 177.763 65.7636 176.978L64.8276 173.888L155.207 141.989C156.181 141.687 157.043 141.098 157.678 140.299L225.621 154.965L124.234 199.064Z" fill="black"/>
<path id="Vector_2" d="M75.5073 176.289L110.958 184.11C111.233 184.172 107.626 185.459 191.22 151.753C191.336 151.706 191.434 151.623 191.499 151.516C191.564 151.409 191.594 151.285 191.583 151.16C191.572 151.036 191.521 150.918 191.439 150.824C191.356 150.73 191.245 150.665 191.123 150.639C160.449 144.087 162.369 144.447 162.127 144.533L75.4371 175.166C75.3171 175.208 75.2142 175.288 75.144 175.395C75.0738 175.501 75.0401 175.627 75.048 175.754C75.056 175.881 75.1051 176.002 75.188 176.098C75.2708 176.195 75.383 176.262 75.5073 176.289ZM173.537 148.078C89.8819 180.37 93.5089 178.946 93.3919 179.037L87.1851 177.668L169.423 147.199L173.537 148.078ZM180.592 149.585C97.1909 183.082 102.765 180.752 102.612 181.071L95.416 179.483L175.627 148.525L180.592 149.585ZM111.036 182.93L104.367 181.459L182.64 150.022L189.011 151.384L111.036 182.93ZM162.358 145.691L167.286 146.744C80.2165 179.003 85.6956 176.797 85.6114 177.322L77.7549 175.589L162.358 145.691Z" fill="black"/>
<path id="Vector_3" d="M186.151 167.059C167.123 163.706 168.218 163.867 167.975 163.963L146.071 172.692C145.957 172.738 145.86 172.819 145.794 172.923C145.728 173.027 145.697 173.149 145.704 173.272C145.712 173.394 145.758 173.512 145.836 173.607C145.914 173.702 146.02 173.77 146.139 173.802L163.868 178.494C164.181 178.578 162.799 179.178 186.296 168.161C186.407 168.108 186.499 168.021 186.557 167.912C186.616 167.804 186.639 167.68 186.623 167.557C186.607 167.435 186.552 167.321 186.468 167.232C186.383 167.142 186.272 167.082 186.151 167.059ZM163.964 177.313L148.153 173.128L168.25 165.111L184.118 167.891L163.964 177.313Z" fill="black"/>
<path id="Vector_4" d="M106.963 121.656L130.629 114.113C130.898 114.016 131.138 113.855 131.33 113.644C131.521 113.433 131.658 113.177 131.727 112.901C131.797 112.624 131.797 112.335 131.728 112.058C131.659 111.781 131.523 111.526 131.331 111.314L113.063 91.6123C112.842 91.4022 112.567 91.2566 112.269 91.1912C111.971 91.1258 111.66 91.1432 111.371 91.2413C111.082 91.3395 110.825 91.5147 110.629 91.7482C110.432 91.9816 110.303 92.2644 110.255 92.5659L104.807 119.677C104.735 119.968 104.742 120.272 104.828 120.559C104.914 120.846 105.076 121.105 105.297 121.307C105.517 121.51 105.789 121.649 106.082 121.71C106.375 121.772 106.679 121.753 106.963 121.656ZM111.4 92.794C111.409 92.7031 111.441 92.616 111.494 92.5417C111.547 92.4674 111.619 92.4084 111.702 92.371C111.786 92.3335 111.877 92.3188 111.968 92.3284C112.059 92.3379 112.146 92.3715 112.219 92.4255L130.484 112.126C130.534 112.191 130.57 112.265 130.589 112.344C130.608 112.424 130.611 112.506 130.596 112.587C130.582 112.667 130.55 112.743 130.504 112.811C130.459 112.878 130.399 112.936 130.33 112.979L106.64 120.53C106.096 120.663 105.857 120.465 105.938 119.961L111.4 92.794Z" fill="black"/>
<path id="Vector_5" d="M116.061 108.354C116.128 108.469 116.232 108.558 116.356 108.606C116.48 108.655 116.617 108.659 116.744 108.619C116.871 108.579 116.98 108.497 117.054 108.386C117.128 108.275 117.162 108.142 117.15 108.01L116.501 100.503C116.503 100.335 116.464 100.169 116.386 100.02C116.308 99.871 116.194 99.7437 116.055 99.6494C115.916 99.5551 115.756 99.4969 115.588 99.4798C115.421 99.4628 115.252 99.4876 115.097 99.5519L112.783 100.241C112.51 100.393 112.307 100.643 112.213 100.94C112.119 101.238 112.143 101.56 112.278 101.84L116.061 108.354Z" fill="black"/>
<path id="Vector_6" d="M115.331 111.711C115.379 112.126 115.545 112.518 115.811 112.84C116.076 113.162 116.429 113.4 116.827 113.526C117.225 113.652 117.651 113.661 118.053 113.55C118.455 113.44 118.817 113.215 119.095 112.904C119.373 112.592 119.555 112.207 119.618 111.795C119.682 111.382 119.625 110.96 119.455 110.58C119.284 110.199 119.007 109.875 118.657 109.648C118.306 109.422 117.898 109.301 117.481 109.301C116.877 109.338 116.312 109.612 115.91 110.063C115.507 110.515 115.299 111.107 115.331 111.711Z" fill="black"/>
<path id="Vector_7" d="M115.132 125.074C115.27 125.074 114.683 125.238 124.561 122.179C124.709 122.133 124.832 122.029 124.904 121.892C124.976 121.754 124.99 121.593 124.944 121.445C124.897 121.297 124.794 121.173 124.656 121.102C124.518 121.03 124.358 121.016 124.21 121.062L114.953 123.93C114.818 123.971 114.703 124.059 114.628 124.179C114.553 124.298 114.524 124.44 114.546 124.579C114.568 124.719 114.639 124.845 114.747 124.936C114.854 125.027 114.991 125.076 115.132 125.074Z" fill="black"/>
<path id="Vector_8" d="M127.732 124.97L112.35 129.662C112.274 129.683 112.202 129.718 112.14 129.766C112.078 129.814 112.026 129.875 111.988 129.943C111.95 130.012 111.926 130.088 111.917 130.166C111.909 130.244 111.917 130.323 111.939 130.398C111.962 130.474 112 130.543 112.051 130.604C112.101 130.664 112.163 130.714 112.233 130.749C112.304 130.785 112.38 130.806 112.459 130.812C112.537 130.817 112.616 130.807 112.69 130.781L128.072 126.088C128.148 126.068 128.219 126.033 128.281 125.985C128.344 125.936 128.395 125.876 128.434 125.807C128.472 125.739 128.496 125.663 128.504 125.585C128.513 125.506 128.505 125.427 128.482 125.352C128.459 125.277 128.422 125.207 128.371 125.147C128.321 125.086 128.258 125.037 128.188 125.001C128.118 124.966 128.042 124.944 127.963 124.939C127.885 124.933 127.806 124.944 127.732 124.97Z" fill="black"/>
<path id="Vector_9" d="M145.376 64.5223L144.855 55.2664C144.844 55.0845 144.791 54.9076 144.7 54.7497C144.609 54.5917 144.483 54.4569 144.331 54.3559C144.18 54.2549 144.007 54.1905 143.826 54.1676C143.645 54.1447 143.462 54.164 143.289 54.2239L140.814 55.0055C140.642 55.0519 140.482 55.1355 140.346 55.2503C140.21 55.3652 140.101 55.5085 140.026 55.6702C139.951 55.8319 139.913 56.008 139.914 56.1861C139.915 56.3641 139.955 56.5399 140.031 56.7008L144.333 64.782C144.381 64.9045 144.472 65.0053 144.589 65.0656C144.706 65.126 144.841 65.1417 144.968 65.1099C145.096 65.0781 145.208 65.0009 145.283 64.8928C145.358 64.7847 145.391 64.653 145.376 64.5223Z" fill="black"/>
<path id="Vector_10" d="M45.683 62.3449L62.3883 57.3853C62.6211 57.33 62.8349 57.2135 63.0074 57.0477C63.18 56.8819 63.3051 56.673 63.3696 56.4426C63.4342 56.2122 63.436 55.9687 63.3747 55.7374C63.3134 55.5061 63.1914 55.2954 63.0212 55.1272L50.4929 41.1656C50.337 40.9577 50.1213 40.8025 49.8746 40.7208C49.628 40.6391 49.3622 40.6349 49.1131 40.7086C48.8639 40.7824 48.6433 40.9306 48.4809 41.1334C48.3184 41.3361 48.2219 41.5838 48.2044 41.843L44.0509 60.68C43.9503 60.9097 43.9207 61.1641 43.9659 61.4107C44.0111 61.6573 44.1291 61.8847 44.3046 62.0638C44.4801 62.2428 44.7051 62.3652 44.9508 62.4153C45.1964 62.4654 45.4514 62.4409 45.683 62.3449ZM55.1857 55.7297C55.1857 56.0708 55.0846 56.4043 54.8951 56.6879C54.7056 56.9715 54.4363 57.1925 54.1211 57.323C53.806 57.4536 53.4592 57.4877 53.1247 57.4212C52.7902 57.3546 52.4829 57.1904 52.2417 56.9492C52.0005 56.708 51.8363 56.4007 51.7697 56.0662C51.7032 55.7317 51.7373 55.3849 51.8679 55.0698C51.9984 54.7547 52.2194 54.4853 52.503 54.2958C52.7866 54.1063 53.1201 54.0052 53.4612 54.0052C53.9185 54.0052 54.3572 54.1869 54.6806 54.5103C55.004 54.8337 55.1857 55.2724 55.1857 55.7297ZM49.6961 45.9918L51.1305 45.6011C51.3027 45.551 51.4838 45.5399 51.6608 45.5685C51.8377 45.5972 52.0061 45.6649 52.1537 45.7667C52.3012 45.8686 52.4242 46.002 52.5138 46.1573C52.6033 46.3126 52.6572 46.4859 52.6714 46.6646L53.0622 51.8582C53.0941 52.025 53.0645 52.1976 52.9789 52.3442C52.8932 52.4908 52.7574 52.6014 52.5965 52.6555C52.4355 52.7096 52.2605 52.7036 52.1037 52.6385C51.9469 52.5735 51.8189 52.4538 51.7436 52.3016L49.1275 47.7234C49.0272 47.5782 48.962 47.4117 48.9367 47.237C48.9115 47.0624 48.9271 46.8842 48.9821 46.7165C49.0372 46.5489 49.1303 46.3962 49.2541 46.2705C49.378 46.1448 49.5293 46.0494 49.6961 45.9918Z" fill="black"/>
<path id="Vector_11" d="M36.9345 161.445C36.7786 161.237 36.5628 161.082 36.316 161C36.0692 160.918 35.8034 160.914 35.5542 160.988C35.305 161.062 35.0845 161.21 34.9221 161.413C34.7597 161.616 34.6634 161.864 34.646 162.123L30.4937 180.96C30.3946 181.19 30.3661 181.444 30.412 181.689C30.4578 181.935 30.5759 182.161 30.7511 182.34C30.9263 182.518 31.1507 182.64 31.3956 182.69C31.6405 182.74 31.8947 182.716 32.1258 182.621L48.8299 177.661C49.0627 177.606 49.2765 177.489 49.4491 177.323C49.6217 177.158 49.7467 176.949 49.8113 176.718C49.8759 176.488 49.8776 176.244 49.8164 176.013C49.7551 175.782 49.6331 175.571 49.4629 175.403L36.9345 161.445ZM36.1389 166.272L37.5722 165.88C37.7445 165.83 37.9258 165.819 38.1029 165.848C38.28 165.877 38.4485 165.944 38.5961 166.046C38.7438 166.148 38.8669 166.282 38.9565 166.437C39.0461 166.593 39.1 166.766 39.1142 166.945L39.505 172.137C39.5369 172.304 39.5073 172.477 39.4217 172.623C39.3361 172.77 39.2002 172.881 39.0393 172.935C38.8784 172.989 38.7033 172.983 38.5465 172.918C38.3897 172.853 38.2618 172.733 38.1864 172.581L35.5727 168.003C35.4724 167.858 35.407 167.691 35.3816 167.517C35.3562 167.342 35.3716 167.164 35.4264 166.997C35.4812 166.829 35.5741 166.677 35.6977 166.551C35.8213 166.425 35.9723 166.33 36.1389 166.272ZM39.9028 177.738C39.5617 177.738 39.2283 177.637 38.9447 177.448C38.6611 177.258 38.44 176.989 38.3095 176.674C38.179 176.358 38.1448 176.012 38.2114 175.677C38.2779 175.343 38.4422 175.035 38.6834 174.794C38.9245 174.553 39.2318 174.389 39.5664 174.322C39.9009 174.256 40.2477 174.29 40.5628 174.42C40.8779 174.551 41.1473 174.772 41.3368 175.056C41.5263 175.339 41.6274 175.673 41.6274 176.014C41.6265 176.471 41.4442 176.909 41.1206 177.231C40.7971 177.554 40.3586 177.735 39.9016 177.735L39.9028 177.738Z" fill="black"/>
<path id="Vector_12" d="M146.007 66.2051C145.477 66.2051 144.959 66.3622 144.519 66.6567C144.078 66.9512 143.735 67.3697 143.532 67.8593C143.329 68.349 143.276 68.8878 143.38 69.4075C143.483 69.9273 143.738 70.4047 144.113 70.7793C144.488 71.154 144.966 71.4091 145.485 71.5123C146.005 71.6156 146.544 71.5624 147.034 71.3594C147.523 71.1564 147.941 70.8128 148.236 70.3721C148.53 69.9313 148.687 69.4132 148.687 68.8832C148.687 68.5314 148.617 68.1831 148.483 67.8581C148.348 67.5331 148.151 67.2378 147.902 66.9891C147.653 66.7404 147.358 66.5431 147.033 66.4086C146.708 66.2741 146.359 66.2049 146.007 66.2051Z" fill="black"/>
</g>
<path id="vector_24" d="M94.6428 128.189C92.9784 132.845 89.4718 137.005 87.4772 138.563C69.4004 152.689 46.9039 133.898 55.5009 113.893C62.5905 97.3951 83.7924 94.5033 93.005 109.334C95.6178 113.54 97.178 121.099 94.6428 128.189ZM55.768 127.115C56.5357 130.309 57.8625 132.864 59.1768 134.521C61.027 136.853 60.8656 136.694 61.1333 136.033C62.1537 133.512 65.2762 129.854 69.8196 127.596C73.2324 125.9 73.2283 126.665 73.2408 125.918C73.2689 124.215 73.3915 124.346 72.9605 124.178C71.1911 123.488 71.2651 122.568 70.5824 122.588C65.2916 122.741 65.2283 122.908 65.1509 122.072C65.0372 120.859 65.1472 119.656 65.2853 118.455C66.9097 104.343 81.2213 105.015 85.406 115.704C86.0167 117.264 86.8729 119.252 85.5287 119.694C80.552 121.33 80.2625 120.912 80.1986 121.207C80.1229 121.557 79.7546 122.372 80.2097 123.249C80.65 124.098 80.4792 124.678 81.1092 124.664C82.186 124.64 86.978 125.039 90.5086 126.523C93.6047 127.825 93.4031 128.156 93.5529 127.724C98.5326 113.313 88.2278 100.564 75.3224 101.02C61.9301 101.491 52.8047 114.779 55.768 127.115ZM86.4603 135.125C87.0036 136.91 86.9118 136.86 87.1804 136.607C89.3885 134.533 91.7438 132.224 92.9316 129.269C93.0411 128.996 93.053 128.987 92.7943 128.866C87.5437 126.417 85.3176 126.065 82.0366 125.731C81.1294 125.639 81.0912 125.634 81.1156 126.041C81.1905 127.26 80.4043 128.752 79.4649 129.534C77.0763 131.521 73.7974 129.811 73.4575 127.727C73.3659 127.165 73.1973 127.278 73.0017 127.357C70.6795 128.293 69.6098 128.716 67.392 130.356C63.7919 133.018 62.6072 135.89 61.9415 136.887C61.7529 137.168 61.6226 137.318 62.2475 137.762C64.1003 139.081 65.2524 140.022 67.9834 140.926C68.606 141.132 67.7219 140.967 69.6185 135.059C69.6904 134.835 70.0866 134.235 70.3638 134.375C70.4632 134.427 70.5762 134.643 70.4392 135.012C69.9176 136.414 69.8031 138.077 69.3673 141.075C69.2482 141.894 76.8992 142.698 81.538 140.33C82.5207 139.828 81.6789 140.57 85.5669 137.98C85.7313 137.871 85.8053 137.743 85.7272 137.534C85.3896 136.634 85.0859 134.628 85.2651 133.563C85.3154 133.264 85.8135 133.171 85.9734 133.545C86.0018 133.611 86.0559 133.792 86.4616 135.125L86.4603 135.125ZM74.2401 127.476C74.9205 129.753 78.3324 130.803 80.1142 126.76C80.3961 126.122 79.4177 124.227 79.3512 124.108C78.6701 122.888 78.9684 122.231 79.2413 119.533C79.2845 119.108 79.2761 119.08 79.7259 119.079C80.6222 119.078 81.1258 118.081 80.6094 117.285C79.8427 116.103 79.0455 117.473 78.433 116.811C77.928 116.266 77.4186 115.693 77.3924 113.732C77.3811 112.9 76.9559 113.749 74.859 114.318C71.7267 115.167 70.2695 112.985 70.238 114.632C70.1726 117.998 70.4287 122.289 73.7618 123.3C75.3149 123.771 73.706 126.315 74.2401 127.476Z" fill="black"/>
<g id="Rectangle 5952" style="mix-blend-mode:multiply">
<path d="M53.5668 120.726C53.7811 109.316 63.199 100.238 74.6088 100.442L75.9225 100.466C87.3464 100.671 96.4385 110.103 96.2239 121.526C96.0096 132.936 86.5917 142.014 75.1818 141.81L73.8682 141.787C62.4443 141.582 53.3522 132.15 53.5668 120.726Z" fill="#47C0BA"/>
</g>
</g>
</svg>
