<svg xmlns="http://www.w3.org/2000/svg" width="13" height="13" viewBox="0 0 13 13" fill="none">
  <path d="M8.81026 3.21334L7.15693 1.93334C6.9436 1.72001 6.4636 1.61334 6.1436 1.61334H4.11693C3.47693 1.61334 2.7836 2.09334 2.6236 2.73334L1.3436 6.62668C1.07693 7.37334 1.55693 8.01334 2.35693 8.01334H4.49026C4.81026 8.01334 5.07693 8.28001 5.0236 8.65334L4.75693 10.36C4.65026 10.84 4.97026 11.3733 5.45026 11.5333C5.87693 11.6933 6.41026 11.48 6.6236 11.16L8.81026 7.90668" stroke="#4B5565" stroke-width="0.8" stroke-miterlimit="10"/>
  <path d="M11.5299 3.21335V8.44001C11.5299 9.18668 11.2099 9.45334 10.4633 9.45334H9.92995C9.18328 9.45334 8.86328 9.18668 8.86328 8.44001V3.21335C8.86328 2.46668 9.18328 2.20001 9.92995 2.20001H10.4633C11.2099 2.20001 11.5299 2.46668 11.5299 3.21335Z" stroke="#4B5565" stroke-width="0.8" stroke-linecap="round" stroke-linejoin="round"/>
</svg>