<svg xmlns="http://www.w3.org/2000/svg" width="20" height="23" viewBox="0 0 20 23" fill="none">
  <path d="M1.5 12.6211V11.8174C1.5 8.85001 1.5 7.36632 1.96894 6.18133C2.72281 4.27631 4.31714 2.77364 6.33836 2.0631C7.59563 1.62113 9.16981 1.62113 12.3182 1.62113C14.1173 1.62113 15.0168 1.62113 15.7352 1.87368C16.8902 2.27971 17.8012 3.13837 18.232 4.22696C18.5 4.9041 18.5 5.75192 18.5 7.44756V11.6353V12.6211" stroke="#141B34" stroke-width="1.5" stroke-linecap="round" stroke-linejoin="round"/>
  <path d="M1.5 11.6211C1.5 9.78014 2.99238 8.28776 4.83333 8.28776C5.49912 8.28776 6.28404 8.40442 6.93137 8.23097C7.50652 8.07686 7.95576 7.62761 8.10988 7.05246C8.28333 6.40513 8.16667 5.62021 8.16667 4.95443C8.16667 3.11348 9.65905 1.62109 11.5 1.62109" stroke="#141B34" stroke-width="1.5" stroke-linecap="round" stroke-linejoin="round"/>
  <path d="M18.5007 16.8407C18.4486 15.6503 17.674 15.6211 16.6231 15.6211C15.0044 15.6211 14.736 16.0271 14.736 17.6211V19.6211C14.736 21.215 15.0044 21.6211 16.6231 21.6211C17.674 21.6211 18.4486 21.5919 18.5007 20.4015M5.26568 18.6211C5.26568 20.2779 4.00155 21.6211 2.44215 21.6211C2.0903 21.6211 1.91437 21.6211 1.78333 21.5407C1.46959 21.3482 1.50098 20.9587 1.50098 20.6211V16.6211C1.50098 16.2835 1.46959 15.8939 1.78333 15.7015C1.91437 15.6211 2.0903 15.6211 2.44215 15.6211C4.00155 15.6211 5.26568 16.9642 5.26568 18.6211ZM10.0007 21.6211C9.11339 21.6211 8.66971 21.6211 8.39405 21.3282C8.11839 21.0353 8.11839 20.5639 8.11839 19.6211V17.6211C8.11839 16.6783 8.11839 16.2069 8.39405 15.914C8.66971 15.6211 9.11339 15.6211 10.0007 15.6211C10.8881 15.6211 11.3318 15.6211 11.6074 15.914C11.8831 16.2069 11.8831 16.6783 11.8831 17.6211V19.6211C11.8831 20.5639 11.8831 21.0353 11.6074 21.3282C11.3318 21.6211 10.8881 21.6211 10.0007 21.6211Z" stroke="#141B34" stroke-width="1.5" stroke-linecap="round"/>
</svg>