<svg xmlns="http://www.w3.org/2000/svg" width="30" height="30" viewBox="0 0 30 30" fill="none">
  <path d="M21.5945 3.23072C22.3776 2.4477 22.7691 2.05619 23.2028 1.86896C23.8277 1.59922 24.5361 1.59922 25.161 1.86896C25.5947 2.05619 25.9862 2.4477 26.7693 3.23072C27.5523 4.01375 27.9438 4.40526 28.131 4.83899C28.4008 5.46385 28.4008 6.17232 28.131 6.79718C27.9438 7.2309 27.5523 7.62242 26.7693 8.40544L20.0738 15.1009C18.4242 16.7505 17.5994 17.5753 16.5664 18.064C15.5334 18.5527 14.3726 18.6672 12.051 18.8963L11 19L11.1037 17.949C11.3328 15.6274 11.4473 14.4666 11.936 13.4336C12.4247 12.4006 13.2495 11.5758 14.8991 9.92618L21.5945 3.23072Z" stroke="#364152" stroke-width="1.5" stroke-linejoin="round"/>
  <path d="M6.99996 19H3.99996C2.7113 19 1.66663 20.0447 1.66663 21.3333C1.66663 22.622 2.7113 23.6667 3.99996 23.6667H16.6666C17.9553 23.6667 19 24.7113 19 26C19 27.2887 17.9553 28.3333 16.6666 28.3333H13.6666" stroke="#0D121C" stroke-width="1.5" stroke-linecap="round" stroke-linejoin="round"/>
</svg>