<svg width="17" height="16" viewBox="0 0 17 16" fill="none" xmlns="http://www.w3.org/2000/svg">
<g clip-path="url(#clip0_5419_148235)">
<path d="M9.55109 2.58998C10.0479 2.05173 10.2963 1.78261 10.5602 1.62563C11.1971 1.24685 11.9813 1.23507 12.6289 1.59456C12.8972 1.74354 13.1532 2.00509 13.6653 2.52818C14.1774 3.05128 14.4334 3.31282 14.5793 3.58696C14.9312 4.24842 14.9196 5.04954 14.5488 5.70014C14.3952 5.96978 14.1317 6.22352 13.6048 6.73101L7.3357 12.7692C6.3372 13.7309 5.83795 14.2118 5.21399 14.4555C4.59003 14.6992 3.90409 14.6813 2.5322 14.6454L2.34554 14.6405C1.92789 14.6296 1.71907 14.6241 1.59768 14.4864C1.47629 14.3486 1.49286 14.1359 1.52601 13.7105L1.544 13.4794C1.63729 12.282 1.68394 11.6833 1.91776 11.1452C2.15158 10.607 2.55491 10.17 3.36157 9.29601L9.55109 2.58998Z" stroke="currentColor" stroke-width="1.5" stroke-linejoin="round"/>
<path d="M8.83594 2.66602L13.5026 7.33268" stroke="currentColor" stroke-width="1.5" stroke-linejoin="round"/>
<path d="M9.50195 14.666L14.8353 14.666" stroke="currentColor" stroke-width="1.5" stroke-linecap="round" stroke-linejoin="round"/>
</g>
<defs>
<clipPath id="clip0_5419_148235">
<rect width="16" height="16" fill="white" transform="translate(0.167969)"/>
</clipPath>
</defs>
</svg>
