<svg xmlns="http://www.w3.org/2000/svg" width="63" height="72" viewBox="0 0 63 72" fill="none">
  <path d="M40.6813 24.4789C34.7234 24.4789 33.3904 22.1989 33.2722 20.8789L19.4414 28.4389V38.7663L20.1507 48.9587L20.8599 52.5587L22.2785 54.3587L24.8414 55.0787H26.6414L29.5213 54.7187L32.0413 53.6387L40.6813 49.6787C43.2013 48.5987 44.7387 47.6387 44.6205 47.1587L43.2013 24.1189L40.6813 24.4789Z" fill="#47C0BA"/>
  <path d="M31.6659 23.606C30.0701 24.5036 28.3549 25.3387 26.7334 26.1826C25.1383 27.0129 23.5185 27.9455 21.8216 28.546C21.7041 28.5873 21.6089 28.4162 21.7199 28.3472C23.2518 27.3974 24.9704 26.6927 26.5928 25.9087C28.2396 25.1134 29.8617 24.2298 31.5074 23.4295C31.6008 23.3842 31.8578 23.4984 31.6659 23.606Z" fill="black"/>
  <path d="M32.3497 35.2924C32.2879 35.3823 32.3225 35.4771 33.5091 32.8162C33.9481 31.8314 34.3602 30.8168 34.8943 29.8782C35.032 29.6367 35.4069 29.5911 35.5593 29.8965C36.399 31.0909 37.1198 32.3635 37.7194 33.6951C37.7984 33.8704 37.6746 34.0964 37.5022 34.1556C36.557 34.4798 35.7562 34.9187 32.7433 35.867C32.3794 35.9819 32.1514 35.5825 32.3491 35.2939L32.3497 35.2924Z" fill="black"/>
  <path d="M33.2883 38.311C34.32 36.3326 37.2027 36.3645 38.1376 38.3307C38.7042 39.5212 38.2238 40.9518 37.2235 41.7501C36.3301 42.4639 35.0223 42.4234 34.102 41.7875C33.0096 41.0332 32.7197 39.4717 33.2883 38.311Z" fill="black"/>
  <path d="M33.8407 49.096C33.8738 46.1721 33.858 45.0461 33.8658 44.9676C33.853 44.827 33.9204 44.6876 34.1016 44.6393C35.3924 44.2919 36.6541 43.808 37.8999 43.3254C38.1132 43.2428 38.3704 43.4068 38.3806 43.6371C38.552 47.6727 38.6244 47.6369 38.2873 47.8869C38.0194 48.0862 37.623 48.1732 37.3145 48.2947C35.2349 49.1148 34.9081 49.2904 34.2268 49.4278C34.0468 49.4638 33.8389 49.273 33.8407 49.096Z" fill="black"/>
  <path d="M19.2 43.208C18.6424 33.1465 18.9263 28.7826 18.8237 28.1037C18.7582 27.6675 19.0236 27.2713 19.313 26.9736C21.178 25.0527 23.5127 23.7203 25.8408 22.433C28.3526 21.0446 30.9139 19.7484 33.5174 18.5422C33.7211 18.4473 33.9979 18.6329 33.998 18.8539C34 19.8732 34.0098 20.8913 34.0262 21.9103C34.3195 22.2658 34.7803 22.5263 35.1674 22.7274C37.2373 23.8034 39.5212 24.3687 41.8564 24.0926C42.2691 23.917 42.681 23.74 43.092 23.5602C43.5072 23.3786 43.7449 24.0206 43.3645 24.2233C43.821 29.9465 44.6585 44.2555 44.7343 45.678C44.8053 47.0092 44.9878 47.8467 43.766 48.5239C41.0633 50.0228 31.4254 54.4836 28.4177 55.1962C23.946 56.2555 20.9474 54.2605 20.1581 51.8803C19.5867 50.1574 19.3002 45.02 19.2 43.208ZM37.3962 24.3972C35.9247 25.3049 34.1282 25.9158 32.5848 26.6361C31.4834 27.1489 28.5491 28.4683 27.332 28.6823C27.2102 28.7038 27.1437 28.5124 27.2503 28.4516C28.2897 27.864 29.0562 27.783 32.3898 26.3107C33.8808 25.6522 35.3318 24.8457 36.8422 24.2232C35.4049 23.7398 33.3241 22.9483 33.0471 21.471C29.0917 23.3534 24.9988 25.4506 20.7604 27.8389C20.268 28.1159 19.7185 28.2968 20.0241 28.6722C20.3147 29.0301 20.7948 29.4111 21.445 29.6927C21.6418 29.5933 23.2141 28.9784 25.3942 27.997C26.8543 27.34 28.2279 26.5791 29.6903 25.9328C29.8273 25.8726 30.1306 26.0158 29.842 26.1813C27.5751 27.4848 22.9526 29.4733 22.0306 29.9033C23.5917 30.3535 25.5687 29.8373 27.175 29.3758C31.3786 28.1699 36.012 26.4983 40.0169 24.8605C39.1312 24.8062 38.2533 24.6451 37.3969 24.3964L37.3962 24.3972ZM21.0816 52.2618C21.8925 53.7717 23.5236 54.5546 25.1839 54.7597C25.0862 53.744 24.9891 52.7275 24.895 51.7114C24.2084 51.5496 22.5433 50.8047 22.2973 50.6738C21.6307 50.3184 20.9789 49.8723 20.3949 49.3583C20.4972 50.3485 20.6112 51.389 21.081 52.2633L21.0816 52.2618ZM20.3124 48.5725C20.4737 48.652 20.6036 48.8227 20.7314 48.9372C22.0634 50.1297 23.2405 50.5715 24.8494 51.2131C24.7991 50.663 24.7497 50.1137 24.7024 49.5642C23.1873 49.0173 21.6684 48.4476 20.1758 47.1091C20.2164 47.5978 20.2612 48.0854 20.3124 48.5725ZM21.1775 47.2074C22.5706 48.2704 23.727 48.7252 24.6633 49.105C24.2592 44.3325 23.9701 39.3513 24.1259 34.5639C24.1527 33.7336 24.151 32.8709 24.3394 32.0588C24.3657 31.9471 24.5266 31.9558 24.5397 32.0711C24.8215 34.5387 23.8093 35.4376 25.7021 54.8051C28.5721 54.9556 31.7638 53.354 34.272 52.2807C36.7235 51.2318 39.1495 50.1234 41.5463 48.9531C43.3353 48.0799 43.7507 47.8925 43.9676 47.609C44.2869 47.1913 44.2039 46.9521 43.967 42.5193C43.6433 36.4605 43.0935 30.4578 42.9505 24.3911C39.0906 26.0743 35.7447 27.3561 32.135 28.5669C30.1506 29.2332 26.0978 30.6089 24.016 30.7785C22.0088 30.9425 20.4537 30.2391 19.5572 29.2296C19.5184 35.0399 19.7939 42.0562 20.114 46.3008C20.4703 46.6016 20.8051 46.9236 21.1775 47.2074Z" fill="black"/>
  <path d="M36.1785 58.8841C35.5967 62.2638 35.3733 70.0038 35.6118 71.8406C35.6383 72.0464 35.916 72.0527 35.9374 71.8406C36.0743 70.4524 35.9475 69.4756 36.0832 65.3703C36.1545 63.2173 36.357 61.0668 36.3968 58.9138C36.3993 58.792 36.1999 58.7585 36.1785 58.8841Z" fill="black"/>
  <path d="M50.4601 52.2269C51.1511 53.0623 51.6029 53.458 55.3176 57.073C56.9191 58.6316 58.4726 60.3247 60.2578 61.675C60.418 61.7962 60.5676 61.5488 60.4578 61.4157C59.2532 59.9504 51.4786 52.6768 50.6179 52.0218C50.4917 51.9259 50.3724 52.1215 50.4595 52.2269H50.4601Z" fill="black"/>
  <path d="M54.2154 42.7502C61.142 43.445 61.7749 43.9637 62.7618 43.8785C62.929 43.864 63.0331 43.6242 62.8552 43.5339C62.2267 43.2159 61.3982 43.1724 60.7098 43.0626C58.3662 42.6903 56.2612 42.5155 54.2154 42.4688C54.0312 42.4644 54.0388 42.7326 54.2154 42.7502Z" fill="black"/>
  <path d="M23.7747 59.2282C22.8281 64.2649 22.3172 64.7001 22.354 65.4279C22.3603 65.5512 22.5794 65.6406 22.6712 65.5152C22.9948 65.0722 23.0711 64.4676 23.2032 63.9692C23.6514 62.2727 23.9052 60.74 24.0371 59.2437C24.0491 59.109 23.7988 59.0998 23.7747 59.2282Z" fill="black"/>
  <path d="M11.3494 40.6146C6.42577 42.0366 5.80719 41.7763 5.17392 42.1368C5.06665 42.198 5.08538 42.4338 5.2387 42.4593C5.77994 42.5489 6.35422 42.3449 6.85867 42.2384C8.57542 41.8749 10.0583 41.4116 11.4537 40.8558C11.5795 40.8059 11.475 40.5782 11.3494 40.6146Z" fill="black"/>
  <path d="M50.9032 19.1373C52.4707 17.8184 58.6451 12.5192 59.0407 12.1747C59.4048 11.8586 59.808 11.5589 60.0806 11.1569C60.1803 11.0099 59.991 10.8635 59.8547 10.931C59.4187 11.1468 59.0634 11.5166 58.7 11.834C58.3245 12.1621 52.2189 17.5648 50.7007 18.9347C50.5625 19.059 50.7638 19.254 50.9026 19.1366L50.9032 19.1373Z" fill="black"/>
  <path d="M6.97415 61.631C8.69451 60.519 15.4844 56.0355 15.9201 55.7432C16.321 55.4752 16.7585 55.2284 17.0794 54.8638C17.1967 54.7304 17.0272 54.5614 16.8836 54.6113C16.4239 54.7708 16.0251 55.0931 15.6248 55.3625C15.2111 55.6409 8.47651 60.2358 6.79858 61.4046C6.6459 61.5106 6.82117 61.7293 6.97361 61.6303L6.97415 61.631Z" fill="black"/>
  <path d="M32.4858 12.1809C32.7767 9.62975 32.9244 7.13348 33.1875 3.29504C33.2153 2.89372 33.3024 2.46022 33.1875 2.069C33.149 1.93775 32.9313 1.88222 32.8676 2.02735C32.7231 2.3561 32.7597 2.26271 32.4701 6.99087C32.3641 8.72046 32.2719 10.4482 32.2442 12.1809C32.2416 12.3399 32.4688 12.3317 32.4858 12.1809Z" fill="black"/>
  <path d="M10.2684 26.7406C7.70325 26.6273 5.20276 26.653 1.35531 26.6565C0.953034 26.6566 0.514539 26.5998 0.132214 26.7415C0.00394797 26.789 -0.0363594 27.01 0.11284 27.0635C0.450819 27.1849 0.355117 27.1548 5.09198 27.1161C6.82476 27.102 8.55469 27.0741 10.2852 26.9817C10.444 26.9732 10.4201 26.7472 10.2684 26.7406Z" fill="black"/>
  <path d="M21.7955 13.4892C20.9474 10.124 18.9383 4.75665 17.6485 1.53471C17.4648 1.07597 17.3203 0.390063 16.9443 0.0549985C16.8124 -0.0629999 16.6136 0.0202931 16.6035 0.196344C16.5758 0.677172 16.8162 0.641205 19.0973 6.80679C19.9277 9.05128 20.6628 11.3305 21.5147 13.5668C21.5803 13.7384 21.8421 13.6747 21.7955 13.4892Z" fill="black"/>
  <path d="M15.0202 16.3825C12.4179 16.3157 12.0507 15.6499 11.7023 13.9052C11.6317 13.5544 11.0745 13.6364 11.0827 13.9891C11.1174 15.5117 9.83329 17.1057 8.23053 17.0546C7.8778 17.0432 7.79766 17.5941 8.14661 17.6742C10.6138 18.2409 10.9962 18.4567 11.6241 20.4872C11.7263 20.8173 12.2551 20.7706 12.2437 20.4033C12.2204 19.6631 12.5125 18.8738 12.8937 18.2491C13.3442 17.5108 14.1671 17.0678 15.0208 17.0129C15.4234 16.987 15.4303 16.3926 15.0208 16.3819L15.0202 16.3825ZM11.7945 19.1438C11.3149 18.1393 10.7312 17.7064 9.62695 17.3808C10.4586 16.9782 11.1224 16.2191 11.4632 15.3477C11.7768 16.0481 12.2734 16.6015 13.4433 16.8596C12.5933 17.3593 12.0797 18.1992 11.7945 19.1438Z" fill="black"/>
  <path d="M6.54992 43.9512C4.95787 42.6993 5.05404 42.0911 5.68956 40.7821C5.81696 40.5185 5.42898 40.3138 5.26165 40.5496C4.53891 41.567 2.95791 42.0191 1.9822 41.2415C1.76753 41.0703 1.44817 41.3953 1.62686 41.61C2.89027 43.1279 3.02352 43.4473 2.42278 45.074C2.32526 45.3385 2.67824 45.5532 2.85069 45.3065C3.19798 44.8089 3.76632 44.4254 4.30969 44.1915C4.95193 43.9152 5.68224 44.0059 6.24213 44.3661C6.50613 44.5359 6.80107 44.1483 6.55063 43.9511L6.54992 43.9512ZM3.18594 44.2697C3.37765 43.3865 3.22485 42.8309 2.69458 42.1042C3.41066 42.2255 4.19624 42.0345 4.83502 41.6196C4.6884 42.2258 4.7279 42.8202 5.33216 43.533C4.55714 43.467 3.82584 43.7809 3.18594 44.2697Z" fill="black"/>
  <path d="M62.2532 26.3433C59.6509 26.277 59.2843 25.6107 58.9354 23.8659C58.8653 23.5151 58.3075 23.5978 58.3157 23.9499C58.3498 25.4718 57.0657 27.067 55.463 27.0153C55.1102 27.0039 55.0301 27.5548 55.379 27.6349C57.8305 28.1997 58.2268 28.4117 58.8565 30.448C58.9587 30.778 59.4875 30.7313 59.4762 30.364C59.4528 29.6239 59.745 28.8345 60.1261 28.2104C60.5766 27.4721 61.3995 27.0285 62.2532 26.9743C62.6558 26.9484 62.6627 26.354 62.2532 26.3433ZM59.0275 29.1046C58.5479 28.1 57.9643 27.6678 56.86 27.3422C57.691 26.9396 58.3555 26.1798 58.6962 25.3084C59.0534 26.1066 59.6017 26.5837 60.6763 26.8203C59.8264 27.3194 59.3127 28.1612 59.0275 29.1046Z" fill="black"/>
  <path d="M49.0703 64.7497C46.4762 64.6835 46.1033 64.026 45.7518 62.2724C45.6818 61.9215 45.1239 62.0036 45.1322 62.3563C45.1662 63.8789 43.8821 65.4729 42.2794 65.4217C41.9266 65.4104 41.8465 65.9613 42.1954 66.0414C44.6463 66.6061 45.0438 66.8175 45.6729 68.8544C45.7751 69.1844 46.3039 69.1378 46.2926 68.7705C46.2692 68.0303 46.5614 67.2416 46.9425 66.6169C47.393 65.8786 48.2152 65.435 49.0696 65.3807C49.4722 65.3549 49.4792 64.7605 49.0696 64.7497H49.0703ZM45.8446 67.5116C45.3656 66.5071 44.7807 66.0742 43.6764 65.7486C44.5081 65.346 45.1719 64.5863 45.5133 63.7149C45.8748 64.5245 46.4314 64.9933 47.4934 65.2268C46.6472 65.7246 46.131 66.5639 45.8446 67.5116Z" fill="black"/>
</svg>