<svg xmlns="http://www.w3.org/2000/svg" width="43" height="43" viewBox="0 0 43 43" fill="none">
  <path d="M42.9766 21.0069C42.9766 31.6164 35.1145 40.3874 24.9011 41.8107C23.9461 41.9432 22.9691 42.0124 21.9773 42.0124C20.8325 42.0124 19.7083 41.9211 18.6135 41.7445C8.61346 40.1342 0.976562 31.4618 0.976562 21.0069C0.976562 9.40542 10.3792 0 21.9758 0C33.5724 0 42.9766 9.40542 42.9766 21.0069Z" fill="#1877F2"/>
  <path d="M24.9053 16.8666V21.4427H30.5645L29.6684 27.607H24.9053V41.8094C23.9503 41.9418 22.9733 42.011 21.9815 42.011C20.8367 42.011 19.7125 41.9198 18.6177 41.7431V27.607H13.3984V21.4427H18.6177V15.8436C18.6177 12.3699 21.4326 9.55273 24.9068 9.55273V9.55568C24.9171 9.55568 24.9259 9.55273 24.9362 9.55273H30.566V14.8839H26.8873C25.7941 14.8839 24.9068 15.7715 24.9068 16.8651L24.9053 16.8666Z" fill="white"/>
</svg>