<svg width="24" height="25" viewBox="0 0 24 25" fill="none" xmlns="http://www.w3.org/2000/svg">
<path d="M14.1706 21.5113C18.3536 21.2332 21.6856 17.854 21.9598 13.6116C22.0134 12.7814 22.0134 11.9217 21.9598 11.0915C21.6856 6.8491 18.3536 3.46986 14.1706 3.1918C12.7435 3.09694 11.2536 3.09713 9.8294 3.1918C5.64639 3.46986 2.31441 6.8491 2.04024 11.0915C1.98659 11.9217 1.98659 12.7814 2.04024 13.6116C2.1401 15.1567 2.82343 16.5873 3.62791 17.7953C4.09501 18.641 3.78674 19.6966 3.30021 20.6185C2.94941 21.2833 2.77401 21.6157 2.91484 21.8558C3.05568 22.0959 3.37026 22.1036 3.99943 22.1189C5.24367 22.1492 6.08268 21.7965 6.74868 21.3054C7.1264 21.0268 7.31527 20.8875 7.44544 20.8715C7.5756 20.8555 7.83177 20.961 8.34401 21.172C8.8044 21.3616 9.33896 21.4787 9.8294 21.5113C11.2536 21.6059 12.7435 21.6061 14.1706 21.5113Z" stroke="black" stroke-width="1.5" stroke-linejoin="round"/>
<path d="M10.5 10.1592C10.5 9.30952 11.1716 8.62073 12 8.62073C12.8284 8.62073 13.5 9.30952 13.5 10.1592C13.5 10.4655 13.4127 10.7508 13.2623 10.9906C12.8141 11.7051 12 12.3864 12 13.2361V13.6207" stroke="black" stroke-width="1.5" stroke-linecap="round"/>
<path d="M12 15.6207H12.009" stroke="black" stroke-width="1.5" stroke-linecap="round" stroke-linejoin="round"/>
</svg>
