<svg xmlns="http://www.w3.org/2000/svg" width="18" height="19" viewBox="0 0 18 19" fill="none">
  <path d="M9.83594 3.33398L1.5026 3.33398" stroke="black" stroke-width="1.5" stroke-linecap="round" stroke-linejoin="round"/>
  <path d="M8.16406 15.834L1.4974 15.834" stroke="black" stroke-width="1.5" stroke-linecap="round" stroke-linejoin="round"/>
  <path d="M16.5 15.834L13.1667 15.834" stroke="black" stroke-width="1.5" stroke-linecap="round" stroke-linejoin="round"/>
  <path d="M16.5 9.58398L8.16667 9.58398" stroke="black" stroke-width="1.5" stroke-linecap="round" stroke-linejoin="round"/>
  <path d="M16.5 3.33398L14.8333 3.33398" stroke="black" stroke-width="1.5" stroke-linecap="round" stroke-linejoin="round"/>
  <path d="M3.16406 9.58398L1.4974 9.58398" stroke="black" stroke-width="1.5" stroke-linecap="round" stroke-linejoin="round"/>
  <path d="M11.0859 1.66699C11.4742 1.66699 11.6684 1.66699 11.8215 1.73043C12.0257 1.815 12.1879 1.97723 12.2725 2.18142C12.3359 2.33457 12.3359 2.52871 12.3359 2.91699L12.3359 3.75033C12.3359 4.13861 12.3359 4.33275 12.2725 4.4859C12.1879 4.69009 12.0257 4.85231 11.8215 4.93689C11.6684 5.00033 11.4742 5.00033 11.0859 5.00033C10.6977 5.00033 10.5035 5.00033 10.3504 4.93689C10.1462 4.85231 9.98395 4.69009 9.89937 4.4859C9.83594 4.33275 9.83594 4.13861 9.83594 3.75033L9.83594 2.91699C9.83594 2.52871 9.83594 2.33457 9.89937 2.18142C9.98395 1.97723 10.1462 1.815 10.3504 1.73043C10.5035 1.66699 10.6977 1.66699 11.0859 1.66699Z" stroke="black" stroke-width="1.5" stroke-linecap="round" stroke-linejoin="round"/>
  <path d="M9.41406 14.167C9.80235 14.167 9.99649 14.167 10.1496 14.2304C10.3538 14.315 10.5161 14.4772 10.6006 14.6814C10.6641 14.8346 10.6641 15.0287 10.6641 15.417L10.6641 16.2503C10.6641 16.6386 10.6641 16.8328 10.6006 16.9859C10.5161 17.1901 10.3538 17.3523 10.1496 17.4369C9.99649 17.5003 9.80235 17.5003 9.41406 17.5003C9.02578 17.5003 8.83164 17.5003 8.67849 17.4369C8.4743 17.3523 8.31207 17.1901 8.2275 16.9859C8.16406 16.8328 8.16406 16.6386 8.16406 16.2503L8.16406 15.417C8.16406 15.0287 8.16406 14.8346 8.2275 14.6814C8.31207 14.4772 8.4743 14.315 8.67849 14.2304C8.83164 14.167 9.02578 14.167 9.41406 14.167Z" stroke="black" stroke-width="1.5" stroke-linecap="round" stroke-linejoin="round"/>
  <path d="M6.91406 7.91699C7.30235 7.91699 7.49649 7.91699 7.64963 7.98043C7.85382 8.065 8.01605 8.22723 8.10063 8.43142C8.16406 8.58457 8.16406 8.77871 8.16406 9.16699L8.16406 10.0003C8.16406 10.3886 8.16406 10.5828 8.10063 10.7359C8.01605 10.9401 7.85382 11.1023 7.64963 11.1869C7.49649 11.2503 7.30235 11.2503 6.91406 11.2503C6.52578 11.2503 6.33164 11.2503 6.17849 11.1869C5.9743 11.1023 5.81207 10.9401 5.7275 10.7359C5.66406 10.5828 5.66406 10.3886 5.66406 10.0003L5.66406 9.16699C5.66406 8.77871 5.66406 8.58457 5.7275 8.43142C5.81207 8.22723 5.9743 8.065 6.17849 7.98043C6.33164 7.91699 6.52578 7.91699 6.91406 7.91699Z" stroke="black" stroke-width="1.5" stroke-linecap="round" stroke-linejoin="round"/>
</svg>