<svg width="15" height="15" viewBox="0 0 15 15" fill="none" xmlns="http://www.w3.org/2000/svg">
<path d="M13.666 9.55253C11.9983 13.5046 6.57539 14.6563 3.46697 11.5767C0.419005 8.55711 1.36263 3.08654 5.37037 1.33398" stroke="currentColor" stroke-width="1.5" stroke-linecap="round"/>
<path d="M11.7881 7.33366C13.0465 7.33366 13.6757 7.33366 14.0821 6.77031C14.0973 6.74926 14.1225 6.71149 14.1362 6.6894C14.5011 6.09839 14.313 5.64432 13.9369 4.73618C13.5958 3.91268 13.0958 3.16443 12.4655 2.53415C11.8352 1.90387 11.087 1.4039 10.2635 1.06279C9.35535 0.686631 8.90128 0.498548 8.31027 0.863505C8.28819 0.877143 8.25041 0.902383 8.22936 0.917569C7.66602 1.32393 7.66602 1.95314 7.66602 3.21157V4.61865C7.66602 5.89851 7.66602 6.53845 8.06362 6.93605C8.46122 7.33366 9.10116 7.33366 10.381 7.33366H11.7881Z" fill="currentColor"/>
</svg>
