<svg xmlns="http://www.w3.org/2000/svg" width="22" height="23" viewBox="0 0 22 23" fill="none">
  <path d="M17 1.62109V3.62109M5 1.62109V3.62109" stroke="black" stroke-width="1.5" stroke-linecap="round" stroke-linejoin="round"/>
  <path d="M10.9955 12.6211H11.0045M10.9955 16.6211H11.0045M14.991 12.6211H15M7 12.6211H7.00897M7 16.6211H7.00897" stroke="black" stroke-width="2" stroke-linecap="round" stroke-linejoin="round"/>
  <path d="M2.5 7.62109H19.5" stroke="black" stroke-width="1.5" stroke-linecap="round" stroke-linejoin="round"/>
  <path d="M1.5 11.8643C1.5 7.50703 1.5 5.32838 2.75212 3.97474C4.00424 2.62109 6.01949 2.62109 10.05 2.62109H11.95C15.9805 2.62109 17.9958 2.62109 19.2479 3.97474C20.5 5.32838 20.5 7.50703 20.5 11.8643V12.3779C20.5 16.7352 20.5 18.9138 19.2479 20.2675C17.9958 21.6211 15.9805 21.6211 11.95 21.6211H10.05C6.01949 21.6211 4.00424 21.6211 2.75212 20.2675C1.5 18.9138 1.5 16.7352 1.5 12.3779V11.8643Z" stroke="black" stroke-width="1.5" stroke-linecap="round" stroke-linejoin="round"/>
  <path d="M2 7.62109H20" stroke="black" stroke-width="1.5" stroke-linecap="round" stroke-linejoin="round"/>
</svg>