<svg width="18" height="16" viewBox="0 0 18 16" fill="none" xmlns="http://www.w3.org/2000/svg">
<path d="M0.713535 14.5617L2.33675 1.91719C2.48509 0.761648 2.77816 0.5 3.96288 0.5C5.1476 0.5 5.44067 0.761647 5.58901 1.91719L7.33268 15.5L1.54927 15.5C1.10369 15.5 0.880905 15.5 0.755122 15.3588C0.629339 15.2176 0.657404 14.9989 0.713535 14.5617Z" stroke="#1E417C" stroke-linecap="round" stroke-linejoin="round"/>
<path d="M7.46143 15.4997L16.5 15.4997C16.8928 15.4997 17.0893 15.4997 17.2113 15.3776C17.3333 15.2556 17.3333 15.0592 17.3333 14.6663V3.83301L13.7002 6.86066C13.1089 7.35341 12.8132 7.59978 12.5733 7.4874C12.3333 7.37502 12.3333 6.99017 12.3333 6.22047V3.83301L8.62663 6.52879C8.19198 6.8449 7.97466 7.00295 7.72343 7.08465C7.47221 7.16634 7.20349 7.16634 6.66605 7.16634H6.5" stroke="#1E417C" stroke-linecap="round" stroke-linejoin="round"/>
<path d="M2.33203 3L5.66536 3" stroke="#4B5565" stroke-linecap="round" stroke-linejoin="round"/>
<path d="M9 10.5L10.6667 10.5" stroke="#4B5565" stroke-linecap="round" stroke-linejoin="round"/>
<path d="M13.166 10.5H14.8327" stroke="#4B5565" stroke-linecap="round" stroke-linejoin="round"/>
</svg>
