<svg xmlns="http://www.w3.org/2000/svg" width="42" height="42" viewBox="0 0 42 42" fill="none">
  <path d="M21.0338 0.00585938H20.9382C9.37004 0.00585938 -0.0078125 9.38647 -0.0078125 20.958V21.0537C-0.0078125 32.6253 9.37004 42.0059 20.9382 42.0059H21.0338C32.602 42.0059 41.9798 32.6253 41.9798 21.0537V20.958C41.9798 9.38647 32.602 0.00585938 21.0338 0.00585938Z" fill="url(#paint0_linear_2021_39301)"/>
  <path d="M27.4858 8.55078H14.4937C10.9044 8.55078 7.98438 11.4716 7.98438 15.062V26.9514C7.98438 30.5418 10.9044 33.4627 14.4937 33.4627H27.4858C31.0751 33.4627 33.9951 30.5418 33.9951 26.9514V15.062C33.9951 11.4716 31.0751 8.55078 27.4858 8.55078ZM10.2807 15.062C10.2807 12.7386 12.1709 10.8477 14.4937 10.8477H27.4858C29.8086 10.8477 31.6989 12.7386 31.6989 15.062V26.9514C31.6989 29.2749 29.8086 31.1657 27.4858 31.1657H14.4937C12.1709 31.1657 10.2807 29.2749 10.2807 26.9514V15.062Z" fill="white"/>
  <path d="M20.9923 27.0623C24.33 27.0623 27.047 24.346 27.047 21.0058C27.047 17.6655 24.3315 14.9492 20.9923 14.9492C17.653 14.9492 14.9375 17.6655 14.9375 21.0058C14.9375 24.346 17.653 27.0623 20.9923 27.0623ZM20.9923 17.2476C23.065 17.2476 24.7508 18.9339 24.7508 21.0072C24.7508 23.0805 23.065 24.7668 20.9923 24.7668C18.9196 24.7668 17.2338 23.0805 17.2338 21.0072C17.2338 18.9339 18.9196 17.2476 20.9923 17.2476Z" fill="white"/>
  <path d="M27.6079 15.9258C28.5067 15.9258 29.2393 15.1945 29.2393 14.294C29.2393 13.3934 28.5082 12.6621 27.6079 12.6621C26.7077 12.6621 25.9766 13.3934 25.9766 14.294C25.9766 15.1945 26.7077 15.9258 27.6079 15.9258Z" fill="white"/>
  <defs>
    <linearGradient id="paint0_linear_2021_39301" x1="6.12639" y1="35.8699" x2="35.8544" y2="6.15209" gradientUnits="userSpaceOnUse">
      <stop stop-color="#FAAD4F"/>
      <stop offset="0.35" stop-color="#DD2A7B"/>
      <stop offset="0.62" stop-color="#9537B0"/>
      <stop offset="1" stop-color="#515BD4"/>
    </linearGradient>
  </defs>
</svg>