
<svg width="20" height="21" viewBox="0 0 20 21" fill="none" xmlns="http://www.w3.org/2000/svg">
<g id="Group">
<path id="Vector" d="M18.1453 13.4908C18.4053 13.7308 18.6153 14.0208 18.7653 14.3508C18.9153 14.6708 18.9953 15.0308 19.0053 15.3808C19.0053 17.7208 15.2153 19.6208 10.4753 19.6208C5.73528 19.6208 1.94531 17.7308 1.94531 15.3808C1.94531 14.2908 2.7653 13.3008 4.1153 12.5508" stroke="black" stroke-width="1.5" stroke-miterlimit="10" stroke-linecap="round"/>
<path id="Vector_2" d="M2.22209 9.23343C2.07209 10.3534 2.8221 11.5335 4.1121 12.5135C5.8121 13.6935 7.7521 14.4735 9.7921 14.7935C13.3521 15.4135 16.5821 14.8434 18.0721 13.5034C18.5021 13.1434 18.7921 12.6434 18.9021 12.0934C19.1421 10.6634 17.9421 9.15344 15.8821 8.02344" stroke="black" stroke-width="1.5" stroke-miterlimit="10" stroke-linecap="round"/>
<path id="Vector_3" d="M10.1433 10.2327C14.7633 9.42266 18.1833 6.89266 17.7733 4.58266C17.3633 2.27266 13.2833 1.06267 8.66328 1.87267C4.04328 2.68267 0.623333 5.21266 1.03333 7.52266C1.44333 9.83266 5.51332 11.0427 10.1433 10.2327Z" stroke="black" stroke-width="1.5" stroke-miterlimit="10" stroke-linecap="round"/>
</g>
</svg>
