<svg xmlns="http://www.w3.org/2000/svg" width="22" height="23" viewBox="0 0 22 23" fill="none">
  <path d="M8 4.12109C4.50442 5.32213 2 8.56285 2 12.3722C2 13.579 2.25134 14.7287 2.70591 15.7745M14 4.12109C17.4956 5.32213 20 8.56285 20 12.3722C20 13.3947 19.8195 14.3763 19.4879 15.2885M15.5 19.9506C14.1762 20.695 12.6393 21.1211 11 21.1211C9.36071 21.1211 7.82378 20.695 6.5 19.9506" stroke="#1E417C" stroke-width="1.5"/>
  <path d="M14 4.62109C14 6.27795 12.6569 7.62109 11 7.62109C9.34315 7.62109 8 6.27795 8 4.62109C8 2.96424 9.34315 1.62109 11 1.62109C12.6569 1.62109 14 2.96424 14 4.62109Z" stroke="#1E417C" stroke-width="1.5"/>
  <circle cx="4" cy="18.6211" r="3" stroke="#1E417C" stroke-width="1.5"/>
  <circle cx="18" cy="18.6211" r="3" stroke="#1E417C" stroke-width="1.5"/>
</svg>