
<svg width="22" height="21" viewBox="0 0 22 21" fill="none" xmlns="http://www.w3.org/2000/svg">
<g id="elements">
<path id="Vector" d="M15.6127 14.7057C12.9796 16.1888 11.4773 19.262 11 20.1211V6.62109C11.4145 5.87505 12.602 3.73756 14.6317 2.28478C15.4868 1.67276 15.9143 1.36675 16.4572 1.64578C17 1.92481 17 2.54072 17 3.77255V12.6125C17 13.2779 17 13.6106 16.8634 13.8444C16.7267 14.0782 16.3554 14.2874 15.6127 14.7057L15.6127 14.7057Z" stroke="black" stroke-width="1.5" stroke-linecap="round" stroke-linejoin="round"/>
<path id="Vector_2" d="M11 6.42665C10.3131 5.70512 8.32175 3.99149 4.98056 3.39067C3.2879 3.08629 2.44157 2.93411 1.72078 3.51742C1 4.10074 1 5.04797 1 6.94243V13.7508C1 15.483 1 16.3491 1.4626 16.8898C1.9252 17.4306 2.94365 17.6137 4.98056 17.98C6.79633 18.3065 8.21344 18.8268 9.23918 19.3495C10.2484 19.8639 10.753 20.1211 11 20.1211C11.247 20.1211 11.7516 19.8639 12.7608 19.3495C13.7866 18.8268 15.2037 18.3065 17.0194 17.98C19.0564 17.6137 20.0748 17.4306 20.5374 16.8898C21 16.3491 21 15.483 21 13.7508V6.94243C21 5.04797 21 4.10074 20.2792 3.51742C19.5584 2.93411 18 3.39067 17 4.12109" stroke="black" stroke-width="1.5" stroke-linecap="round" stroke-linejoin="round"/>
</g>
</svg>
