
<svg width="18" height="20" viewBox="0 0 18 20" fill="none" xmlns="http://www.w3.org/2000/svg">
<g id="elements">
<path id="Vector" d="M16.4542 14.0282C15.9073 10.7375 14.2046 8.28714 12.7244 6.84787C12.2937 6.42905 12.0783 6.21964 11.6026 6.02584C11.1269 5.83203 10.7179 5.83203 9.9001 5.83203H8.1038C7.28596 5.83203 6.87703 5.83203 6.4013 6.02584C5.92557 6.21964 5.71021 6.42905 5.27949 6.84787C3.7993 8.28714 2.09662 10.7375 1.54968 14.0282C1.14273 16.4766 3.40135 18.332 5.92555 18.332H12.0783C14.6026 18.332 16.8612 16.4766 16.4542 14.0282Z" stroke="currentColor" stroke-width="1.5" stroke-linecap="round"/>
<path id="Vector_2" d="M9.67819 9.16406C9.67819 8.74985 9.3424 8.41406 8.92819 8.41406C8.51397 8.41406 8.17819 8.74985 8.17819 9.16406L9.67819 9.16406ZM8.17819 14.9974C8.17819 15.4116 8.51397 15.7474 8.92819 15.7474C9.3424 15.7474 9.67819 15.4116 9.67819 14.9974H8.17819ZM9.72251 10.8679C9.97317 11.1977 10.4437 11.2618 10.7735 11.0112C11.1032 10.7605 11.1674 10.29 10.9167 9.96021L9.72251 10.8679ZM8.04001 13.3228C7.73135 13.0465 7.25721 13.0728 6.98098 13.3815C6.70474 13.6901 6.73102 14.1643 7.03968 14.4405L8.04001 13.3228ZM8.92819 11.2468C8.39683 11.2468 8.18184 11.1591 8.11533 11.1143C8.10882 11.1099 8.10466 11.1065 8.10225 11.1044C8.09987 11.1024 8.09883 11.1012 8.09864 11.101C8.09846 11.1007 8.09861 11.1009 8.09885 11.1013C8.09908 11.1016 8.09896 11.1015 8.09851 11.1006C8.09742 11.0983 8.08398 11.0687 8.08398 10.9886H6.58398C6.58398 11.5052 6.77309 12.0187 7.27728 12.3584C7.71801 12.6553 8.30013 12.7468 8.92819 12.7468V11.2468ZM8.08398 10.9886C8.08398 10.9581 8.09912 10.8689 8.24621 10.7604C8.39305 10.652 8.63171 10.5623 8.92819 10.5623V9.06234C8.34421 9.06234 7.78577 9.23598 7.35563 9.55335C6.92572 9.87055 6.58398 10.3695 6.58398 10.9886H8.08398ZM9.91732 13.1731C9.91732 13.263 9.89783 13.3079 9.88414 13.3312C9.86927 13.3565 9.83938 13.3928 9.77175 13.4334C9.62063 13.5242 9.34025 13.5994 8.92819 13.5994V15.0994C9.47662 15.0994 10.0658 15.0066 10.5441 14.7192C11.0679 14.4046 11.4173 13.8753 11.4173 13.1731H9.91732ZM8.92819 12.7468C9.46559 12.7468 9.71931 12.8306 9.82282 12.8981C9.8608 12.9229 9.87419 12.9423 9.88359 12.9617C9.89577 12.9869 9.91732 13.0481 9.91732 13.1731H11.4173C11.4173 12.5535 11.1859 11.9963 10.6422 11.6417C10.1661 11.3311 9.55021 11.2468 8.92819 11.2468V12.7468ZM9.67819 9.81234L9.67819 9.16406L8.17819 9.16406L8.17819 9.81234L9.67819 9.81234ZM8.17819 14.3494V14.9974H9.67819V14.3494H8.17819ZM8.92819 10.5623C9.34349 10.5623 9.62018 10.7333 9.72251 10.8679L10.9167 9.96021C10.4732 9.3767 9.70818 9.06234 8.92819 9.06234V10.5623ZM8.92819 13.5994C8.50822 13.5994 8.19443 13.461 8.04001 13.3228L7.03968 14.4405C7.5202 14.8706 8.21388 15.0994 8.92819 15.0994V13.5994Z" fill="currentColor"/>
<path id="Vector_3" d="M5.04588 3.70369C4.87396 3.45345 4.62476 3.1138 5.13953 3.03634C5.66863 2.95673 6.21804 3.31892 6.75582 3.31148C7.24234 3.30474 7.4902 3.08896 7.75612 2.78087C8.03614 2.45645 8.46972 1.66797 8.9987 1.66797C9.52768 1.66797 9.96125 2.45645 10.2413 2.78087C10.5072 3.08896 10.7551 3.30474 11.2416 3.31148C11.7794 3.31892 12.3288 2.95673 12.8579 3.03634C13.3726 3.1138 13.1234 3.45345 12.9515 3.70369L12.1742 4.83517C11.8416 5.31919 11.6753 5.5612 11.3274 5.69792C10.9795 5.83463 10.5298 5.83464 9.63053 5.83464H8.36687C7.46758 5.83464 7.01794 5.83463 6.66999 5.69792C6.32204 5.5612 6.15578 5.31919 5.82324 4.83517L5.04588 3.70369Z" stroke="currentColor" stroke-width="1.5"/>
</g>
</svg>
