<svg xmlns="http://www.w3.org/2000/svg" width="14" height="13" viewBox="0 0 14 13" fill="none">
  <path d="M4.78711 9.98665L6.44044 11.2667C6.65378 11.48 7.13378 11.5867 7.45378 11.5867H9.48044C10.1204 11.5867 10.8138 11.1067 10.9738 10.4667L12.2538 6.57332C12.5204 5.82665 12.0404 5.18665 11.2404 5.18665H9.10711C8.78711 5.18665 8.52044 4.91999 8.57378 4.54665L8.84044 2.83999C8.94711 2.35999 8.62711 1.82665 8.14711 1.66665C7.72044 1.50665 7.18711 1.71999 6.97378 2.03999L4.78711 5.29332" stroke="#4B5565" stroke-width="0.8" stroke-miterlimit="10"/>
  <path d="M2.06836 9.9867V4.76004C2.06836 4.01337 2.38836 3.7467 3.13503 3.7467H3.66836C4.41503 3.7467 4.73503 4.01337 4.73503 4.76004V9.9867C4.73503 10.7334 4.41503 11 3.66836 11H3.13503C2.38836 11 2.06836 10.7334 2.06836 9.9867Z" stroke="#4B5565" stroke-width="0.8" stroke-linecap="round" stroke-linejoin="round"/>
</svg>