<svg xmlns="http://www.w3.org/2000/svg" width="73" height="99" viewBox="0 0 73 99" fill="none">
  <path d="M60.6342 28.5325C60.6092 27.9394 60.6592 27.3463 60.7965 26.772C62.607 26.8906 64.3988 27.1278 66.178 27.4837C65.9096 27.4962 65.6536 27.5836 65.4289 27.7334C65.2104 27.8832 65.0355 28.0955 64.9294 28.339C63.2813 32.2658 62.6257 47.4926 61.3584 53.1738C60.6904 56.1642 60.0286 61.2085 57.419 62.7755C56.982 63.0378 54.2039 62.9191 50.1709 62.6257C58.0621 58.0683 57.3441 48.4041 56.3452 46.1379C58.0746 43.3972 59.5042 37.8721 58.9798 32.4032C59.5479 31.935 59.9912 31.3419 60.2784 30.6676C60.5655 29.9934 60.6904 29.2629 60.6342 28.5325ZM55.7397 24.281C60.1098 29.5626 59.1109 41.4806 55.7397 46.2065C54.9218 47.3615 50.6266 47.7111 46.1504 48.4353L44.4023 48.5976C44.2837 48.223 43.9965 47.399 43.3473 45.4761C47.8485 42.8478 49.3468 43.9091 49.3655 43.2973C49.6028 37.2603 50.4269 27.1903 55.7397 24.281ZM36.8358 91.8993C36.1678 92.0429 35.3749 92.1802 34.6445 92.2614C33.2648 87.5978 29.3566 64.6734 30.7863 60.5343C31.729 57.7811 41.2309 51.9813 43.9965 50.5017C46.9495 50.3394 49.89 49.9773 52.793 49.4217C52.9803 49.3718 53.1675 49.3405 53.2175 49.1657C53.3486 48.7162 53.3486 48.2418 53.2175 47.7923C54.1727 47.555 53.9542 47.5738 54.0166 47.5738C54.7533 55.3151 44.5959 55.5648 37.4164 60.0598C33.5707 62.5071 36.817 91.6621 36.8358 91.8993ZM39.333 10.9147C39.5515 10.2467 40.1134 9.84712 40.2819 9.08547C40.3693 9.5974 40.6253 10.0719 40.9936 10.4402C41.3682 10.8023 41.8489 11.0458 42.3609 11.1207C42.6917 11.2081 43.5033 11.0645 43.984 11.1519C44.7769 11.951 44.9018 12.5441 46.3002 12.825C46.4251 12.9811 46.475 13.4056 46.6623 13.6928C46.706 13.774 46.7622 13.8427 46.8371 13.8988C46.912 13.955 46.9932 13.9862 47.0868 13.9987C47.1742 14.0112 47.2679 14.005 47.3553 13.98C47.4427 13.9488 47.5176 13.9051 47.58 13.8427C47.8298 13.5305 47.7923 12.6939 48.0607 12.5941C49.2469 12.1133 49.5341 13.6491 49.1033 14.4108C48.8224 14.8415 48.4291 15.1912 47.9608 15.4034C47.9234 15.4159 47.8922 15.4409 47.8672 15.4721C47.8422 15.5033 47.8298 15.5408 47.8235 15.5782C47.8235 15.5158 47.3178 20.0045 48.1606 21.2719C49.1658 22.7764 51.7067 22.2208 53.1238 22.5205C48.1294 26.5098 46.0318 30.0121 43.0975 30.4304C41.3932 29.1194 40.4255 24.306 40.257 21.8025C42.6543 21.3842 42.7542 21.6652 42.8103 21.403C42.9602 20.7599 43.0726 20.1107 43.1537 19.4551C43.1537 19.2117 43.2349 18.8308 43.0101 18.8308C42.417 18.7247 41.8489 18.4875 41.3495 18.1441C40.85 17.8007 40.4318 17.3512 40.1258 16.8331C39.7076 15.9403 39.7825 15.8529 39.1832 13.8052C39.1207 13.3245 39.0021 12.85 38.8398 12.388C39.0645 11.9198 39.2331 11.4266 39.333 10.9209V10.9147ZM34.3011 24.512C35.1314 23.7066 36.1178 23.0823 37.1979 22.6703C37.304 23.4382 37.3664 27.6647 37.0168 28.0019C35.993 29.1568 35.1439 30.4491 34.4821 31.8413C32.7466 31.8975 30.6427 31.9787 28.4389 32.0661C30.0371 29.2879 32.0099 26.747 34.3011 24.512ZM19.0993 49.7151C19.3303 50.1084 19.4489 50.9263 19.9484 51.1822C20.4041 51.2634 20.8661 51.3008 21.3281 51.2946C19.0993 53.0739 16.7145 57.4003 15.5033 59.9849C11.9323 59.6041 9.26029 59.2982 8.49864 59.2295C5.30846 58.9423 4.17847 67.5015 7.48727 69.4431C7.90556 69.6928 9.28527 69.9363 11.3267 70.1798C9.75349 74.0005 8.46119 77.9399 7.45606 81.9479C7.27501 82.7408 4.65918 89.8266 4.67791 91.2188C4.67167 91.3437 4.70912 91.4623 4.78404 91.5559C4.97133 91.6995 5.16487 91.8306 5.36464 91.9492C4.89641 93.8534 5.00255 93.5475 4.74034 94.0094C4.21592 93.8971 2.01213 92.9544 0.701097 93.6661C-0.041824 94.0719 -0.0480669 95.6701 0.757284 95.9385C2.00589 96.3568 7.06899 98.3796 7.8244 97.3058C8.36754 96.157 8.78582 94.9521 9.073 93.7098C9.24157 93.7597 9.41637 93.7722 9.58493 93.741C9.75349 93.716 9.91581 93.6473 10.0594 93.5475C15.6781 88.553 20.5539 77.1033 23.0699 71.1225L26.6596 71.3347C28.2391 80.9053 31.4605 91.9368 32.0723 92.5174C32.2908 92.6734 32.5406 92.7671 32.809 92.7858C32.834 93.2478 32.7466 93.7035 32.5468 94.1218C32.1972 94.3154 31.8289 94.4652 31.448 94.5651C30.0309 95.1082 28.8447 95.3205 28.826 96.9686C28.826 97.1934 28.8821 97.4181 28.982 97.6242C29.0819 97.8302 29.2318 98.005 29.4128 98.1423C29.9997 98.5356 30.9736 98.3608 31.91 98.2422C33.3959 98.0674 34.8505 97.7116 36.2489 97.1747C36.7172 97.0186 37.6661 96.7938 37.8097 96.1258C37.9408 94.821 37.8784 93.5038 37.6224 92.2177C37.9096 92.1428 38.1968 92.0491 38.4714 91.9368C38.665 91.8431 38.7524 91.5497 38.8086 91.3125C39.3767 88.9838 39.5015 78.7577 39.514 71.9216C43.9903 72.0901 50.5018 72.2774 54.1539 72.2774C55.7085 72.3024 57.263 72.215 58.805 72.0152C59.267 76.248 60.5905 87.473 61.1024 90.607C61.5956 93.5599 64.4986 92.4799 64.224 90.6569C63.968 88.9588 62.9753 75.4114 62.5258 71.1287C66.0344 69.8801 68.4318 67.5015 69.2371 63.8306C70.9102 56.0143 73.4449 32.2908 71.4659 29.6875C69.9925 27.7334 65.5412 26.8719 60.8527 26.566C61.0587 24.6931 59.4043 23.8627 59.1546 22.8638C58.7426 21.2531 58.9798 20.7912 57.8561 19.399C57.4752 18.9245 56.7386 18.8184 56.2766 18.5437C52.3997 16.24 54.1415 15.0101 53.3111 11.333C53.0364 10.0844 52.743 10.0844 52.3559 9.36016C52.0688 8.84199 52.0937 7.87432 51.9127 6.97532C51.7316 6.07633 50.5704 5.21479 49.7838 4.72159C50.1584 4.37822 50.4331 3.93497 50.5704 3.44177C50.7078 2.94857 50.7015 2.4304 50.5517 1.94344C50.4019 1.45648 50.1209 1.01947 49.7339 0.682348C49.3468 0.345224 48.8786 0.126718 48.3729 0.0518015C47.5176 -0.0855452 46.6436 0.0518015 45.8757 0.445112C45.1765 0.76975 44.9205 1.6188 44.7582 2.36797C44.7207 2.61769 44.7519 2.87365 44.8456 3.11089C44.1901 3.26696 43.5595 3.51044 42.9727 3.84132C42.4732 4.0848 41.5867 3.95994 40.9999 4.0411C39.1644 4.29082 37.6099 6.53831 37.4039 8.28636C37.279 9.33519 37.6411 10.203 37.8034 11.1769C37.8721 11.6077 37.5724 12.5566 37.8034 12.9874C37.8284 13.056 37.8784 13.106 37.947 13.1434C38.0095 13.1747 38.0844 13.1871 38.1531 13.1747C37.8846 14.0612 37.7348 14.9726 37.7098 15.8966C37.7847 17.0204 38.1031 17.2264 37.5038 18.5312C36.7359 20.2106 35.8369 20.9223 36.3114 22.6765C35.4623 23.0761 34.6819 23.6192 34.0077 24.2748C31.6291 26.5784 29.5876 29.2068 27.9519 32.091L24.4371 32.2284C18.7872 32.4781 13.5493 32.7653 13.1996 32.8527C13.1497 32.8652 13.106 32.8901 13.0748 32.9338C13.0436 32.9776 13.0373 33.0275 13.0436 33.0837C13.0873 33.4271 19.0681 49.6527 19.0993 49.7214V49.7151ZM19.2491 49.4904C18.8496 48.3167 14.0112 35.044 13.4681 33.2585C15.391 33.0587 37.1916 32.1347 38.6775 32.2783C39.3767 33.9327 43.1287 46.7934 43.8592 48.7599C34.145 49.4404 19.3178 49.4904 19.2491 49.4904ZM7.71827 69.0186C4.77155 67.2893 5.84536 59.4355 8.4487 59.654C10.8897 59.8663 12.9811 60.1847 15.2474 60.4844C14.1673 62.8442 13.1872 65.3789 11.5015 69.6803C10.8585 69.6429 8.25517 69.3307 7.71827 69.0186ZM8.06163 95.539C7.41236 95.3579 6.7506 95.2143 6.08883 95.1082C6.28237 94.6462 6.42596 94.3403 5.99519 93.9408C5.77668 93.7784 5.53945 93.6349 5.29597 93.5162C5.4021 93.0917 5.49575 92.5673 5.58939 92.0741C6.55706 92.7234 7.60589 93.2353 8.71091 93.5974C8.51113 94.1842 8.28638 94.9022 8.06163 95.539ZM9.77847 93.1916C9.64112 93.3165 9.36018 93.3102 8.99185 93.2228C14.0737 80.7867 19.836 66.2342 22.7265 61.1336C23.7316 59.448 25.3361 58.2056 27.2153 57.6438C25.848 60.4157 25.6732 64.2177 26.1664 66.8023C25.5921 66.8023 25.024 66.896 24.4746 67.0708C23.6255 67.4703 17.4262 86.3805 9.77847 93.1916ZM23.2759 70.6418C23.9502 69.0248 24.4371 67.8823 24.6806 67.4703C25.1426 67.3454 25.6233 67.2768 26.104 67.2643C26.2351 68.4068 26.3974 69.6117 26.5972 70.8353L23.2759 70.6418ZM32.4157 92.1615C31.5791 90.7194 27.6523 76.916 26.5535 67.077C26.5098 66.7087 25.9854 67.3392 26.31 63.1376C26.5473 60.1035 27.415 56.8946 29.8248 55.0217C30.624 54.3974 32.5968 53.0364 33.502 52.487C33.5207 52.4745 33.5395 52.4558 33.5457 52.4308C33.5519 52.4059 33.5457 52.3809 33.5395 52.3622C33.527 52.3434 33.5082 52.3247 33.4833 52.3185C33.4583 52.3122 33.4333 52.3185 33.4146 52.3247C32.0911 53.0427 30.8112 53.8355 29.5689 54.6846C28.6199 55.415 27.8458 56.3452 27.3027 57.4128C25.2674 57.9122 23.5131 59.1858 22.4019 60.9588C18.4813 67.6826 11.5577 85.931 8.81704 93.1666C7.506 92.6859 6.2574 92.0366 5.11492 91.2375C5.11492 89.7704 7.61213 82.9343 7.85561 82.0103C9.10422 76.479 11.2893 71.2786 13.3245 66.0094C14.9415 61.8328 18.0005 54.1477 21.7401 51.2696C23.3009 51.2696 25.7606 51.2696 28.6449 51.2135C24.8991 52.0438 22.2396 53.4297 20.0982 57.0944C16.0215 64.1615 7.21258 87.9912 6.19497 91.8431C6.19497 91.8556 6.19497 91.8681 6.19497 91.8806C6.19497 91.8931 6.19497 91.9055 6.20745 91.9118C6.20745 91.9243 6.21994 91.9305 6.23242 91.9368C6.24491 91.943 6.25115 91.9492 6.26364 91.9555C6.27613 91.9555 6.28861 91.9555 6.3011 91.9555C6.31358 91.9555 6.32607 91.9555 6.33856 91.943C6.35104 91.943 6.35729 91.9305 6.36353 91.918C6.36977 91.9055 6.37601 91.8993 6.38226 91.8868C7.05026 89.5457 16.6708 63.9804 20.479 57.3004C22.6891 53.3735 25.5921 52.0625 29.8436 51.176C34.0826 51.0574 39.052 50.8451 43.3972 50.5517C38.4028 53.18 31.217 57.906 30.3555 60.3907C28.9009 64.6172 32.5655 86.1432 34.4634 92.2864C33.4958 92.3738 32.6654 92.3738 32.4282 92.1553L32.4157 92.1615ZM35.6933 94.5588C34.4447 94.8335 35.1189 94.5588 34.5571 94.0094C34.3011 93.7597 33.4583 93.8534 32.9401 93.9158C33.04 93.5475 33.0837 93.1666 33.0587 92.7858C34.4634 92.8045 35.8556 92.636 37.2166 92.2864C37.304 92.8795 37.3727 93.535 37.4039 94.1281C37.1479 94.1967 36.6922 94.3466 35.6933 94.5588ZM39.052 65.9283C39.052 64.3238 39.2581 88.8902 38.2217 91.5247C37.8347 91.6745 37.4351 91.7932 37.0231 91.8743C36.7796 88.3532 34.5258 62.4821 37.6474 60.4906C44.5834 56.1205 55.1279 55.5648 54.1914 47.58C54.1914 47.4676 55.6648 47.168 56.1392 46.4625C56.7635 48.1231 57.1506 53.2175 54.7658 57.4939C53.1488 60.4032 50.2333 63.0003 45.2139 64.0803C44.4086 64.2551 39.9885 65.51 39.1956 65.741C39.1582 65.7535 39.1207 65.7784 39.0957 65.8097C39.0708 65.8409 39.052 65.8846 39.052 65.9283ZM63.737 90.7131C63.9243 91.9617 61.939 92.8607 61.5457 90.5133C61.04 87.5541 59.6728 76.6039 59.0485 71.9653C60.1535 71.8092 61.2398 71.547 62.2949 71.1912C62.582 75.2616 63.3187 87.8601 63.737 90.7131ZM68.7876 63.7245C68.5504 64.9169 68.0697 66.0469 67.3767 67.0458C66.6837 68.0447 65.7972 68.8937 64.7671 69.5305C61.1337 71.8404 56.2141 71.8092 54.1539 71.8092C50.5767 71.8092 45.2764 71.6719 39.514 71.4471V66.0906C47.1056 63.8993 47.2804 64.124 49.4342 63.0502C53.9666 63.3374 57.1007 63.4311 57.6563 63.0939C60.397 61.4271 61.0338 56.364 61.7143 53.2424C62.9629 47.5613 63.5247 32.2908 65.1479 28.4077C65.4289 27.7334 66.203 27.5711 67.1145 27.7022C69.0311 28.1954 70.5169 28.8946 71.2411 29.8623C72.3898 31.3981 71.6282 41.4369 71.4784 43.366C70.879 50.7889 69.7803 59.3044 68.7876 63.7245Z" fill="#47C0BA"/>
</svg>