<svg xmlns="http://www.w3.org/2000/svg" width="18" height="16" viewBox="0 0 18 16" fill="none">
  <path d="M1.5 3.5L6.68477 6.43773C8.5962 7.52076 9.4038 7.52076 11.3152 6.43773L16.5 3.5" stroke="#0074AD" stroke-width="1.5" stroke-linejoin="round"/>
  <path d="M1.51182 9.10672C1.56086 11.4059 1.58537 12.5554 2.43372 13.407C3.28206 14.2586 4.46275 14.2883 6.82412 14.3476C8.27948 14.3841 9.72052 14.3841 11.1759 14.3476C13.5373 14.2883 14.7179 14.2586 15.5663 13.407C16.4146 12.5554 16.4391 11.4059 16.4882 9.10672C16.5039 8.36745 16.5039 7.63256 16.4882 6.8933C16.4391 4.59415 16.4146 3.44457 15.5663 2.593C14.7179 1.74142 13.5373 1.71176 11.1759 1.65243C9.72052 1.61586 8.27948 1.61586 6.82412 1.65242C4.46275 1.71175 3.28206 1.74141 2.43371 2.59299C1.58537 3.44456 1.56085 4.59413 1.51182 6.89328C1.49606 7.63255 1.49606 8.36745 1.51182 9.10672Z" stroke="#0074AD" stroke-width="1.5" stroke-linejoin="round"/>
</svg>