<svg width="22" height="23" viewBox="0 0 22 23" fill="none" xmlns="http://www.w3.org/2000/svg">
<g id="elements">
<path id="Vector" d="M1 17.6211C1 16.0807 1 15.3104 1.34673 14.7446C1.54074 14.428 1.80693 14.1618 2.12353 13.9678C2.68934 13.6211 3.45956 13.6211 5 13.6211C6.54044 13.6211 7.31066 13.6211 7.87647 13.9678C8.19307 14.1618 8.45926 14.428 8.65327 14.7446C9 15.3104 9 16.0807 9 17.6211C9 19.1615 9 19.9318 8.65327 20.4976C8.45926 20.8142 8.19307 21.0804 7.87647 21.2744C7.31066 21.6211 6.54044 21.6211 5 21.6211C3.45956 21.6211 2.68934 21.6211 2.12353 21.2744C1.80693 21.0804 1.54074 20.8142 1.34673 20.4976C1 19.9318 1 19.1615 1 17.6211Z" stroke="black" stroke-width="1.5"/>
<path id="Vector_2" d="M13 17.6211C13 16.0807 13 15.3104 13.3467 14.7446C13.5407 14.428 13.8069 14.1618 14.1235 13.9678C14.6893 13.6211 15.4596 13.6211 17 13.6211C18.5404 13.6211 19.3107 13.6211 19.8765 13.9678C20.1931 14.1618 20.4593 14.428 20.6533 14.7446C21 15.3104 21 16.0807 21 17.6211C21 19.1615 21 19.9318 20.6533 20.4976C20.4593 20.8142 20.1931 21.0804 19.8765 21.2744C19.3107 21.6211 18.5404 21.6211 17 21.6211C15.4596 21.6211 14.6893 21.6211 14.1235 21.2744C13.8069 21.0804 13.5407 20.8142 13.3467 20.4976C13 19.9318 13 19.1615 13 17.6211Z" stroke="black" stroke-width="1.5"/>
<path id="Vector_3" d="M1 5.62109C1 4.08066 1 3.31044 1.34673 2.74463C1.54074 2.42803 1.80693 2.16184 2.12353 1.96782C2.68934 1.62109 3.45956 1.62109 5 1.62109C6.54044 1.62109 7.31066 1.62109 7.87647 1.96782C8.19307 2.16184 8.45926 2.42803 8.65327 2.74463C9 3.31044 9 4.08066 9 5.62109C9 7.16153 9 7.93175 8.65327 8.49756C8.45926 8.81416 8.19307 9.08035 7.87647 9.27436C7.31066 9.62109 6.54044 9.62109 5 9.62109C3.45956 9.62109 2.68934 9.62109 2.12353 9.27436C1.80693 9.08035 1.54074 8.81416 1.34673 8.49756C1 7.93175 1 7.16153 1 5.62109Z" stroke="black" stroke-width="1.5"/>
<path id="Vector_4" d="M13 5.62109C13 4.08066 13 3.31044 13.3467 2.74463C13.5407 2.42803 13.8069 2.16184 14.1235 1.96782C14.6893 1.62109 15.4596 1.62109 17 1.62109C18.5404 1.62109 19.3107 1.62109 19.8765 1.96782C20.1931 2.16184 20.4593 2.42803 20.6533 2.74463C21 3.31044 21 4.08066 21 5.62109C21 7.16153 21 7.93175 20.6533 8.49756C20.4593 8.81416 20.1931 9.08035 19.8765 9.27436C19.3107 9.62109 18.5404 9.62109 17 9.62109C15.4596 9.62109 14.6893 9.62109 14.1235 9.27436C13.8069 9.08035 13.5407 8.81416 13.3467 8.49756C13 7.93175 13 7.16153 13 5.62109Z" stroke="black" stroke-width="1.5"/>
</g>
</svg>
