<svg width="20" height="19" viewBox="0 0 20 19" fill="none" xmlns="http://www.w3.org/2000/svg">
<g id="elements">
<path id="Vector" d="M14.1654 9.62174C14.1654 11.9229 12.2999 13.7884 9.9987 13.7884C7.69751 13.7884 5.83203 11.9229 5.83203 9.62174C5.83203 7.32056 7.69751 5.45508 9.9987 5.45508" stroke="black" stroke-width="1.5" stroke-linecap="round"/>
<path id="Vector_2" d="M11.666 1.45478C11.1275 1.34547 10.5701 1.28809 9.99935 1.28809C5.39698 1.28809 1.66602 5.01905 1.66602 9.62142C1.66602 14.2238 5.39698 17.9548 9.99935 17.9548C14.6017 17.9548 18.3327 14.2238 18.3327 9.62142C18.3327 9.05064 18.2753 8.49327 18.166 7.95475" stroke="black" stroke-width="1.5" stroke-linecap="round"/>
<path id="Vector_3" d="M9.46967 9.09109C9.17678 9.38398 9.17678 9.85886 9.46967 10.1517C9.76256 10.4446 10.2374 10.4446 10.5303 10.1517L9.46967 9.09109ZM16.4091 3.21235L15.6834 3.4017C15.7519 3.66438 15.957 3.86952 16.2197 3.93805L16.4091 3.21235ZM15.9788 1.56314L15.2531 1.75249V1.75249L15.9788 1.56314ZM15.2484 1.44647L15.7787 1.9768L15.2484 1.44647ZM14.2905 2.40429L13.7602 1.87396L14.2905 2.40429ZM13.5651 4.74749L12.8394 4.93684L12.8394 4.93684L13.5651 4.74749ZM18.0583 3.64265L17.8689 4.36836L18.0583 3.64265ZM18.175 4.37305L17.6446 3.84272V3.84272L18.175 4.37305ZM17.2171 5.33087L17.7475 5.8612H17.7475L17.2171 5.33087ZM14.8739 6.0563L14.6846 6.78201H14.6846L14.8739 6.0563ZM13.3056 5.25515L9.46967 9.09109L10.5303 10.1517L14.3663 6.31581L13.3056 5.25515ZM17.1348 3.023L16.7045 1.3738L15.2531 1.75249L15.6834 3.4017L17.1348 3.023ZM14.718 0.916139L13.7602 1.87396L14.8209 2.93462L15.7787 1.9768L14.718 0.916139ZM12.8394 4.93684L13.1102 5.97483L14.5616 5.59613L14.2908 4.55815L12.8394 4.93684ZM16.2197 3.93805L17.8689 4.36836L18.2476 2.91695L16.5984 2.48664L16.2197 3.93805ZM17.6446 3.84272L16.6868 4.80054L17.7475 5.8612L18.7053 4.90338L17.6446 3.84272ZM15.0633 5.3306L14.0253 5.05977L13.6466 6.51118L14.6846 6.78201L15.0633 5.3306ZM16.6868 4.80054C16.1958 5.29159 15.554 5.45865 15.0633 5.3306L14.6846 6.78201C15.7664 7.06428 16.939 6.66967 17.7475 5.8612L16.6868 4.80054ZM17.8689 4.36836C17.8023 4.35096 17.7315 4.31039 17.6757 4.24598C17.6222 4.18415 17.5964 4.11685 17.5874 4.06072C17.5696 3.9494 17.6128 3.87451 17.6446 3.84272L18.7053 4.90338C18.9921 4.61655 19.1313 4.21673 19.0686 3.8241C19.0036 3.41724 18.7161 3.03919 18.2476 2.91695L17.8689 4.36836ZM13.7602 1.87396C12.9518 2.68242 12.5571 3.85498 12.8394 4.93684L14.2908 4.55815C14.1628 4.06738 14.3298 3.42566 14.8209 2.93462L13.7602 1.87396ZM16.7045 1.3738C16.5822 0.905272 16.2042 0.617806 15.7973 0.552813C15.4047 0.490093 15.0049 0.629309 14.718 0.916139L15.7787 1.9768C15.7469 2.00859 15.672 2.05182 15.5607 2.03403C15.5046 2.02507 15.4373 1.99926 15.3754 1.9457C15.311 1.88989 15.2705 1.81915 15.2531 1.75249L16.7045 1.3738Z" fill="black"/>
</g>
</svg>
