<svg width="24" height="25" viewBox="0 0 24 25" fill="none" xmlns="http://www.w3.org/2000/svg">
<path d="M2 9.49967C2.06691 7.9576 2.25439 6.9537 2.77967 6.15957C3.08186 5.70269 3.45724 5.30531 3.88882 4.98541C5.05534 4.12073 6.70097 4.12073 9.99225 4.12073H14.0069C17.2982 4.12073 18.9439 4.12073 20.1104 4.98541C20.542 5.30531 20.9173 5.70269 21.2195 6.15957C21.7447 6.95362 21.9322 7.95738 21.9992 9.49916C22.0106 9.7628 21.7835 9.96448 21.5347 9.96448C20.1489 9.96448 19.0255 11.1537 19.0255 12.6207C19.0255 14.0877 20.1489 15.277 21.5347 15.277C21.7835 15.277 22.0106 15.4787 21.9992 15.7423C21.9322 17.2841 21.7447 18.2878 21.2195 19.0819C20.9173 19.5388 20.542 19.9361 20.1104 20.256C18.9439 21.1207 17.2982 21.1207 14.0069 21.1207H9.99225C6.70097 21.1207 5.05534 21.1207 3.88882 20.256C3.45724 19.9361 3.08186 19.5388 2.77967 19.0819C2.25439 18.2878 2.06691 17.2839 2 15.7418V9.49967Z" stroke="#141B34" stroke-width="1.5" stroke-linejoin="round"/>
<path d="M6 16.6207H17" stroke="#141B34" stroke-width="1.5" stroke-linecap="round" stroke-linejoin="round"/>
<path d="M14 11.6207H16" stroke="#141B34" stroke-width="1.5" stroke-linecap="round" stroke-linejoin="round"/>
<path d="M14 7.62073H16" stroke="#141B34" stroke-width="1.5" stroke-linecap="round" stroke-linejoin="round"/>
<path d="M5 9.74369C5 8.27151 5 7.53542 5.42714 7.07807C5.85427 6.62073 6.54174 6.62073 7.91667 6.62073C9.2916 6.62073 9.97906 6.62073 10.4062 7.07807C10.8333 7.53542 10.8333 8.27151 10.8333 9.74369V11.2387C10.8333 12.3437 10.8333 12.8962 10.5541 13.1307C10.4768 13.1956 10.3881 13.243 10.2933 13.2703C9.95056 13.3689 9.53774 13.0373 8.71212 12.3743C8.36868 12.0985 8.19696 11.9606 8.00178 11.9361C7.94523 11.9289 7.8881 11.9289 7.83155 11.9361C7.63638 11.9606 7.46466 12.0985 7.12121 12.3743C6.29559 13.0373 5.88278 13.3689 5.54006 13.2703C5.44523 13.243 5.35653 13.1956 5.27926 13.1307C5 12.8962 5 12.3437 5 11.2387V9.74369Z" stroke="black" stroke-width="1.5" stroke-linecap="round" stroke-linejoin="round"/>
</svg>
