<svg xmlns="http://www.w3.org/2000/svg" width="20" height="23" viewBox="0 0 20 23" fill="none">
  <path d="M3.15837 11.1121C3.08489 12.5081 3.16936 13.9941 1.92213 14.9295C1.34164 15.3649 1 16.0481 1 16.7738C1 17.7719 1.7818 18.6211 2.8 18.6211H17.2C18.2182 18.6211 19 17.7719 19 16.7738C19 16.0481 18.6584 15.3649 18.0779 14.9295C16.8306 13.9941 16.9151 12.5081 16.8416 11.1121C16.6501 7.47332 13.6438 4.62109 10 4.62109C6.35617 4.62109 3.34988 7.47332 3.15837 11.1121Z" stroke="#0D121C" stroke-width="1.5" stroke-linecap="round" stroke-linejoin="round"/>
  <path d="M8.5 2.74609C8.5 3.57452 9.17157 4.62109 10 4.62109C10.8284 4.62109 11.5 3.57452 11.5 2.74609C11.5 1.91767 10.8284 1.62109 10 1.62109C9.17157 1.62109 8.5 1.91767 8.5 2.74609Z" stroke="#0D121C" stroke-width="1.5"/>
  <path d="M13 18.6211C13 20.2779 11.6569 21.6211 10 21.6211C8.34315 21.6211 7 20.2779 7 18.6211" stroke="#0D121C" stroke-width="1.5" stroke-linecap="round" stroke-linejoin="round"/>
</svg>