<svg xmlns="http://www.w3.org/2000/svg" width="22" height="21" viewBox="0 0 22 21" fill="none">
  <path d="M1 10.6211C1 6.37845 1 4.25713 2.46447 2.93911C3.92893 1.62109 6.28596 1.62109 11 1.62109C15.714 1.62109 18.0711 1.62109 19.5355 2.93911C21 4.25713 21 6.37845 21 10.6211C21 14.8637 21 16.9851 19.5355 18.3031C18.0711 19.6211 15.714 19.6211 11 19.6211C6.28596 19.6211 3.92893 19.6211 2.46447 18.3031C1 16.9851 1 14.8637 1 10.6211Z" stroke="black" stroke-width="1.5" stroke-linecap="round" stroke-linejoin="round"/>
  <path d="M7.4 6.62109H6.6C5.84575 6.62109 5.46863 6.62109 5.23431 6.85541C5 7.08972 5 7.46685 5 8.22109V9.02109C5 9.77534 5 10.1525 5.23431 10.3868C5.46863 10.6211 5.84575 10.6211 6.6 10.6211H7.4C8.15425 10.6211 8.53137 10.6211 8.76569 10.3868C9 10.1525 9 9.77534 9 9.02109V8.22109C9 7.46685 9 7.08972 8.76569 6.85541C8.53137 6.62109 8.15425 6.62109 7.4 6.62109Z" stroke="black" stroke-width="1.5" stroke-linejoin="round"/>
  <path d="M5 14.6211H9" stroke="black" stroke-width="1.5" stroke-linecap="round" stroke-linejoin="round"/>
  <path d="M13 6.62109H17" stroke="black" stroke-width="1.5" stroke-linecap="round" stroke-linejoin="round"/>
  <path d="M13 10.6211H17" stroke="black" stroke-width="1.5" stroke-linecap="round" stroke-linejoin="round"/>
  <path d="M13 14.6211H17" stroke="black" stroke-width="1.5" stroke-linecap="round" stroke-linejoin="round"/>
</svg>