<svg width="20" height="21" viewBox="0 0 20 21" fill="none" xmlns="http://www.w3.org/2000/svg">
<g id="elements">
<path id="Vector" d="M19 16.0211C19 17.7181 19 18.5667 18.3491 19.0939C17.6983 19.6211 16.6507 19.6211 14.5556 19.6211H13.4444C11.3493 19.6211 10.3017 19.6211 9.65087 19.0939C9 18.5667 9 17.7181 9 16.0211L9 5.22109C9 3.52404 9 2.67551 9.65088 2.1483C10.3017 1.62109 11.3493 1.62109 13.4444 1.62109L14.5556 1.62109C16.6507 1.62109 17.6983 1.62109 18.3491 2.1483C19 2.67551 19 3.52404 19 5.22109L19 16.0211Z" stroke="black" stroke-width="1.5" stroke-linejoin="round"/>
<path id="Vector_2" d="M1 3.66205C1 2.69994 1 2.21888 1.29289 1.91999C1.58579 1.62109 2.05719 1.62109 3 1.62109C3.94281 1.62109 4.41421 1.62109 4.70711 1.91999C5 2.21888 5 2.69994 5 3.66205L5 14.5088C5 15.4163 5 15.87 4.92429 16.3089C4.855 16.7106 4.73877 17.1024 4.57807 17.4758C4.40249 17.8839 4.15585 18.2614 3.66258 19.0165C3.44279 19.3529 3.33289 19.5211 3.19487 19.5807C3.0703 19.6345 2.9297 19.6345 2.80513 19.5807C2.66711 19.5211 2.55721 19.3529 2.33742 19.0165C1.84415 18.2614 1.59751 17.8839 1.42193 17.4758C1.26123 17.1024 1.14499 16.7106 1.07571 16.3089C1 15.87 1 15.4163 1 14.5088L1 3.66205Z" stroke="black" stroke-width="1.5" stroke-linejoin="round"/>
<path id="Vector_3" d="M9.5 15.1211L11.5 15.1211" stroke="black" stroke-width="1.5" stroke-linecap="round" stroke-linejoin="round"/>
<path id="Vector_4" d="M9.5 10.6211L11.5 10.6211" stroke="black" stroke-width="1.5" stroke-linecap="round" stroke-linejoin="round"/>
<path id="Vector_5" d="M9.5 6.12109L11.5 6.12109" stroke="black" stroke-width="1.5" stroke-linecap="round" stroke-linejoin="round"/>
<path id="Vector_6" d="M5 5.62109C5 6.17338 4.10457 6.62109 3 6.62109C1.89543 6.62109 1 6.17338 1 5.62109" stroke="black" stroke-width="1.5"/>
</g>
</svg>
