<svg xmlns="http://www.w3.org/2000/svg" width="17" height="20" viewBox="0 0 17 20" fill="none">
  <path d="M14.75 4.58301L14.2336 12.9373C14.1016 15.0717 14.0356 16.1389 13.5006 16.9062C13.2361 17.2856 12.8955 17.6057 12.5006 17.8464C11.7018 18.333 10.6325 18.333 8.49395 18.333C6.3526 18.333 5.28192 18.333 4.48254 17.8455C4.08733 17.6044 3.74666 17.2837 3.48224 16.9037C2.9474 16.1352 2.88288 15.0664 2.75384 12.929L2.25 4.58301" stroke="#1E417C" stroke-width="1.5" stroke-linecap="round"/>
  <path d="M6 9.77881H11" stroke="#1E417C" stroke-width="1.5" stroke-linecap="round"/>
  <path d="M7.25 13.0449H9.75" stroke="#0D121C" stroke-width="1.5" stroke-linecap="round"/>
  <path d="M1 4.58317H16M11.8796 4.58317L11.3107 3.40961C10.9328 2.63005 10.7439 2.24027 10.4179 1.99718C10.3456 1.94325 10.2691 1.89529 10.189 1.85375C9.8281 1.6665 9.39494 1.6665 8.52862 1.6665C7.64053 1.6665 7.19649 1.6665 6.82958 1.8616C6.74826 1.90484 6.67066 1.95475 6.59759 2.01081C6.26787 2.26375 6.0837 2.6678 5.71535 3.47589L5.21061 4.58317" stroke="#0D121C" stroke-width="1.5" stroke-linecap="round"/>
</svg>