<svg width="193" height="32" viewBox="0 0 193 32" fill="none" xmlns="http://www.w3.org/2000/svg">
<g opacity="0.8">
<path d="M13.8267 18.4283V22.2829H2.85938V4.76562H13.7V8.62018H6.84662V11.5238H13.0761V15.3275H6.84662V18.4315H13.8235L13.8267 18.4283Z" fill="#F5F5F5"/>
<path d="M15.5859 13H25.0552V16.6033H15.5859V13Z" fill="#F5F5F5"/>
<path d="M31.6747 4.76562V22.2829H27.6875V4.76562H31.6747Z" fill="#F5F5F5"/>
<path d="M46.032 14.5994V22.2831H42.295V15.1528C42.295 13.6008 41.3227 12.8757 40.1256 12.8757C38.7543 12.8757 37.8074 13.6772 37.8074 15.4518V22.2831H34.0703V9.77171H37.8074V10.9484C38.4788 10.023 39.7266 9.42188 41.3702 9.42188C43.888 9.42188 46.0289 11.2251 46.0289 14.6026L46.032 14.5994Z" fill="#F5F5F5"/>
<path d="M59.6863 9.77344L55.0751 22.2848H50.8377L46.2266 9.77344H50.3627L52.9533 17.7052L55.5439 9.77344H59.6799H59.6863Z" fill="#F5F5F5"/>
<path d="M66.2594 19.2816C67.2823 19.2816 68.1533 18.8809 68.6505 18.3307L71.6401 20.0576C70.4177 21.7591 68.5745 22.6369 66.2087 22.6369C61.9491 22.6369 59.3047 19.7587 59.3047 16.0313C59.3047 12.304 61.9966 9.42578 65.9332 9.42578C69.5721 9.42578 72.264 12.2531 72.264 16.0313C72.264 16.5561 72.2134 17.0586 72.1152 17.5324H63.2698C63.7416 18.8332 64.8881 19.2848 66.2594 19.2848V19.2816ZM68.5523 14.7274C68.1533 13.2772 67.0322 12.7492 65.911 12.7492C64.4891 12.7492 63.5453 13.4489 63.1938 14.7274H68.5523Z" fill="#F5F5F5"/>
<path d="M83.3476 18.5303C83.3476 21.4085 80.8552 22.633 78.1632 22.633C75.6708 22.633 73.777 21.682 72.8047 19.6562L76.0445 17.8052C76.3676 18.7561 77.0675 19.2809 78.1632 19.2809C79.0595 19.2809 79.5092 19.0042 79.5092 18.5049C79.5092 17.1278 73.3779 17.8529 73.3779 13.5245C73.3779 10.7958 75.6708 9.42188 78.2614 9.42188C80.2788 9.42188 82.0745 10.3219 83.1196 12.0997L79.9304 13.8266C79.5821 13.1747 79.0817 12.7262 78.2614 12.7262C77.6122 12.7262 77.2163 12.9775 77.2163 13.4259C77.2163 14.8507 83.3476 13.8998 83.3476 18.5303Z" fill="#F5F5F5"/>
<path d="M89.5807 13.3776V17.8078C89.5807 18.8827 90.5023 18.9845 92.1491 18.8827V22.2857C87.2656 22.785 85.8436 21.3093 85.8436 17.8078V13.3776H83.8516V9.77425H85.8436V7.39537L89.5807 6.26953V9.77425H92.1491V13.3776H89.5807Z" fill="#F5F5F5"/>
<path d="M108 32V0H107V32H108Z" fill="white" fill-opacity="0.4"/>
<path opacity="0.8" d="M120.657 8.42188V3.75454H122.234C122.6 3.75454 122.899 3.82063 123.132 3.95281C123.366 4.08347 123.539 4.26047 123.651 4.48381C123.764 4.70715 123.82 4.95632 123.82 5.23132C123.82 5.50631 123.764 5.75624 123.651 5.9811C123.54 6.20596 123.369 6.38523 123.136 6.51893C122.904 6.65111 122.606 6.7172 122.243 6.7172H121.113V6.21583H122.225C122.475 6.21583 122.677 6.17253 122.829 6.08593C122.981 5.99933 123.091 5.88234 123.159 5.73497C123.229 5.58608 123.264 5.41819 123.264 5.23132C123.264 5.04444 123.229 4.87732 123.159 4.72994C123.091 4.58257 122.98 4.4671 122.826 4.38354C122.673 4.29846 122.469 4.25592 122.216 4.25592H121.222V8.42188H120.657ZM126.042 8.4948C125.726 8.4948 125.449 8.4196 125.21 8.26918C124.973 8.11877 124.788 7.90835 124.654 7.63791C124.522 7.36747 124.456 7.05145 124.456 6.68986C124.456 6.32522 124.522 6.00693 124.654 5.73497C124.788 5.46301 124.973 5.25183 125.21 5.10141C125.449 4.951 125.726 4.8758 126.042 4.8758C126.358 4.8758 126.634 4.951 126.871 5.10141C127.11 5.25183 127.295 5.46301 127.428 5.73497C127.561 6.00693 127.628 6.32522 127.628 6.68986C127.628 7.05145 127.561 7.36747 127.428 7.63791C127.295 7.90835 127.11 8.11877 126.871 8.26918C126.634 8.4196 126.358 8.4948 126.042 8.4948ZM126.042 8.01166C126.282 8.01166 126.48 7.95013 126.634 7.82706C126.789 7.704 126.904 7.54219 126.979 7.34164C127.053 7.14109 127.09 6.92383 127.09 6.68986C127.09 6.45588 127.053 6.23786 126.979 6.03579C126.904 5.83372 126.789 5.6704 126.634 5.54581C126.48 5.42123 126.282 5.35894 126.042 5.35894C125.802 5.35894 125.604 5.42123 125.449 5.54581C125.294 5.6704 125.18 5.83372 125.105 6.03579C125.031 6.23786 124.994 6.45588 124.994 6.68986C124.994 6.92383 125.031 7.14109 125.105 7.34164C125.18 7.54219 125.294 7.704 125.449 7.82706C125.604 7.95013 125.802 8.01166 126.042 8.01166ZM129.123 8.42188L128.057 4.92138H128.622L129.378 7.60145H129.415L130.162 4.92138H130.737L131.475 7.59233H131.511L132.268 4.92138H132.833L131.767 8.42188H131.238L130.472 5.73269H130.418L129.652 8.42188H129.123ZM134.893 8.4948C134.556 8.4948 134.265 8.42036 134.02 8.27146C133.777 8.12105 133.589 7.91139 133.457 7.64247C133.326 7.37203 133.261 7.05753 133.261 6.69897C133.261 6.34041 133.326 6.0244 133.457 5.75092C133.589 5.47593 133.773 5.2617 134.009 5.10825C134.246 4.95328 134.522 4.8758 134.838 4.8758C135.021 4.8758 135.201 4.90618 135.378 4.96695C135.556 5.02773 135.718 5.12648 135.864 5.26322C136.01 5.39844 136.126 5.57772 136.212 5.80106C136.299 6.0244 136.342 6.29939 136.342 6.62605V6.85394H133.644V6.38903H135.795C135.795 6.19152 135.756 6.01528 135.677 5.86031C135.599 5.70534 135.488 5.58304 135.344 5.4934C135.201 5.40376 135.033 5.35894 134.838 5.35894C134.624 5.35894 134.439 5.41211 134.282 5.51847C134.127 5.6233 134.008 5.76004 133.924 5.92868C133.841 6.09732 133.799 6.27812 133.799 6.47108V6.78102C133.799 7.04538 133.845 7.26948 133.936 7.45331C134.028 7.63563 134.157 7.77465 134.321 7.87036C134.485 7.96456 134.676 8.01166 134.893 8.01166C135.034 8.01166 135.162 7.99191 135.276 7.95241C135.391 7.91139 135.491 7.85061 135.574 7.77009C135.658 7.68805 135.722 7.58625 135.768 7.46471L136.288 7.61056C136.233 7.7868 136.141 7.94177 136.012 8.07547C135.883 8.20765 135.723 8.31097 135.533 8.38541C135.343 8.45834 135.13 8.4948 134.893 8.4948ZM137.16 8.42188V4.92138H137.68V5.4501H137.717C137.78 5.27689 137.896 5.13636 138.063 5.02849C138.23 4.92062 138.418 4.86668 138.628 4.86668C138.668 4.86668 138.717 4.86744 138.776 4.86896C138.836 4.87048 138.88 4.87276 138.911 4.8758V5.42275C138.893 5.41819 138.851 5.41135 138.785 5.40224C138.722 5.3916 138.654 5.38629 138.583 5.38629C138.412 5.38629 138.26 5.42199 138.127 5.4934C137.995 5.56329 137.89 5.66052 137.812 5.78511C137.736 5.90817 137.698 6.04871 137.698 6.20672V8.42188H137.16ZM140.909 8.4948C140.572 8.4948 140.281 8.42036 140.037 8.27146C139.793 8.12105 139.606 7.91139 139.474 7.64247C139.343 7.37203 139.278 7.05753 139.278 6.69897C139.278 6.34041 139.343 6.0244 139.474 5.75092C139.606 5.47593 139.79 5.2617 140.025 5.10825C140.262 4.95328 140.539 4.8758 140.855 4.8758C141.037 4.8758 141.217 4.90618 141.395 4.96695C141.573 5.02773 141.734 5.12648 141.88 5.26322C142.026 5.39844 142.142 5.57772 142.229 5.80106C142.316 6.0244 142.359 6.29939 142.359 6.62605V6.85394H139.661V6.38903H141.812C141.812 6.19152 141.772 6.01528 141.693 5.86031C141.616 5.70534 141.505 5.58304 141.361 5.4934C141.218 5.40376 141.049 5.35894 140.855 5.35894C140.64 5.35894 140.455 5.41211 140.299 5.51847C140.144 5.6233 140.024 5.76004 139.941 5.92868C139.857 6.09732 139.815 6.27812 139.815 6.47108V6.78102C139.815 7.04538 139.861 7.26948 139.952 7.45331C140.045 7.63563 140.173 7.77465 140.337 7.87036C140.501 7.96456 140.692 8.01166 140.909 8.01166C141.051 8.01166 141.178 7.99191 141.292 7.95241C141.408 7.91139 141.507 7.85061 141.591 7.77009C141.674 7.68805 141.739 7.58625 141.785 7.46471L142.304 7.61056C142.249 7.7868 142.158 7.94177 142.028 8.07547C141.899 8.20765 141.74 8.31097 141.55 8.38541C141.36 8.45834 141.146 8.4948 140.909 8.4948ZM144.499 8.4948C144.207 8.4948 143.95 8.42112 143.726 8.27374C143.503 8.12485 143.328 7.91518 143.202 7.64475C143.076 7.37279 143.013 7.05145 143.013 6.68074C143.013 6.31307 143.076 5.99401 143.202 5.72357C143.328 5.45314 143.504 5.24423 143.728 5.09686C143.953 4.94948 144.213 4.8758 144.508 4.8758C144.736 4.8758 144.916 4.91378 145.048 4.98974C145.182 5.06419 145.283 5.14927 145.353 5.24499C145.425 5.33919 145.48 5.41667 145.52 5.47744H145.565V3.75454H146.103V8.42188H145.584V7.88404H145.52C145.48 7.94785 145.424 8.02837 145.351 8.12561C145.278 8.22133 145.174 8.30717 145.039 8.38313C144.904 8.45758 144.724 8.4948 144.499 8.4948ZM144.572 8.01166C144.787 8.01166 144.97 7.95545 145.119 7.84302C145.268 7.72907 145.381 7.57182 145.458 7.37127C145.536 7.1692 145.574 6.93599 145.574 6.67163C145.574 6.4103 145.536 6.18165 145.46 5.98565C145.385 5.78814 145.272 5.63469 145.123 5.5253C144.974 5.41439 144.79 5.35894 144.572 5.35894C144.344 5.35894 144.154 5.41743 144.002 5.53442C143.852 5.64989 143.738 5.80714 143.662 6.00617C143.588 6.20368 143.551 6.4255 143.551 6.67163C143.551 6.92079 143.589 7.14717 143.665 7.35076C143.742 7.55283 143.856 7.71387 144.007 7.8339C144.158 7.95241 144.347 8.01166 144.572 8.01166ZM149.041 8.42188V3.75454H149.579V5.47744H149.624C149.664 5.41667 149.718 5.33919 149.788 5.24499C149.86 5.14927 149.961 5.06419 150.094 4.98974C150.227 4.91378 150.408 4.8758 150.636 4.8758C150.931 4.8758 151.191 4.94948 151.415 5.09686C151.64 5.24423 151.816 5.45314 151.942 5.72357C152.068 5.99401 152.131 6.31307 152.131 6.68074C152.131 7.05145 152.068 7.37279 151.942 7.64475C151.816 7.91518 151.641 8.12485 151.418 8.27374C151.194 8.42112 150.937 8.4948 150.645 8.4948C150.42 8.4948 150.24 8.45758 150.105 8.38313C149.97 8.30717 149.866 8.22133 149.793 8.12561C149.72 8.02837 149.664 7.94785 149.624 7.88404H149.56V8.42188H149.041ZM149.569 6.67163C149.569 6.93599 149.608 7.1692 149.686 7.37127C149.763 7.57182 149.876 7.72907 150.025 7.84302C150.174 7.95545 150.356 8.01166 150.572 8.01166C150.797 8.01166 150.985 7.95241 151.135 7.8339C151.287 7.71387 151.401 7.55283 151.477 7.35076C151.554 7.14717 151.593 6.92079 151.593 6.67163C151.593 6.4255 151.555 6.20368 151.479 6.00617C151.405 5.80714 151.292 5.64989 151.14 5.53442C150.989 5.41743 150.8 5.35894 150.572 5.35894C150.353 5.35894 150.17 5.41439 150.021 5.5253C149.872 5.63469 149.759 5.78814 149.683 5.98565C149.607 6.18165 149.569 6.4103 149.569 6.67163ZM153.175 9.73456C153.084 9.73456 153.002 9.72697 152.931 9.71177C152.86 9.6981 152.81 9.68442 152.783 9.67075L152.92 9.19673C153.05 9.23015 153.166 9.2423 153.266 9.23319C153.366 9.22407 153.455 9.17925 153.533 9.09873C153.612 9.01973 153.684 8.89134 153.749 8.71358L153.849 8.44011L152.555 4.92138H153.138L154.105 7.71084H154.141L155.107 4.92138H155.691L154.205 8.93236C154.138 9.11316 154.055 9.26282 153.956 9.38132C153.858 9.50135 153.743 9.59023 153.612 9.64796C153.483 9.7057 153.337 9.73456 153.175 9.73456Z" fill="#F6F8FA"/>
<path d="M193.002 22.611C193.002 22.8256 192.99 23.0526 192.965 23.2919H187.542C187.583 23.9605 187.81 24.4846 188.223 24.8643C188.644 25.2357 189.152 25.4215 189.746 25.4215C190.233 25.4215 190.637 25.31 190.959 25.0872C191.289 24.8561 191.52 24.5507 191.653 24.171H192.866C192.684 24.8231 192.321 25.3554 191.776 25.7681C191.232 26.1726 190.555 26.3748 189.746 26.3748C189.102 26.3748 188.524 26.2304 188.013 25.9415C187.509 25.6526 187.113 25.244 186.824 24.7157C186.535 24.1792 186.391 23.5602 186.391 22.8586C186.391 22.157 186.531 21.5421 186.812 21.0139C187.092 20.4856 187.484 20.0812 187.988 19.8005C188.5 19.5116 189.086 19.3672 189.746 19.3672C190.39 19.3672 190.959 19.5075 191.454 19.7881C191.95 20.0688 192.329 20.4567 192.593 20.9519C192.866 21.4389 193.002 21.9919 193.002 22.611ZM191.838 22.3758C191.838 21.9465 191.743 21.5792 191.553 21.2739C191.364 20.9602 191.104 20.725 190.773 20.5681C190.452 20.4031 190.093 20.3205 189.696 20.3205C189.127 20.3205 188.64 20.5021 188.235 20.8653C187.839 21.2285 187.612 21.7319 187.554 22.3758H191.838Z" fill="white"/>
<path d="M182.196 19.3516C183.022 19.3516 183.69 19.6033 184.202 20.1068C184.714 20.602 184.97 21.3201 184.97 22.2611V26.2601H183.855V22.422C183.855 21.7452 183.686 21.2293 183.348 20.8744C183.009 20.5112 182.547 20.3297 181.961 20.3297C181.367 20.3297 180.892 20.5154 180.537 20.8868C180.191 21.2582 180.017 21.7989 180.017 22.5087V26.2601H178.891V19.4754H180.017V20.4411C180.24 20.0944 180.541 19.8262 180.921 19.6363C181.309 19.4465 181.734 19.3516 182.196 19.3516Z" fill="white"/>
<path d="M176.424 18.3751C176.209 18.3751 176.028 18.3008 175.879 18.1522C175.731 18.0037 175.656 17.8221 175.656 17.6075C175.656 17.3929 175.731 17.2113 175.879 17.0627C176.028 16.9141 176.209 16.8398 176.424 16.8398C176.63 16.8398 176.804 16.9141 176.944 17.0627C177.092 17.2113 177.167 17.3929 177.167 17.6075C177.167 17.8221 177.092 18.0037 176.944 18.1522C176.804 18.3008 176.63 18.3751 176.424 18.3751ZM176.969 19.477V26.2617H175.842V19.477H176.969Z" fill="white"/>
<path d="M170.274 19.3672C170.86 19.3672 171.372 19.4951 171.809 19.751C172.255 20.0069 172.585 20.3288 172.799 20.7167V19.4786H173.938V26.4119C173.938 27.031 173.806 27.5799 173.542 28.0586C173.278 28.5456 172.898 28.9253 172.403 29.1976C171.916 29.47 171.347 29.6062 170.695 29.6062C169.803 29.6062 169.06 29.3957 168.466 28.9748C167.872 28.5538 167.521 27.9802 167.414 27.2538H168.528C168.652 27.6665 168.908 27.9967 169.296 28.2443C169.684 28.5002 170.15 28.6281 170.695 28.6281C171.314 28.6281 171.817 28.4342 172.205 28.0462C172.601 27.6583 172.799 27.1135 172.799 26.4119V24.9881C172.577 25.3843 172.246 25.7145 171.809 25.9786C171.372 26.2427 170.86 26.3748 170.274 26.3748C169.671 26.3748 169.122 26.2262 168.627 25.9291C168.14 25.6319 167.756 25.2151 167.476 24.6786C167.195 24.1421 167.055 23.5313 167.055 22.8462C167.055 22.1529 167.195 21.5462 167.476 21.0262C167.756 20.498 168.14 20.0894 168.627 19.8005C169.122 19.5116 169.671 19.3672 170.274 19.3672ZM172.799 22.8586C172.799 22.3469 172.696 21.9012 172.49 21.5215C172.284 21.1418 172.003 20.8529 171.648 20.6548C171.301 20.4485 170.918 20.3453 170.497 20.3453C170.076 20.3453 169.692 20.4443 169.345 20.6424C168.998 20.8405 168.722 21.1294 168.516 21.5091C168.309 21.8888 168.206 22.3345 168.206 22.8462C168.206 23.3662 168.309 23.8202 168.516 24.2081C168.722 24.5878 168.998 24.8808 169.345 25.0872C169.692 25.2853 170.076 25.3843 170.497 25.3843C170.918 25.3843 171.301 25.2853 171.648 25.0872C172.003 24.8808 172.284 24.5878 172.49 24.2081C172.696 23.8202 172.799 23.3704 172.799 22.8586Z" fill="white"/>
<path d="M162.86 19.3516C163.686 19.3516 164.354 19.6033 164.866 20.1068C165.378 20.602 165.634 21.3201 165.634 22.2611V26.2601H164.519V22.422C164.519 21.7452 164.35 21.2293 164.012 20.8744C163.673 20.5112 163.211 20.3297 162.625 20.3297C162.031 20.3297 161.556 20.5154 161.201 20.8868C160.855 21.2582 160.681 21.7989 160.681 22.5087V26.2601H159.555V19.4754H160.681V20.4411C160.904 20.0944 161.205 19.8262 161.585 19.6363C161.973 19.4465 162.398 19.3516 162.86 19.3516Z" fill="white"/>
<path d="M154.338 18.5497V21.4344H157.482V22.363H154.338V25.3344H157.854V26.263H153.211V17.6211H157.854V18.5497H154.338Z" fill="white"/>
<path d="M148.512 20.1585C148.512 20.8766 148.264 21.475 147.769 21.9538C147.282 22.4242 146.535 22.6595 145.528 22.6595H143.869V26.2623H142.742V17.6328H145.528C146.502 17.6328 147.241 17.8681 147.744 18.3385C148.256 18.809 148.512 19.4157 148.512 20.1585ZM145.528 21.7309C146.155 21.7309 146.617 21.5947 146.915 21.3223C147.212 21.0499 147.36 20.662 147.36 20.1585C147.36 19.0938 146.749 18.5614 145.528 18.5614H143.869V21.7309H145.528Z" fill="white"/>
<path d="M141.34 20.1585C141.34 20.8766 141.092 21.475 140.597 21.9538C140.11 22.4242 139.363 22.6595 138.356 22.6595H136.697V26.2623H135.57V17.6328H138.356C139.33 17.6328 140.069 17.8681 140.572 18.3385C141.084 18.809 141.34 19.4157 141.34 20.1585ZM138.356 21.7309C138.983 21.7309 139.446 21.5947 139.743 21.3223C140.04 21.0499 140.188 20.662 140.188 20.1585C140.188 19.0938 139.578 18.5614 138.356 18.5614H136.697V21.7309H138.356Z" fill="white"/>
<path d="M132.333 24.3445H128.569L127.876 26.2636H126.688L129.807 17.6836H131.107L134.215 26.2636H133.027L132.333 24.3445ZM132.011 23.4283L130.451 19.0703L128.891 23.4283H132.011Z" fill="white"/>
<path d="M125.844 17.6328V18.549H123.491V26.2623H122.365V18.549H120V17.6328H125.844Z" fill="white"/>
</g>
</svg>
