<svg xmlns="http://www.w3.org/2000/svg" width="24" height="24" viewBox="0 0 24 24" fill="none">
  <path d="M22.0027 12.0025C22.0027 12.0972 21.9758 12.19 21.9251 12.27C21.8744 12.35 21.8021 12.414 21.7165 12.4545L3.71647 20.9545C3.62656 20.9981 3.52563 21.0136 3.42678 20.9991C3.32793 20.9845 3.23574 20.9406 3.16219 20.873C3.08863 20.8053 3.03712 20.7172 3.01434 20.6199C2.99157 20.5226 2.99858 20.4207 3.03447 20.3275L5.87647 12.7005C6.04414 12.2502 6.04414 11.7547 5.87647 11.3045L3.03347 3.67748C2.9974 3.58412 2.99029 3.48206 3.01308 3.38461C3.03587 3.28715 3.08749 3.19883 3.16122 3.13114C3.23495 3.06346 3.32736 3.01956 3.4264 3.00517C3.52545 2.99079 3.62653 3.00657 3.71647 3.05048L21.7165 11.5505C21.8021 11.591 21.8744 11.655 21.9251 11.735C21.9758 11.815 22.0027 11.9078 22.0027 12.0025ZM22.0027 12.0025H6.00247" stroke="white" stroke-width="1.5" stroke-linecap="round" stroke-linejoin="round"/>
</svg>