<svg xmlns="http://www.w3.org/2000/svg" width="22" height="23" viewBox="0 0 22 23" fill="none">
  <path d="M20.3175 6.76249L19.8239 5.90589C19.4506 5.25806 19.264 4.93414 18.9464 4.80498C18.6288 4.67581 18.2696 4.77773 17.5513 4.98158L16.3311 5.32527C15.8725 5.43103 15.3913 5.37104 14.9726 5.15589L14.6357 4.96151C14.2766 4.73153 14.0004 4.39243 13.8475 3.99384L13.5136 2.99645C13.294 2.33643 13.1842 2.00642 12.9228 1.81766C12.6615 1.62891 12.3143 1.62891 11.6199 1.62891L10.5051 1.62891C9.81078 1.62891 9.4636 1.62891 9.20223 1.81766C8.94085 2.00642 8.83106 2.33643 8.61149 2.99645L8.27753 3.99384C8.12465 4.39243 7.84845 4.73153 7.48937 4.96151L7.15249 5.15589C6.73374 5.37104 6.25259 5.43103 5.79398 5.32527L4.57375 4.98158C3.85541 4.77773 3.49625 4.67581 3.17867 4.80498C2.86109 4.93414 2.67445 5.25806 2.30115 5.90589L1.80757 6.76249C1.45766 7.36974 1.2827 7.67336 1.31666 7.99658C1.35061 8.3198 1.58483 8.58027 2.05326 9.10121L3.0843 10.2539C3.3363 10.5729 3.51521 11.1289 3.51521 11.6287C3.51521 12.1289 3.33636 12.6847 3.08433 13.0038L2.05326 14.1565C1.58483 14.6775 1.35062 14.9379 1.31666 15.2611C1.2827 15.5844 1.45766 15.888 1.80757 16.4952L2.30114 17.3518C2.67443 17.9996 2.86109 18.3236 3.17867 18.4527C3.49625 18.5819 3.85542 18.48 4.57377 18.2761L5.79394 17.9324C6.25263 17.8266 6.73387 17.8867 7.15267 18.1019L7.4895 18.2963C7.84851 18.5263 8.12464 18.8653 8.2775 19.2639L8.61149 20.2614C8.83106 20.9214 8.94085 21.2514 9.20223 21.4401C9.4636 21.6289 9.81078 21.6289 10.5051 21.6289H11.6199C12.3143 21.6289 12.6615 21.6289 12.9228 21.4401C13.1842 21.2514 13.294 20.9214 13.5136 20.2614L13.8476 19.2639C14.0004 18.8653 14.2765 18.5263 14.6356 18.2963L14.9724 18.1019C15.3912 17.8867 15.8724 17.8266 16.3311 17.9324L17.5513 18.2761C18.2696 18.48 18.6288 18.5819 18.9464 18.4527C19.264 18.3236 19.4506 17.9996 19.8239 17.3518L20.3175 16.4952C20.6674 15.888 20.8423 15.5844 20.8084 15.2611C20.7744 14.9379 20.5402 14.6775 20.0718 14.1565L19.0407 13.0038C18.7887 12.6847 18.6098 12.1289 18.6098 11.6287C18.6098 11.1289 18.7888 10.5729 19.0407 10.2539L20.0718 9.10121C20.5402 8.58027 20.7744 8.3198 20.8084 7.99658C20.8423 7.67336 20.6674 7.36974 20.3175 6.76249Z" stroke="currentColor" stroke-width="1.5" stroke-linecap="round"/>
  <path d="M14.5156 11.6211C14.5156 13.5541 12.9486 15.1211 11.0156 15.1211C9.08263 15.1211 7.51563 13.5541 7.51563 11.6211C7.51563 9.6881 9.08263 8.12109 11.0156 8.12109C12.9486 8.12109 14.5156 9.6881 14.5156 11.6211Z" stroke="currentColor" stroke-width="1.5"/>
</svg>