<svg xmlns="http://www.w3.org/2000/svg" width="18" height="20" viewBox="0 0 18 20" fill="none">
  <path d="M16.7672 5.95084L16.3558 5.237C16.0448 4.69714 15.8892 4.42721 15.6246 4.31958C15.3599 4.21194 15.0606 4.29687 14.462 4.46674L13.4452 4.75316C13.063 4.84129 12.662 4.79129 12.3131 4.612L12.0323 4.45002C11.7331 4.25837 11.5029 3.97579 11.3755 3.64363L11.0972 2.81247C10.9143 2.26246 10.8228 1.98745 10.605 1.83015C10.3871 1.67285 10.0978 1.67285 9.5192 1.67285H8.59022C8.01159 1.67285 7.72227 1.67285 7.50446 1.83015C7.28665 1.98745 7.19516 2.26246 7.01218 2.81247L6.73388 3.64363C6.60648 3.97579 6.37631 4.25837 6.07708 4.45002L5.79634 4.612C5.44739 4.79129 5.04643 4.84129 4.66426 4.75316L3.64739 4.46674C3.04878 4.29687 2.74948 4.21194 2.48483 4.31958C2.22018 4.42721 2.06464 4.69714 1.75357 5.237L1.34224 5.95084C1.05065 6.45688 0.904857 6.7099 0.933152 6.97925C0.961449 7.2486 1.15663 7.46566 1.54699 7.89977L2.40619 8.86036C2.61619 9.12621 2.76528 9.58952 2.76528 10.006C2.76528 10.4229 2.61624 10.886 2.40621 11.1519L1.54699 12.1125C1.15663 12.5466 0.961451 12.7637 0.933154 13.0331C0.904857 13.3024 1.05066 13.5554 1.34224 14.0615L1.75355 14.7753C2.06463 15.3151 2.22018 15.5851 2.48483 15.6927C2.74948 15.8004 3.04879 15.7154 3.64741 15.5455L4.66422 15.2591C5.04646 15.171 5.44749 15.221 5.79649 15.4003L6.07719 15.5623C6.37636 15.754 6.60647 16.0365 6.73385 16.3687L7.01218 17.1999C7.19516 17.7499 7.28665 18.0249 7.50446 18.1822C7.72227 18.3395 8.01159 18.3395 8.59022 18.3395H9.5192C10.0978 18.3395 10.3871 18.3395 10.605 18.1822C10.8228 18.0249 10.9143 17.7499 11.0972 17.1999L11.3756 16.3687C11.5029 16.0365 11.7331 15.754 12.0322 15.5623L12.3129 15.4003C12.6619 15.221 13.063 15.171 13.4452 15.2591L14.462 15.5455C15.0606 15.7154 15.3599 15.8004 15.6246 15.6927C15.8892 15.5851 16.0448 15.3151 16.3559 14.7753L16.3559 14.7753L16.7672 14.0615C17.0588 13.5554 17.2046 13.3024 17.1763 13.0331C17.148 12.7637 16.9528 12.5466 16.5624 12.1125L15.7032 11.1519C15.4932 10.886 15.3441 10.4229 15.3441 10.006C15.3441 9.58952 15.4932 9.12621 15.7032 8.86036L16.5624 7.89977C16.9528 7.46566 17.148 7.2486 17.1763 6.97925C17.2046 6.7099 17.0588 6.45688 16.7672 5.95084Z" stroke="black" stroke-width="1.5" stroke-linecap="round"/>
  <path d="M11.9349 9.99967C11.9349 11.6105 10.6291 12.9163 9.01823 12.9163C7.4074 12.9163 6.10156 11.6105 6.10156 9.99967C6.10156 8.38884 7.4074 7.08301 9.01823 7.08301C10.6291 7.08301 11.9349 8.38884 11.9349 9.99967Z" stroke="black" stroke-width="1.5"/>
</svg>