<svg width="13" height="12" viewBox="0 0 13 12" fill="none" xmlns="http://www.w3.org/2000/svg">
<path d="M11.5 6C11.5 3.23858 9.26142 1 6.5 1C3.73858 1 1.5 3.23858 1.5 6C1.5 8.76142 3.73858 11 6.5 11C9.26142 11 11.5 8.76142 11.5 6Z" stroke="currentColor"/>
<path d="M6.93191 3.86104L7.37186 4.74822C7.43185 4.87172 7.59184 4.99018 7.72682 5.01286L8.52423 5.14644C9.03418 5.23213 9.15416 5.60515 8.7867 5.97312L8.16677 6.59818C8.06178 6.70403 8.00429 6.90819 8.03679 7.05437L8.21427 7.82812C8.35425 8.44058 8.03179 8.67749 7.49435 8.3574L6.74693 7.9113C6.61194 7.83065 6.38947 7.83065 6.25198 7.9113L5.50457 8.3574C4.96963 8.67749 4.64466 8.43806 4.78465 7.82812L4.96213 7.05437C4.99462 6.90819 4.93713 6.70403 4.83214 6.59818L4.21221 5.97312C3.84725 5.60515 3.96474 5.23213 4.47468 5.14644L5.27209 5.01286C5.40458 4.99018 5.56456 4.87172 5.62455 4.74822L6.06451 3.86104C6.30448 3.37965 6.69444 3.37965 6.93191 3.86104Z" stroke="currentColor" stroke-linecap="round" stroke-linejoin="round"/>
</svg>
