<svg xmlns="http://www.w3.org/2000/svg" width="22" height="23" viewBox="0 0 22 23" fill="none">
  <path d="M9.47059 21.6211C5.47751 21.6211 3.48098 21.6211 2.24049 20.4495C1 19.2779 1 17.3923 1 13.6211L1 9.62109C1 5.84986 1 3.96424 2.24049 2.79267C3.48098 1.62109 5.47752 1.62109 9.47059 1.62109L10.5294 1.62109C14.5225 1.62109 16.519 1.62109 17.7595 2.79267C19 3.96424 19 5.84986 19 9.62109" stroke="black" stroke-width="1.5" stroke-linecap="round"/>
  <path d="M6 6.62109H14" stroke="black" stroke-width="1.5" stroke-linecap="round"/>
  <path d="M6 11.6211H12" stroke="black" stroke-width="1.5" stroke-linecap="round"/>
  <path d="M16.9992 13.6211C15.7328 13.6211 14.9117 14.4287 13.9405 14.7231C13.5456 14.8427 13.3482 14.9026 13.2683 14.987C13.1884 15.0713 13.165 15.1946 13.1182 15.4411C12.6174 18.0795 13.712 20.5187 16.3222 21.4681C16.6027 21.5701 16.7429 21.6211 17.0006 21.6211C17.2583 21.6211 17.3986 21.5701 17.679 21.4681C20.2891 20.5187 21.3826 18.0795 20.8817 15.4411C20.8349 15.1945 20.8114 15.0713 20.7315 14.9869C20.6516 14.9025 20.4542 14.8427 20.0593 14.7231C19.0878 14.4288 18.2657 13.6211 16.9992 13.6211Z" stroke="black" stroke-width="1.5" stroke-linecap="round" stroke-linejoin="round"/>
</svg>