<svg xmlns="http://www.w3.org/2000/svg" width="24" height="24" viewBox="0 0 24 24" fill="none">
  <path d="M10.7954 4.69398C10.9252 4.47221 11.2479 4.4783 11.3693 4.70481L13.9513 9.52154C13.9909 9.59547 14.0573 9.65147 14.1368 9.6781L18.5042 11.1403C18.771 11.2296 18.8098 11.5909 18.5682 11.7349L14.0846 14.4073C14.0376 14.4354 13.9983 14.4747 13.9703 14.5217L11.3771 18.8806C11.249 19.0959 10.9369 19.0948 10.8104 18.8785L8.26298 14.5238C8.23469 14.4754 8.19452 14.4351 8.14627 14.4066L3.55462 11.6954C3.32339 11.5588 3.34425 11.2178 3.5904 11.1104L8.1216 9.13457C8.18544 9.10673 8.23881 9.05935 8.27401 8.99924L10.7954 4.69398Z" fill="white"/>
  <path d="M18.8591 14.8858C19.011 14.6343 19.3781 14.6413 19.5202 14.8984L20.644 16.9314C20.6908 17.0161 20.7682 17.0799 20.8603 17.1098L22.5857 17.67C22.9001 17.7721 22.9451 18.1984 22.6589 18.3638L20.8007 19.4378C20.7457 19.4696 20.6995 19.5146 20.6663 19.5687L19.5289 21.4227C19.3792 21.6667 19.0242 21.6654 18.8764 21.4203L17.7609 19.5711C17.7273 19.5155 17.68 19.4693 17.6236 19.437L15.6688 18.3177C15.3946 18.1607 15.4188 17.7576 15.7099 17.6346L17.5955 16.8372C17.6697 16.8059 17.7321 16.7519 17.7737 16.6829L18.8591 14.8858Z" fill="white"/>
  <path d="M10.2749 2.87747C10.0859 2.6345 9.91984 2.37449 9.77882 2.10079C9.5033 1.59844 9.30979 1.05524 9.20565 0.491822C9.19778 0.468403 9.19951 0.442828 9.21047 0.42072C9.22142 0.398612 9.2407 0.381784 9.26405 0.373938C9.28741 0.366091 9.31294 0.367869 9.33501 0.37888C9.35709 0.389891 9.37392 0.409231 9.38179 0.43265C9.69696 0.851855 9.95288 1.3126 10.1423 1.80182C10.2992 2.1186 10.4123 2.45528 10.4785 2.80255C10.4906 2.9164 10.3204 2.99323 10.2749 2.87747Z" fill="white"/>
  <path d="M8.28256 4.35063C7.98652 4.26626 7.69891 4.15459 7.42343 4.01706C6.90436 3.7745 6.42733 3.45053 6.01046 3.05746C5.99028 3.04321 5.97657 3.02155 5.97235 2.99724C5.96813 2.97293 5.97374 2.94797 5.98795 2.92784C6.00216 2.90771 6.0238 2.89406 6.04812 2.88991C6.07244 2.88575 6.09745 2.89141 6.11763 2.90566C6.61958 3.0577 7.09825 3.27828 7.54008 3.56111C7.85383 3.724 8.14398 3.92883 8.40251 4.16995C8.47954 4.25466 8.38759 4.4172 8.28256 4.35063Z" fill="white"/>
</svg>