<svg width="240" height="240" viewBox="0 0 240 240" fill="none" xmlns="http://www.w3.org/2000/svg">
<g id="Completed--Streamline-Milano">
<g id="completed--interface-completed">
<g id="group">
<path id="vector" d="M177.103 181.058C165.99 125.999 152.302 76.2568 135.328 26.4827C133.778 21.9378 128.835 19.2328 123.824 20.193C113.475 22.1751 103.349 24.2853 93.234 26.6328C93.1435 26.4518 93.0519 26.2719 92.9581 26.092C92.4636 25.1417 90.3148 25.5567 89.4153 25.7786C78.7859 28.3987 68.9159 31.0132 57.4146 34.4224C56.5306 34.684 54.4789 35.4091 54.5341 36.4741C54.5418 36.6132 54.5495 36.7534 54.5583 36.8924C43.9974 40.0644 33.176 43.6248 21.8767 47.6929C17.1089 49.4091 14.2305 54.2299 15.1808 58.9072C25.9304 111.795 39.16 161.59 56.9511 213.53C58.2931 217.446 62.1758 220 66.4337 220C67.6599 220 68.4424 219.81 69.8021 219.557C102.89 213.413 136.458 204.485 170.406 192.261C175.167 190.547 178.045 185.73 177.102 181.06L177.103 181.058ZM57.7292 35.4798C69.3055 32.0485 79.1667 29.4427 89.6802 26.8491C90.3722 26.678 91.5409 26.5081 91.9791 26.5997C96.0538 34.4092 95.5572 40.0246 95.8033 40.5864C95.7106 40.7597 94.9965 41.2431 93.6225 41.6503C82.7072 44.8863 72.5524 47.6123 61.7222 50.2688C60.4033 50.5922 59.5414 50.5337 59.4398 50.5116C55.8375 43.6656 55.8805 38.2224 55.6201 36.5216C55.7128 36.3483 56.4279 35.8649 57.7292 35.4798ZM165.635 188.337C133.798 199.866 102.44 208.154 70.3098 214.068C66.1578 214.832 62.0456 212.539 60.7455 208.732C43.535 158.294 30.9907 110.617 20.8746 61.1377C20.0678 57.1921 22.4572 53.1328 26.4326 51.6936C35.9329 48.2579 45.5469 45.0606 55.2459 42.1072C55.8783 45.1611 56.9224 48.0946 58.4642 51.0259C58.9454 51.9442 60.9861 51.5866 61.9871 51.3416C72.7787 48.695 82.9511 45.9656 94.0121 42.6867C94.895 42.4251 96.9434 41.7011 96.8904 40.6372C96.7337 37.4597 96.2094 34.4368 95.2283 31.4448C102.468 29.7815 109.733 28.2563 117.01 26.8723C122.457 25.8371 122.522 25.783 123.577 25.783C127.147 25.783 130.405 27.9506 131.535 31.277C147.778 79.0998 160.839 126.736 171.411 178.825C172.167 182.551 170.11 186.716 165.636 188.336L165.635 188.337Z" fill="black"/>
<path id="vector_2" d="M62.2979 47.0367C64.3904 47.0367 87.7373 40.4103 89.7482 39.8297C92.1487 39.1366 92.1707 38.5351 92.1796 38.3111C92.2921 35.3411 91.6023 32.5941 89.9204 29.9464C89.799 29.7544 89.4745 29.2445 87.0343 29.8637C78.8175 31.9474 71.0246 34.0134 61.4735 36.7693C59.0653 37.4646 59.0476 38.0683 59.0399 38.2934C58.9461 41.3219 59.6105 44.0413 61.298 46.6603C61.3775 46.7828 61.5408 47.0367 62.2979 47.0367ZM91.0825 38.1047C89.6941 39.0704 65.8837 45.1704 64.2437 45.5842C63.8088 45.6946 62.7294 45.9738 62.139 45.9264C61.0773 44.2367 60.4548 42.4454 60.2274 40.6155C70.1129 37.7008 80.0812 35.0421 90.1014 32.6471C90.8176 34.3622 91.1476 36.1888 91.0825 38.1047Z" fill="black"/>
</g>
<g id="check list">
<path id="vector_3" d="M44.7123 94.5075C43.8029 94.5075 43.0358 94.0837 42.7787 93.3862C40.1409 86.2477 38.2967 79.3046 36.9524 71.814C36.7913 70.9156 37.4999 69.9863 38.6355 69.6045C45.5268 67.2923 51.5186 65.7582 58.0169 64.3742C59.1945 64.1237 60.2817 64.5674 60.5984 65.4282C63.1368 72.325 65.0771 79.3686 66.4268 86.9949C66.5858 87.8921 65.8772 88.8192 64.7438 89.2011C58.4661 91.3091 52.0439 93.0451 45.614 94.3861C45.3028 94.4512 45.071 94.5086 44.7134 94.5086L44.7123 94.5075ZM58.6692 65.4072C57.8161 65.4072 48.0255 67.6168 38.9865 70.6507C38.3331 70.8693 37.9855 71.324 38.0384 71.6187C39.3595 78.9845 41.1773 85.868 43.8139 93.0032C43.9188 93.2846 44.4485 93.501 45.1229 93.3597C51.7161 91.9823 57.964 90.3125 64.3486 88.1681C65.0451 87.9341 65.3927 87.4794 65.3408 87.1858C63.9977 79.6036 62.0453 72.5479 59.5632 65.8079C59.4815 65.586 59.1394 65.4061 58.6703 65.4061L58.6692 65.4072Z" fill="black"/>
<path id="vector_6" d="M53.3122 124.002C52.5012 124.002 51.8217 123.628 51.5964 123.009C49.082 116.122 47.2994 109.34 46.0196 102.113C45.8781 101.313 46.5161 100.482 47.537 100.135C54.2538 97.8538 60.0206 96.3749 66.094 95.0665C67.1517 94.8386 68.1241 95.2299 68.4024 95.9969C70.8592 102.752 72.6948 109.559 73.9808 116.887C74.1207 117.685 73.4827 118.516 72.4634 118.863C63.7387 121.828 54.2899 124.002 53.3122 124.002Z" fill="#47C0BA"/>
<path id="vector_4" d="M53.1911 124.93C52.2805 124.93 51.5135 124.507 51.2563 123.809C48.6186 116.671 46.7733 109.727 45.429 102.236C45.2679 101.338 45.9764 100.409 47.1121 100.027C54.2075 97.645 60.1828 96.1374 66.4924 94.7964C67.6755 94.5448 68.7582 94.9906 69.075 95.8515C71.5328 102.523 73.547 109.759 74.9034 117.417C75.0623 118.314 74.3549 119.243 73.2203 119.624C66.9471 121.731 60.5249 123.469 54.0905 124.809C53.7661 124.876 53.5442 124.93 53.1911 124.93ZM67.1458 95.8305C66.3478 95.8305 56.6146 98.0025 47.4642 101.074C46.8108 101.294 46.4631 101.747 46.5161 102.042C47.8361 109.397 49.6494 116.277 52.2916 123.427C52.3953 123.707 52.9273 123.924 53.6005 123.784C60.2104 122.41 66.4251 120.742 72.8252 118.592C73.5216 118.358 73.8693 117.904 73.8174 117.609C72.5349 110.348 70.5892 103.151 68.0397 96.2323C67.9581 96.0104 67.6159 95.8305 67.1458 95.8305Z" fill="black"/>
<path id="vector_5" d="M61.6811 155.607C60.7716 155.607 60.0046 155.183 59.7475 154.486C57.1263 147.391 55.2567 140.356 53.9212 132.913C53.7601 132.014 54.4675 131.085 55.6043 130.704C62.6997 128.323 68.675 126.814 74.9846 125.474C76.1666 125.223 77.2493 125.667 77.5672 126.529C80.1729 133.596 82.0734 140.68 83.3956 148.094C83.5556 148.992 82.8471 149.92 81.7125 150.302C75.4393 152.409 69.0182 154.145 62.5828 155.487C62.2715 155.552 62.0387 155.609 61.6822 155.609L61.6811 155.607ZM75.638 126.507C74.8422 126.507 65.1245 128.673 55.9564 131.75C55.3019 131.97 54.9554 132.424 55.0083 132.717C56.2941 139.872 58.114 146.879 60.7838 154.103C60.8875 154.383 61.4162 154.601 62.0927 154.459C68.686 153.085 74.9327 151.413 81.3174 149.268C82.0149 149.034 82.3626 148.58 82.3096 148.285C81.0305 141.093 79.1598 134.04 76.5319 126.907C76.4503 126.686 76.1081 126.505 75.638 126.505V126.507Z" fill="black"/>
<path id="vector_6_2" d="M73.2095 194.884C72.0451 194.884 71.0695 194.353 70.7461 193.475C67.136 183.705 64.5766 174.082 62.739 163.829C62.5359 162.694 63.452 161.514 64.9176 161.022C74.5614 157.786 82.8411 155.688 91.5611 153.832C93.0798 153.508 94.4759 154.064 94.8754 155.152C98.4028 164.735 101.038 174.393 102.885 184.79C103.086 185.922 102.17 187.101 100.706 187.593C88.1795 191.8 74.6133 194.884 73.2095 194.884Z" fill="#47C0BA"/>
<path id="vector_6_3" d="M73.2095 194.884C72.0451 194.884 71.0695 194.353 70.7461 193.475C67.136 183.705 64.5766 174.082 62.739 163.829C62.5359 162.694 63.452 161.514 64.9176 161.022C74.5614 157.786 82.8411 155.688 91.5611 153.832C93.0798 153.508 94.4759 154.064 94.8754 155.152C98.4027 164.735 101.038 174.393 102.885 184.79C103.086 185.922 102.17 187.101 100.706 187.593C88.1795 191.8 74.6133 194.884 73.2095 194.884ZM92.4088 154.846C91.3581 154.846 78.1859 157.733 65.2686 162.07C64.357 162.375 63.7224 163.063 63.825 163.635C65.6527 173.822 68.1933 183.386 71.7813 193.093C71.9833 193.639 72.8795 193.91 73.8187 193.716C82.6149 191.888 91.432 189.543 100.294 186.566C101.266 186.24 101.9 185.553 101.799 184.982C99.9468 174.553 97.3156 164.978 93.8402 155.533C93.6835 155.105 93.1041 154.845 92.4099 154.845L92.4088 154.846Z" fill="black"/>
<path id="vector_7" d="M106.424 143.772C106.255 143.475 105.965 143.286 105.607 143.24C103.278 142.939 96.4268 149.618 96.3617 149.687C90.8963 155.327 87.9263 162.38 84.9342 170.344C82.5514 169.718 82.6564 167.943 72.4596 167.105C70.409 166.933 67.1345 167.183 67.2614 169.239C67.3276 170.328 68.1719 171.068 68.9588 171.676C74.5687 176.016 80.9049 178.637 83.8108 180.457C85.2069 181.331 87.5059 182.836 89.04 182.704C93.7691 182.278 96.3032 170.544 97.8604 166.817L106.212 146.834C106.501 146.143 107.038 144.855 106.425 143.773L106.424 143.772Z" fill="black"/>
<path id="vector_8" d="M81.963 126.104C81.8295 125.867 81.5999 125.717 81.3196 125.681C79.8197 125.485 75.8576 129.407 75.8201 129.447C72.7088 132.656 70.9982 136.646 69.2996 141.149C68.5138 140.845 67.7236 140.275 66.7623 140.055C65.2911 139.717 63.7924 139.484 62.3035 139.363C58.7707 139.072 58.2542 140.955 60.1326 142.405C62.5507 144.275 65.3375 145.688 67.7964 146.934C68.7103 147.398 70.4463 148.782 71.6736 148.782C74.1447 148.782 75.6578 143.732 76.4381 141.332C77.0551 139.434 76.3719 141.189 81.8538 128.065C82.0348 127.631 82.3703 126.822 81.963 126.104Z" fill="black"/>
<path id="vector_9" d="M73.4752 95.6816C73.3405 95.4454 73.1121 95.2953 72.8317 95.2589C71.3286 95.0657 67.3697 98.9837 67.3322 99.0246C64.2144 102.242 62.5048 106.238 60.8051 110.745C59.6662 110.359 59.4421 109.403 53.8156 108.94C52.4416 108.831 50.4958 109.038 50.5808 110.413C50.6294 111.197 51.2905 111.708 51.6447 111.983C54.8696 114.478 58.5614 116.017 60.1805 117.031C61.0457 117.572 62.3591 118.432 63.3226 118.353C66.223 118.093 67.6677 111.272 68.576 109.101L73.3648 97.6428C73.5458 97.2079 73.8824 96.4012 73.4752 95.6816Z" fill="black"/>
<path id="vector_10" d="M65.0993 64.8454C64.9646 64.6092 64.7362 64.458 64.4558 64.4227C62.957 64.2329 58.9938 68.1476 58.9563 68.1884C55.844 71.3989 54.1344 75.3887 52.4358 79.8916C51.6544 79.5859 50.8477 79.0142 49.8985 78.7968C47.5742 78.2648 42.0592 77.1976 42.206 79.5771C42.2535 80.3596 42.9145 80.8717 43.2699 81.1465C45.6858 83.015 48.4737 84.4288 50.9338 85.6748C51.8443 86.135 53.5814 87.5234 54.8098 87.5223C57.2809 87.5223 58.7907 82.483 59.5743 80.0759C60.1924 78.1776 59.5114 79.9347 64.9911 66.8066C65.1721 66.3729 65.5098 65.565 65.1015 64.8454H65.0993Z" fill="black"/>
<path id="vector_11" d="M75.8924 67.0598C78.6581 66.7475 81.4041 65.7994 84.0871 65.0743C86.9157 64.3095 115.841 57.3255 118.996 56.4271C119.625 56.2483 119.351 55.3665 118.731 55.4669C113.95 56.2439 80.1735 64.6505 75.8074 66.7464C75.6617 66.8159 75.7268 67.0786 75.8924 67.0598Z" fill="black"/>
<path id="vector_12" d="M77.0672 75.1162C77.5594 75.05 126.378 62.636 127.548 62.2895C128.182 62.1019 127.909 61.2123 127.279 61.3172C122.378 62.1283 81.5425 72.5635 76.8928 74.7035C76.6368 74.8216 76.8387 75.1471 77.0672 75.1162Z" fill="black"/>
<path id="vector_13" d="M85.5826 98.3511C88.9885 97.6822 114.815 90.0029 118.123 88.9489C118.794 88.7348 118.517 87.6985 117.831 87.8883C112.394 89.3937 107.001 91.1033 101.6 92.7334C88.9565 96.5466 87.9632 96.7927 85.4348 97.8147C85.107 97.9471 85.2251 98.4217 85.5826 98.3511Z" fill="black"/>
<path id="vector_14" d="M86.4506 106.34C88.4416 106.182 87.2254 106.487 130.735 93.3691C131.561 93.1197 132.41 92.9144 133.161 92.4829C133.498 92.2898 133.368 91.696 132.956 91.7236C131.446 91.8229 129.918 92.484 128.477 92.9211C86.4142 105.686 88.0145 105.164 86.38 106.076C86.2619 106.142 86.3072 106.353 86.4506 106.34Z" fill="black"/>
<path id="vector_15" d="M93.7556 130.764C96.9683 130.041 112.307 124.131 135.446 118.412C136.256 118.212 137.094 118.063 137.824 117.643C138.151 117.454 137.994 116.973 137.637 116.956C136.224 116.889 134.707 117.489 133.348 117.834C119.62 121.311 107.406 125.165 98.2519 128.547C96.7001 129.12 95.0733 129.641 93.6 130.398C93.3914 130.505 93.5415 130.813 93.7556 130.764Z" fill="black"/>
<path id="vector_16" d="M94.5491 137.393C96.5522 137.229 104.372 134.252 120.301 130.204C121.399 129.925 122.887 129.804 123.786 129.075C123.968 128.927 123.867 128.591 123.646 128.546C122.513 128.315 121.114 128.919 120.024 129.198C116.08 130.207 97.039 135.381 94.442 136.994C94.2743 137.099 94.3284 137.41 94.5502 137.391L94.5491 137.393Z" fill="black"/>
<path id="vector_17" d="M105.706 161.788C107.116 161.68 108.466 161.319 109.834 160.979C111.25 160.628 148.23 150.919 151.433 150.174C152.17 150.003 151.858 148.864 151.121 149.04C138.966 151.925 126.939 155.34 114.888 158.622C108.551 160.348 107.082 160.729 105.605 161.414C105.427 161.497 105.513 161.803 105.707 161.787L105.706 161.788Z" fill="black"/>
<path id="vector_18" d="M107.506 170.266C115.87 168.331 124.245 165.187 144.584 159.883C147.845 159.034 151.162 158.343 154.399 157.412C155.017 157.235 154.751 156.356 154.137 156.464C147.628 157.608 114.781 166.935 107.357 169.73C107.026 169.855 107.151 170.348 107.505 170.267L107.506 170.266Z" fill="black"/>
<path id="vector_19" d="M109.591 178.015C115.945 177.035 127.355 173.721 135.872 171.333C136.734 171.091 137.813 170.906 138.539 170.363C138.76 170.197 138.679 169.886 138.402 169.856C137.614 169.771 136.727 170.086 135.973 170.295C135.073 170.545 111.435 176.935 109.433 177.442C109.054 177.538 109.223 178.072 109.591 178.015Z" fill="black"/>
</g>
<g id="pencil">
<path id="vector_20" d="M223.357 55.7336C219.928 52.0043 214.258 51.703 210.45 55.0449C186.985 75.6117 125.065 135.523 121.651 141.517C119.708 144.926 117.976 148.366 116.383 151.985C115.491 154.007 116.522 155.008 118.222 154.504C122.454 153.245 126.518 151.473 130.316 149.233C130.627 149.05 200.707 90.9272 223.106 68.514C226.612 65.0066 226.722 59.3923 223.357 55.7336ZM127.673 149.447C125.463 150.62 123.17 151.637 120.816 152.487C119.662 152.251 118.545 151.481 118.343 150.33C119.421 148.011 120.563 145.755 121.792 143.522C121.884 146.668 124.414 149.322 127.673 149.447ZM214.094 75.7905C212.556 77.265 203.504 74.8093 202.17 66.5716C201.951 65.2174 202.091 64.1833 202.577 63.5796C202.798 63.3047 203.38 62.733 203.951 62.211C203.134 67.0693 208.462 73.7973 216.031 73.8789C215.707 74.1824 214.821 75.0963 214.094 75.7905ZM222.325 67.7337C220.819 69.2413 219.102 70.9145 217.198 72.7278C210.8 73.3083 205.527 68.3926 205.006 63.9107C204.857 62.6293 205.113 61.8159 205.595 60.8524C207.649 58.9983 209.52 57.3306 211.178 55.8749C214.535 52.9314 219.527 53.1985 222.545 56.4808C225.508 59.7024 225.412 64.6457 222.325 67.7337Z" fill="black"/>
<path id="vector_21" d="M212.574 57.1099C209.834 60.7928 215.443 67.0186 220.09 66.789C220.638 66.7614 221.358 66.6709 221.808 66.3288C222.063 66.1346 221.966 65.7913 221.651 65.7505C220.665 65.6203 218.094 66.3432 215.187 63.6745C213.366 62.0036 212.122 59.6925 212.728 57.175C212.751 57.0779 212.63 57.036 212.575 57.1099H212.574Z" fill="black"/>
</g>
</g>
</g>
</svg>
