<svg xmlns="http://www.w3.org/2000/svg" width="42" height="42" viewBox="0 0 42 42" fill="none">
  <path d="M41.9861 21.0066C41.9861 31.6129 34.1264 40.3814 23.916 41.8043C22.9613 41.9367 21.9845 42.0059 20.9931 42.0059C19.8486 42.0059 18.7247 41.9146 17.6303 41.7381C7.63465 40.1283 0 31.4584 0 21.0066C0 9.40852 9.39988 0.00585938 20.9945 0.00585938C32.5892 0.00585938 41.9891 9.40852 41.9891 21.0066H41.9861Z" fill="#1C1C1B"/>
  <path d="M8.51344 9.26758L18.1958 22.2165L8.45312 32.7448H10.6464L19.1769 23.5275L26.0687 32.7448H33.5313L23.3046 19.0675L32.3736 9.26758H30.1802L22.3249 17.7565L15.9775 9.26758H8.5149H8.51344ZM11.7379 10.8832H15.1654L30.3038 31.1291H26.8763L11.7379 10.8832Z" fill="white"/>
</svg>