<svg xmlns="http://www.w3.org/2000/svg" width="20" height="20" viewBox="0 0 20 20" fill="none">
  <path d="M10.7328 5.84844L14.7102 6.90817M9.88017 9.01243L11.8689 9.5423M9.97909 14.9733L10.7746 15.1853C13.0245 15.7847 14.1495 16.0845 15.0358 15.5757C15.9221 15.0669 16.2235 13.9482 16.8264 11.711L17.679 8.54696C18.2819 6.30968 18.5833 5.19104 18.0716 4.30977C17.5599 3.4285 16.4349 3.12876 14.185 2.52928L13.3895 2.31733C11.1395 1.71786 10.0145 1.41812 9.12826 1.92692C8.24199 2.43572 7.94056 3.55436 7.33768 5.79164L6.48508 8.95564C5.8822 11.1929 5.58076 12.3116 6.09245 13.1928C6.60413 14.0741 7.72912 14.3738 9.97909 14.9733Z" stroke="currentColor" stroke-width="1.5" stroke-linecap="round"/>
  <path d="M9.99935 17.4579L9.20573 17.674C6.96104 18.2852 5.8387 18.5908 4.95451 18.072C4.07032 17.5533 3.76959 16.4127 3.16813 14.1315L2.31753 10.9054C1.71607 8.62428 1.41534 7.48369 1.92582 6.58514C2.36741 5.80786 3.33268 5.83616 4.58268 5.83607" stroke="currentColor" stroke-width="1.5" stroke-linecap="round"/>
</svg>