<svg xmlns="http://www.w3.org/2000/svg" width="22" height="22" viewBox="0 0 22 22" fill="none">
  <path d="M4.18007 14.9175C2.92249 15.6546 -0.374787 17.1597 1.63348 19.0431C2.6145 19.9631 3.7071 20.6211 5.08077 20.6211H12.9192C14.2929 20.6211 15.3855 19.9631 16.3665 19.0431C18.3748 17.1597 15.0775 15.6546 13.8199 14.9175C10.8709 13.189 7.12906 13.189 4.18007 14.9175Z" stroke="black" stroke-width="1.5" stroke-linecap="round" stroke-linejoin="round"/>
  <path d="M13 6.62109C13 8.83023 11.2091 10.6211 9 10.6211C6.79086 10.6211 5 8.83023 5 6.62109C5 4.41195 6.79086 2.62109 9 2.62109C11.2091 2.62109 13 4.41195 13 6.62109Z" stroke="black" stroke-width="1.5"/>
  <path d="M18.5 6.76395V7.62109M18.5 6.76395C17.777 6.76395 17.14 6.38515 16.7664 5.80997M18.5 6.76395C19.223 6.76395 19.86 6.38515 20.2336 5.80997M18.5 2.47824C19.223 2.47824 19.8601 2.8571 20.2336 3.43234M18.5 2.47824C17.777 2.47824 17.1399 2.8571 16.7664 3.43234M18.5 2.47824V1.62109M21 2.90681L20.2336 3.43234M16.0003 6.33538L16.7664 5.80997M16 2.90681L16.7664 3.43234M20.9997 6.33538L20.2336 5.80997M20.2336 3.43234C20.4545 3.7725 20.5833 4.18133 20.5833 4.62109C20.5833 5.06091 20.4545 5.46979 20.2336 5.80997M16.7664 3.43234C16.5455 3.7725 16.4167 4.18133 16.4167 4.62109C16.4167 5.06091 16.5455 5.46979 16.7664 5.80997" stroke="black" stroke-width="1.5" stroke-linecap="round"/>
</svg>