<svg width="30" height="30" viewBox="0 0 30 30" fill="none" xmlns="http://www.w3.org/2000/svg">
<circle cx="14.9974" cy="15.0001" r="13.3333" stroke="currentColor" stroke-width="1.5"/>
<path d="M19 10.4167C19.4142 10.4167 19.75 10.081 19.75 9.66675C19.75 9.25254 19.4142 8.91675 19 8.91675V10.4167ZM11 8.91675C10.5858 8.91675 10.25 9.25253 10.25 9.66675C10.25 10.081 10.5858 10.4167 11 10.4167L11 8.91675ZM11.7766 15.6597C11.499 15.9672 11.5233 16.4414 11.8308 16.719C12.1383 16.9965 12.6125 16.9722 12.8901 16.6648L11.7766 15.6597ZM13.5858 14.7746L13.029 14.2721L13.5858 14.7746ZM16.4142 14.7746L15.8575 15.2772L16.4142 14.7746ZM17.1099 16.6648C17.3875 16.9722 17.8617 16.9965 18.1692 16.719C18.4767 16.4414 18.501 15.9672 18.2234 15.6597L17.1099 16.6648ZM14.25 21.6667C14.25 22.081 14.5858 22.4167 15 22.4167C15.4142 22.4167 15.75 22.081 15.75 21.6667H14.25ZM19 8.91675L11 8.91675L11 10.4167L19 10.4167V8.91675ZM12.8901 16.6648L14.1425 15.2772L13.029 14.2721L11.7766 15.6597L12.8901 16.6648ZM15.8575 15.2772L17.1099 16.6648L18.2234 15.6597L16.971 14.2721L15.8575 15.2772ZM14.1425 15.2772C14.4905 14.8917 14.7012 14.6606 14.8717 14.5165C15.0288 14.3837 15.0475 14.4167 15 14.4167V12.9167C14.5383 12.9167 14.1832 13.1344 13.9034 13.3709C13.637 13.5961 13.3477 13.919 13.029 14.2721L14.1425 15.2772ZM16.971 14.2721C16.6523 13.919 16.363 13.5961 16.0966 13.3709C15.8168 13.1344 15.4618 12.9167 15 12.9167V14.4167C14.9525 14.4167 14.9712 14.3837 15.1283 14.5165C15.2988 14.6606 15.5095 14.8917 15.8575 15.2772L16.971 14.2721ZM14.25 13.6667L14.25 21.6667H15.75L15.75 13.6667H14.25Z" fill="currentColor"/>
</svg>
