<svg width="30" height="30" viewBox="0 0 30 30" fill="none" xmlns="http://www.w3.org/2000/svg">
<path d="M21.5945 3.23082C22.3776 2.44779 22.7691 2.05628 23.2028 1.86905C23.8277 1.59931 24.5361 1.59931 25.161 1.86905C25.5947 2.05628 25.9862 2.44779 26.7693 3.23082C27.5523 4.01384 27.9438 4.40535 28.131 4.83908C28.4008 5.46394 28.4008 6.17241 28.131 6.79727C27.9438 7.231 27.5523 7.62251 26.7693 8.40553L20.0738 15.101C18.4242 16.7506 17.5994 17.5754 16.5664 18.0641C15.5334 18.5528 14.3726 18.6673 12.051 18.8964L11 19.0001L11.1037 17.9491C11.3328 15.6275 11.4473 14.4667 11.936 13.4337C12.4247 12.4006 13.2495 11.5759 14.8991 9.92627L21.5945 3.23082Z" stroke="currentColor" stroke-width="1.5" stroke-linejoin="round"/>
<path d="M6.9974 19H3.9974C2.70873 19 1.66406 20.0447 1.66406 21.3333C1.66406 22.622 2.70873 23.6667 3.9974 23.6667H16.6641C17.9527 23.6667 18.9974 24.7113 18.9974 26C18.9974 27.2887 17.9527 28.3333 16.6641 28.3333H13.6641" stroke="currentColor" stroke-width="1.5" stroke-linecap="round" stroke-linejoin="round"/>
</svg>
