<svg width="48" height="48" viewBox="0 0 48 48" fill="none" xmlns="http://www.w3.org/2000/svg">
<rect width="48" height="48" rx="24" fill="#1E417C" fill-opacity="0.1"/>
<path d="M26.9531 24.3948C26.8016 25.0215 26.0857 25.4644 24.6539 26.3502C23.2697 27.2064 22.5777 27.6346 22.0199 27.4625C21.7893 27.3913 21.5793 27.2562 21.4098 27.07C21 26.6198 21 25.7465 21 24C21 22.2535 21 21.3802 21.4098 20.9299C21.5793 20.7438 21.7893 20.6087 22.0199 20.5375C22.5777 20.3654 23.2697 20.7936 24.6539 21.6498C26.0857 22.5356 26.8016 22.9785 26.9531 23.6052C27.0156 23.8639 27.0156 24.1361 26.9531 24.3948Z" stroke="#0074AD" stroke-width="1.5" stroke-linejoin="round"/>
<path d="M14.5 24C14.5 19.5217 14.5 17.2825 15.8912 15.8912C17.2825 14.5 19.5217 14.5 24 14.5C28.4783 14.5 30.7175 14.5 32.1088 15.8912C33.5 17.2825 33.5 19.5217 33.5 24C33.5 28.4783 33.5 30.7175 32.1088 32.1088C30.7175 33.5 28.4783 33.5 24 33.5C19.5217 33.5 17.2825 33.5 15.8912 32.1088C14.5 30.7175 14.5 28.4783 14.5 24Z" stroke="#0074AD" stroke-width="1.5"/>
</svg>
